<?xml version="1.0" standalone="no"?>
<!DOCTYPE svg PUBLIC "-//W3C//DTD SVG 1.1//EN" "http://www.w3.org/Graphics/SVG/1.1/DTD/svg11.dtd" >
<svg xmlns="http://www.w3.org/2000/svg">
<metadata>
This is a custom SVG webfont generated by Font Squirrel.
Copyright   : 2009 Hans Reichel published by FSI FontShop International GmbH
Designer    : Hans Reichel
Foundry     : FSI
Foundry URL : httpwwwfontfontcom
</metadata>
<defs>
<font id="DaxComp-ItaRegular" horiz-adv-x="1081" >
<font-face units-per-em="2048" ascent="1608" descent="-440" />
<missing-glyph horiz-adv-x="565" />
<glyph unicode=" "  horiz-adv-x="565" />
<glyph unicode="&#x09;" horiz-adv-x="565" />
<glyph unicode="&#xa0;" horiz-adv-x="565" />
<glyph unicode="!" horiz-adv-x="569" d="M84 90q0 55 41 94t96 39q43 0 73 -29.5t30 -70.5q0 -55 -42 -95t-98 -40q-43 0 -71.5 30.5t-28.5 71.5zM205 467l145 942h211l-221 -942h-135z" />
<glyph unicode="&#x22;" horiz-adv-x="798" d="M240 872l59 506q39 49 96 49t80 -49l-137 -506h-98zM575 872l58 506q39 49 98 49q57 0 80 -49l-137 -506h-99z" />
<glyph unicode="#" d="M55 459l19 98h194l107 322h-182l18 98h197l143 432h106l-141 -432h258l144 432h108l-143 -432h182l-18 -98h-197l-105 -322h183l-21 -98h-194l-152 -459h-108l151 459h-260l-151 -459h-107l152 459h-183zM377 557h260l106 322h-260z" />
<glyph unicode="$" d="M37 57l76 125q111 -63 266 -63q76 0 135 23.5t101 63.5t63.5 92t21.5 112q0 66 -33.5 110.5t-85 80.5t-110.5 71t-110.5 80t-85 105.5t-33.5 150.5q0 80 27.5 150.5t80.5 125.5t130 92t173 49l45 236h113l-45 -231q72 -4 139.5 -24t120.5 -54l-70 -113q-45 29 -103 44 t-124 15q-141 0 -221 -75.5t-80 -194.5q0 -66 35 -110t86 -79.5t111.5 -70.5t111.5 -80t86 -107.5t35 -152.5q0 -82 -29.5 -156.5t-85 -135t-135.5 -100.5t-180 -52l-47 -246h-115l47 242q-86 4 -164.5 21t-146.5 56z" />
<glyph unicode="%" horiz-adv-x="1740" d="M186 854q0 80 21.5 180.5t66.5 188.5t117 147.5t174 59.5q111 0 165 -83t54 -217q0 -80 -21.5 -179t-66.5 -186t-117.5 -147.5t-172.5 -60.5q-104 0 -162 79t-58 218zM313 831q0 -86 24.5 -134t80.5 -48q41 0 73.5 26.5t61.5 72.5q25 39 43 91t32.5 108.5t21.5 112.5 t7 103q0 78 -22.5 129t-81.5 51q-43 0 -77 -29.5t-62 -76.5q-23 -41 -41.5 -92t-31.5 -106.5t-20.5 -110t-7.5 -97.5zM465 25l758 1409l96 -50l-758 -1409zM1001 276q0 80 21.5 180.5t67 188.5t117 147.5t173.5 59.5q111 0 165 -83t54 -216q0 -80 -21.5 -179.5t-66.5 -186.5 t-117.5 -147t-172.5 -60q-104 0 -162 78.5t-58 217.5zM1128 254q0 -86 25 -134t80 -48q41 0 73.5 26.5t61.5 71.5q25 39 43.5 91t32.5 108.5t21.5 113t7.5 103.5q0 78 -23 129t-82 51q-43 0 -77 -29.5t-62 -77.5q-23 -41 -41.5 -92t-31.5 -106t-20.5 -109.5t-7.5 -97.5z" />
<glyph unicode="&#x26;" horiz-adv-x="1255" d="M53 311q0 160 109.5 279t337.5 186v4q-104 27 -165 95.5t-61 173.5q0 84 34 153.5t95.5 120.5t147.5 79t190 28q80 0 151 -19.5t128 -54.5l-70 -107q-41 25 -96 39.5t-115 14.5q-59 0 -111.5 -18.5t-91 -52.5t-61 -81t-22.5 -104q0 -86 60 -142.5t167 -56.5q74 0 147.5 9 t149.5 26l301 59v-125l-252 -41l-139 -717q-78 -41 -182.5 -60t-208.5 -19q-213 0 -328 89.5t-115 241.5zM244 319q0 -98 68.5 -159.5t211.5 -61.5q55 0 106.5 10.5t92.5 26.5l123 621q-201 -31 -330 -83t-197 -141q-35 -47 -55 -101.5t-20 -111.5z" />
<glyph unicode="'" horiz-adv-x="462" d="M240 872l59 506q39 49 96 49t80 -49l-137 -506h-98z" />
<glyph unicode="(" horiz-adv-x="702" d="M102 319q0 391 168 723t475 603l91 -68q-127 -129 -228.5 -277.5t-174.5 -313.5t-111.5 -341t-38.5 -356q0 -186 41 -365.5t125 -331.5l-99 -65q-123 176 -185.5 376.5t-62.5 415.5z" />
<glyph unicode=")" horiz-adv-x="702" d="M-133 -406q125 129 227.5 277.5t174 313.5t110.5 340t39 358q0 186 -41 365t-125 331l100 66q123 -176 185.5 -377t62.5 -416q0 -391 -168 -723t-475 -602z" />
<glyph unicode="*" horiz-adv-x="880" d="M287 1479q0 45 31.5 75.5t76.5 30.5q35 0 57.5 -23.5t22.5 -56.5q0 -43 -33.5 -74.5t-76.5 -31.5q-35 0 -56.5 23.5t-21.5 56.5zM328 1206q0 45 31.5 76t76.5 31q35 0 57.5 -24.5t22.5 -57.5q0 -43 -33.5 -74t-76.5 -31q-35 0 -56.5 23.5t-21.5 56.5zM524 1409 q0 37 28 63.5t64 26.5q29 0 48.5 -19.5t19.5 -47.5q0 -39 -25.5 -65t-64.5 -26q-29 0 -49.5 19.5t-20.5 48.5zM555 1653q0 45 33 75.5t78 30.5q35 0 56 -24.5t21 -57.5q0 -43 -32.5 -73.5t-75.5 -30.5q-35 0 -57.5 23.5t-22.5 56.5zM618 1206q0 45 32 76t77 31 q35 0 57.5 -24.5t22.5 -57.5q0 -43 -34 -74t-77 -31q-35 0 -56.5 23.5t-21.5 56.5zM758 1479q0 45 32.5 75.5t77.5 30.5q35 0 56.5 -23.5t21.5 -56.5q0 -43 -32.5 -74.5t-75.5 -31.5q-35 0 -57.5 23.5t-22.5 56.5z" />
<glyph unicode="+" horiz-adv-x="1060" d="M133 621l25 127h334l65 335h139l-65 -335h334l-25 -127h-334l-65 -338h-140l66 338h-334z" />
<glyph unicode="," horiz-adv-x="526" d="M-137 -297l248 461q23 27 54.5 43t65.5 16q74 0 86 -59l-337 -461h-117z" />
<glyph unicode="-" horiz-adv-x="704" d="M125 612l29 144h462l-28 -144h-463z" />
<glyph unicode="." horiz-adv-x="514" d="M45 90q0 55 41 94t96 39q43 0 73 -29.5t30 -70.5q0 -55 -42 -95t-98 -40q-43 0 -71.5 30.5t-28.5 71.5z" />
<glyph unicode="/" horiz-adv-x="956" d="M-170 -379l1094 2024l139 -72l-1094 -2022z" />
<glyph unicode="0" d="M104 418q0 94 14.5 205.5t44.5 223t77 217t113.5 186.5t152.5 130.5t194 49.5q160 0 240 -114t80 -325q0 -94 -14.5 -205.5t-44 -224t-75.5 -217t-112.5 -185.5t-152.5 -130t-195 -49q-156 0 -239 110.5t-83 327.5zM272 385q0 -145 45 -214t129 -69q59 0 108.5 34 t88.5 90.5t69.5 131t55.5 156.5q35 117 59.5 254t24.5 258q0 287 -170 287q-59 0 -108.5 -33t-89.5 -88t-70.5 -128t-55.5 -155q-16 -59 -31.5 -126.5t-27.5 -136t-19.5 -136.5t-7.5 -125z" />
<glyph unicode="1" d="M295 1081v111q154 23 282 77t199 140h125l-274 -1409h-181l230 1182q-35 -18 -81 -35t-98.5 -30t-104.5 -22.5t-97 -13.5z" />
<glyph unicode="2" d="M-27 0l652 729q74 84 129 173t55 194q0 94 -56.5 146t-179.5 52q-66 0 -138.5 -16t-133.5 -45l-27 121q78 41 168 58.5t191 17.5q186 0 277 -87.5t91 -228.5q0 -66 -21.5 -126t-56 -116.5t-78.5 -109.5t-91 -103l-478 -509h566l-31 -150h-838z" />
<glyph unicode="3" d="M-6 51l72 123q55 -29 126.5 -44t141.5 -15q88 0 156.5 28.5t116.5 77.5t74 113.5t26 134.5q0 111 -80 173.5t-230 62.5h-43l19 104q88 6 163.5 32.5t131 68.5t87 98.5t31.5 121.5q0 86 -55 127t-147 41q-70 0 -140.5 -16t-136.5 -45l-26 121q86 39 171 55.5t177 16.5 q74 0 136 -19.5t108.5 -55.5t72 -88.5t25.5 -115.5q0 -70 -28 -127t-73 -103.5t-104 -80t-123 -56.5v-4q111 -29 180.5 -107.5t69.5 -197.5q0 -100 -40 -190t-112.5 -158t-174 -107.5t-226.5 -39.5q-94 0 -185 17t-161 54z" />
<glyph unicode="4" d="M49 322l23 116l762 971h176l-191 -979h115l-21 -108h-114l-64 -322h-166l64 322h-584zM205 430h450l115 590q10 55 22.5 110.5t24.5 102.5h-4q-29 -45 -58.5 -90t-72.5 -101z" />
<glyph unicode="5" d="M-6 51l72 123q53 -29 123.5 -44t144.5 -15q82 0 150.5 29.5t117.5 79.5t77 118t28 141q0 111 -73 176.5t-239 65.5q-47 0 -98 -4t-104 -12l213 700h636l-28 -149h-508l-131 -433q29 4 55.5 6.5t54.5 2.5q203 0 306.5 -95.5t103.5 -251.5q0 -106 -43 -199t-119 -162 t-178 -108.5t-221 -39.5q-90 0 -179 17t-161 54z" />
<glyph unicode="6" d="M92 373q0 143 50.5 303t160 306t283.5 265t422 183l16 -125q-246 -72 -406.5 -206t-244.5 -292q49 16 98 25.5t102 9.5q180 0 277.5 -92.5t97.5 -247.5q0 -96 -31.5 -190.5t-96 -168t-160 -118.5t-222.5 -45q-84 0 -148.5 28.5t-108.5 80.5t-66.5 125t-22.5 159zM260 369 q0 -119 48 -194t155 -75q78 0 137 38t99 96.5t60.5 130t20.5 141.5q0 111 -63.5 173t-192.5 62q-47 0 -100 -11t-100 -28q-35 -86 -49.5 -171.5t-14.5 -161.5z" />
<glyph unicode="7" d="M100 0l785 1260h-641l28 149h865l-271 -438q-84 -137 -166 -278.5t-153.5 -270.5t-128 -238.5t-88.5 -183.5h-230z" />
<glyph unicode="8" d="M59 283q0 92 33 161.5t88.5 124t126 95.5t144.5 77q-41 27 -77 55.5t-64.5 64.5t-45 81t-16.5 100q0 78 32.5 148t93 123t143.5 85t185 32q72 0 133.5 -20.5t105.5 -57.5t68.5 -88.5t24.5 -112.5q0 -82 -28.5 -143.5t-75.5 -110.5t-109.5 -88t-130.5 -72q45 -29 88 -61.5 t76 -72.5t53.5 -89t20.5 -113q0 -84 -35 -160.5t-99.5 -135t-157.5 -92t-210 -33.5q-74 0 -140.5 20t-116.5 59t-80 95.5t-30 128.5zM221 299q0 -47 18.5 -85t49 -63.5t71.5 -39t86 -13.5q63 0 121 22.5t101 62.5t68.5 94.5t25.5 119.5q0 51 -17.5 91t-45 72t-65.5 59.5 t-77 52.5q-66 -33 -126 -68t-107.5 -78t-75 -98t-27.5 -129zM406 1049q0 -84 53 -140.5t127 -103.5q59 31 113.5 63.5t95.5 72.5t64.5 90t23.5 114q0 80 -52.5 128t-142.5 48q-57 0 -108.5 -20.5t-90 -57.5t-61 -87t-22.5 -107z" />
<glyph unicode="9" d="M106 109q246 72 406 203.5t244 289.5q-49 -16 -98.5 -25.5t-102.5 -9.5q-180 0 -276.5 93.5t-96.5 248.5q0 96 32 189.5t96.5 167t158.5 119t221 45.5q84 0 149.5 -30t109.5 -82t66.5 -124t22.5 -158q0 -145 -51 -305t-160.5 -306t-283.5 -264t-420 -181zM350 909 q0 -111 62.5 -173t191.5 -62q47 0 100.5 10t100.5 27q35 86 50 171t15 162q0 119 -48 194t-154 75q-78 0 -137.5 -37t-99.5 -95.5t-60.5 -130t-20.5 -141.5z" />
<glyph unicode=":" horiz-adv-x="534" d="M66 90q0 55 40.5 94t96.5 39q43 0 72.5 -29.5t29.5 -70.5q0 -55 -42 -95t-97 -40q-43 0 -71.5 30.5t-28.5 71.5zM186 713q0 55 41 94t97 39q43 0 72.5 -30t29.5 -71q0 -55 -42 -95t-97 -40q-43 0 -72 31t-29 72z" />
<glyph unicode=";" horiz-adv-x="538" d="M-123 -297l246 461q23 27 54.5 43t66.5 16q74 0 86 -59l-336 -461h-117zM190 713q0 55 42 94t98 39q43 0 71.5 -30t28.5 -71q0 -55 -41 -95t-96 -40q-43 0 -73 31t-30 72z" />
<glyph unicode="&#x3c;" horiz-adv-x="1060" d="M133 625l25 118l874 353l-28 -150l-701 -266v-4l596 -266l-27 -140z" />
<glyph unicode="=" horiz-adv-x="1060" d="M98 432l25 127h805l-25 -127h-805zM170 807l25 127h804l-24 -127h-805z" />
<glyph unicode="&#x3e;" horiz-adv-x="1060" d="M66 270l30 152l701 266v4l-596 266l26 138l738 -353l-23 -118z" />
<glyph unicode="?" horiz-adv-x="829" d="M197 90q0 55 42 94t97 39q43 0 72.5 -29.5t29.5 -70.5q0 -55 -42 -95t-97 -40q-43 0 -72.5 30.5t-29.5 71.5zM252 1354q66 37 146.5 56.5t162.5 19.5q150 0 243 -72t93 -207q0 -82 -36 -146.5t-89 -112.5t-118.5 -79t-123.5 -47l-75 -299h-136l50 358q63 14 125.5 40 t109.5 65t77 90t30 117q0 76 -51.5 119.5t-151.5 43.5q-53 0 -114.5 -15t-110.5 -40z" />
<glyph unicode="@" horiz-adv-x="1851" d="M78 334q0 203 77.5 398.5t222 351t349.5 251t457 95.5q150 0 261 -47.5t185 -127t111 -185t37 -224.5q0 -172 -66.5 -329t-182.5 -276.5t-270.5 -191.5t-330.5 -72q-106 0 -184 34t-128.5 90.5t-75 132t-24.5 161.5q0 117 39 235t112.5 214t180 156.5t242.5 60.5 q86 0 156.5 -27.5t113.5 -64.5l-236 -860q100 29 195.5 96t169.5 164.5t118 221.5t44 265q0 98 -29 184t-87 149.5t-150.5 100.5t-217.5 37q-223 0 -401 -89t-303 -231.5t-191.5 -319.5t-66.5 -353q0 -129 39 -244t116.5 -199t195.5 -133t278 -49q197 0 374.5 55.5 t337.5 169.5l53 -88q-170 -123 -368.5 -183t-413.5 -60q-180 0 -318.5 57t-231.5 155.5t-141 231.5t-48 287zM645 387q0 -141 76 -222t223 -81h19q10 0 26 2l225 836q-27 16 -65.5 26t-83.5 10q-100 0 -178 -56t-132.5 -140t-82 -185.5t-27.5 -189.5z" />
<glyph unicode="A" horiz-adv-x="1208" d="M-76 0l750 1409h180l201 -1409h-191l-47 426h-491l-215 -426h-187zM383 539h420l-60 532q-4 47 -7 94t-3 88h-4q-14 -41 -32.5 -87t-43.5 -95z" />
<glyph unicode="B" horiz-adv-x="1150" d="M53 55l254 1299q82 39 178.5 57.5t200.5 18.5q201 0 306.5 -85t105.5 -221q0 -152 -95.5 -247t-244.5 -132v-4q123 -27 190.5 -114.5t67.5 -198.5q0 -61 -24.5 -139t-90 -146.5t-180.5 -115.5t-293 -47q-109 0 -206 19t-169 56zM246 129q41 -16 90 -23.5t102 -7.5 q102 0 189.5 31t140.5 109q33 47 48 105t15 112q0 123 -91 181t-277 58h-107zM375 788h106q289 0 383 148q27 41 41.5 93t14.5 99q0 88 -61.5 138.5t-194.5 50.5q-49 0 -99.5 -7t-93.5 -24z" />
<glyph unicode="C" horiz-adv-x="980" d="M117 506q0 94 18.5 199.5t55 208t92 195.5t131 165t172 114t213.5 42q86 0 152.5 -20.5t113.5 -57.5l-70 -111q-84 55 -196 55q-72 0 -132.5 -28.5t-110.5 -77.5t-90 -115.5t-71 -142.5q-39 -98 -63.5 -213t-24.5 -221q0 -78 14.5 -146.5t46 -120t81 -80t120.5 -28.5 q57 0 115.5 17.5t101.5 43.5l25 -127q-121 -78 -289 -77q-102 0 -178 38.5t-126 108.5t-75.5 166t-25.5 213z" />
<glyph unicode="D" horiz-adv-x="1220" d="M53 55l254 1299q86 41 181.5 58.5t195.5 17.5q115 0 202 -37t146.5 -105.5t89 -166t29.5 -216.5q0 -88 -16.5 -191.5t-52 -207t-93 -198.5t-139.5 -167.5t-192.5 -116.5t-249.5 -44q-96 0 -188.5 18t-166.5 57zM256 139q29 -12 77 -20t99 -8q147 0 256 86t178 252 q23 53 41.5 115.5t31.5 128t20.5 129t7.5 116.5q0 176 -75 271.5t-228 95.5q-51 0 -101.5 -8.5t-83.5 -20.5z" />
<glyph unicode="E" horiz-adv-x="905" d="M43 0l274 1409h654l-25 -127h-465l-96 -491h418l-25 -125h-418l-104 -539h465l-25 -127h-653z" />
<glyph unicode="F" horiz-adv-x="888" d="M43 0l274 1409h650l-25 -127h-461l-96 -491h416l-25 -125h-416l-129 -666h-188z" />
<glyph unicode="G" horiz-adv-x="1216" d="M117 516q0 158 48 320.5t144.5 295t240.5 215.5t337 83q184 0 309 -78l-74 -115q-49 29 -108.5 44t-136.5 15q-158 0 -281 -93t-199 -263q-43 -96 -68.5 -213t-25.5 -223q0 -188 84 -289.5t225 -101.5q51 0 101.5 7t91.5 23l102 529h-262l23 119h442l-143 -736 q-72 -37 -171.5 -56t-201.5 -19q-109 0 -197 35.5t-150.5 103t-96 168t-33.5 229.5z" />
<glyph unicode="H" horiz-adv-x="1222" d="M43 0l274 1409h189l-121 -618h530l121 618h189l-275 -1409h-188l129 666h-531l-129 -666h-188z" />
<glyph unicode="I" horiz-adv-x="516" d="M49 0l275 1409h188l-274 -1409h-189z" />
<glyph unicode="J" horiz-adv-x="516" d="M-291 -451l27 140q129 47 218 160.5t124 291.5l246 1268h188l-244 -1257q-49 -256 -191.5 -406t-367.5 -197z" />
<glyph unicode="K" horiz-adv-x="1105" d="M49 0l275 1409h184l-127 -653h4l608 653h217l-655 -670l399 -739h-215l-358 729h-4l-144 -729h-184z" />
<glyph unicode="L" horiz-adv-x="841" d="M49 0l275 1409h188l-248 -1282h424l-26 -127h-613z" />
<glyph unicode="M" horiz-adv-x="1601" d="M-4 0l442 1409h199l90 -1016q4 -41 4 -76v-98h4q16 49 32.5 91t37.5 83l483 1016h199l-107 -1409h-174l101 1055q4 47 9 87t11 79h-4q-14 -39 -30.5 -78t-39.5 -88l-508 -1055h-120l-93 1055q-4 47 -5 88t-1 78h-4q-8 -37 -18 -78t-25 -88l-315 -1055h-168z" />
<glyph unicode="N" horiz-adv-x="1325" d="M43 0l274 1409h193l387 -1001q16 -39 26.5 -75t20.5 -73h4q4 39 11.5 83t15.5 85l190 981h162l-274 -1409h-160l-410 1051q-14 37 -25.5 73.5t-21.5 77.5h-4q-4 -41 -10 -85t-16 -89l-201 -1028h-162z" />
<glyph unicode="O" horiz-adv-x="1241" d="M113 477q0 82 14 185.5t46 209t83 206t126 179t174 126t226 47.5q104 0 178 -38t122 -104.5t70 -158t22 -195.5q0 -80 -13.5 -181.5t-45.5 -208t-82 -207.5t-124.5 -181t-174 -128t-228.5 -48q-104 0 -179 37.5t-122 105t-69.5 159t-22.5 195.5zM295 442q0 -72 12 -131 t40 -103t72 -68.5t109 -24.5q117 0 200 74.5t138 197.5q27 59 50.5 135t41 155t26.5 155.5t9 142.5q0 70 -12 130t-40 103t-73 67.5t-108 24.5q-104 0 -180 -59t-129 -158q-35 -61 -63 -142t-49.5 -168t-32.5 -173t-11 -158z" />
<glyph unicode="P" horiz-adv-x="1077" d="M43 0l264 1354q164 76 363 76q106 0 184 -26t128 -72t73.5 -108.5t23.5 -133.5q0 -92 -31.5 -183.5t-102.5 -165t-185.5 -120t-280.5 -46.5q-35 0 -71.5 4.5t-65.5 8.5l-115 -588h-184zM362 700q29 -4 65 -7t73 -3q135 0 219 51.5t129 135.5q27 49 40 109.5t13 115.5 q0 96 -58.5 155.5t-191.5 59.5q-47 0 -92 -8.5t-82 -20.5z" />
<glyph unicode="Q" horiz-adv-x="1241" d="M113 477q0 82 14 185.5t46 209t83 206t126 179t174 126t226 47.5q104 0 178 -38t122 -104.5t70 -158t22 -195.5q0 -98 -20.5 -226t-68 -256t-127 -239t-196.5 -172l184 -307l-162 -115l-147 377q-66 -16 -131 -16q-104 0 -179 37.5t-122 105t-69.5 159t-22.5 195.5z M295 442q0 -72 12 -131t40 -103t72 -68.5t109 -24.5q117 0 200 74.5t138 197.5q27 59 50.5 135t41 155t26.5 155.5t9 142.5q0 70 -12 130t-40 103t-73 67.5t-108 24.5q-104 0 -180 -59t-129 -158q-35 -61 -63 -142t-49.5 -168t-32.5 -173t-11 -158z" />
<glyph unicode="R" horiz-adv-x="1118" d="M47 0l262 1354q78 37 173.5 56.5t189.5 19.5q205 0 313.5 -86.5t108.5 -237.5q0 -98 -37 -177t-101.5 -139.5t-151.5 -99.5t-188 -53v-4q35 -35 63 -78t48 -88l207 -467h-207l-182 461q-29 70 -73 119t-116 67l-127 -647h-182zM371 727q27 -6 59.5 -8t67.5 -2 q119 0 211 48t145 132q29 47 43 100.5t14 106.5q0 213 -256 213q-47 0 -94 -8.5t-82 -20.5z" />
<glyph unicode="S" horiz-adv-x="991" d="M-10 57l76 125q109 -63 266 -63q76 0 136 22.5t101 62.5t62.5 91t21.5 111q0 66 -33.5 110.5t-85 82.5t-110.5 73t-110.5 80t-85 105.5t-33.5 150.5t34.5 166.5t98 134t153.5 89.5t203 32q86 0 162 -20.5t133 -57.5l-70 -113q-47 29 -104 45t-123 16q-139 0 -220 -76.5 t-81 -195.5q0 -63 35 -107t86 -81t111.5 -72t111.5 -80t86 -107.5t35 -152.5q0 -88 -35 -169t-100.5 -143.5t-162.5 -99t-222 -36.5q-94 0 -180 18t-156 59z" />
<glyph unicode="T" horiz-adv-x="905" d="M197 1282l24 127h783l-27 -127h-295l-250 -1282h-188l250 1282h-297z" />
<glyph unicode="U" horiz-adv-x="1198" d="M119 322q0 31 4 63.5t8 56.5l186 967h189l-189 -971q-4 -25 -7 -52.5t-3 -51.5q0 -98 56.5 -153.5t154.5 -55.5q119 0 203 74.5t108 201.5l197 1008h174l-196 -1008q-39 -197 -174.5 -310.5t-342.5 -113.5q-82 0 -149.5 24t-116.5 68t-75.5 107.5t-26.5 145.5z" />
<glyph unicode="V" horiz-adv-x="1087" d="M209 1409h192l68 -991q2 -29 3 -59.5t1 -61.5v-86h4q16 47 35.5 100.5t44.5 106.5l459 991h186l-690 -1409h-164z" />
<glyph unicode="W" horiz-adv-x="1675" d="M236 1409h184l8 -1018q0 -90 -6 -172h4q12 41 28.5 86t32.5 86l443 1018h145l37 -1018q2 -37 2 -55v-35q0 -23 -1 -43t-1 -39h4q12 45 26.5 88t31.5 84l409 1018h180l-604 -1409h-166l-47 983q-2 35 -2 51v62q0 20 2 49h-4q-10 -41 -22.5 -79t-32.5 -83l-430 -983h-166z " />
<glyph unicode="X" horiz-adv-x="1077" d="M-63 0l536 733l-225 676h194l150 -532h4l367 532h188l-485 -670l249 -739h-202l-170 592h-4l-404 -592h-198z" />
<glyph unicode="Y" horiz-adv-x="1026" d="M195 1409h194l158 -637h4l416 637h188l-539 -784l-122 -625h-189l123 625z" />
<glyph unicode="Z" horiz-adv-x="909" d="M-63 0l780 1282h-500l25 127h745l-774 -1282h541l-27 -127h-790z" />
<glyph unicode="[" horiz-adv-x="663" d="M-39 -440l397 2048h410l-18 -105h-248l-359 -1837h248l-20 -106h-410z" />
<glyph unicode="\" horiz-adv-x="913" d="M264 1593l154 37l307 -2031l-152 -37z" />
<glyph unicode="]" horiz-adv-x="663" d="M-104 -440l20 106h248l358 1837h-248l19 105h409l-397 -2048h-409z" />
<glyph unicode="^" horiz-adv-x="987" d="M205 1040l362 353q20 20 42 28.5t44 8.5q23 0 43.5 -8.5t32.5 -28.5l227 -359l-88 -73l-239 309l-357 -309z" />
<glyph unicode="_" horiz-adv-x="1024" d="M-184 -260l20 106h1065l-20 -106h-1065z" />
<glyph unicode="`" horiz-adv-x="493" d="M199 1495q14 23 37.5 33t52.5 10q25 0 49 -7t43 -24l96 -280h-98z" />
<glyph unicode="a" horiz-adv-x="1021" d="M39 268q0 84 36 151.5t103 123.5q96 78 238.5 117.5t316.5 56.5l15 69q6 33 6 64q0 80 -50.5 117t-148.5 37q-72 0 -148.5 -20.5t-142.5 -51.5l-20 112q80 41 169 60.5t177 19.5q158 0 244 -66.5t86 -205.5q0 -16 -2.5 -40t-6.5 -48l-137 -707q-72 -35 -167 -56t-201 -21 q-78 0 -144.5 16t-116 51t-78 89t-28.5 132zM209 276q0 -53 18.5 -88.5t49 -59.5t71.5 -34t86 -10q102 0 184 39l97 498q-139 -16 -241.5 -48t-168.5 -92q-45 -41 -70.5 -93.5t-25.5 -111.5z" />
<glyph unicode="b" horiz-adv-x="1079" d="M41 57l301 1551h178l-102 -537q106 49 225 49q86 0 150.5 -30.5t106.5 -84t63.5 -127t21.5 -159.5q0 -113 -32.5 -243t-106.5 -240.5t-192.5 -183t-291.5 -72.5q-92 0 -177 20t-144 57zM233 123q33 -16 71 -22.5t79 -6.5q115 0 195.5 60.5t134.5 164.5q43 84 70.5 194 t27.5 206q0 61 -12.5 114.5t-40 93.5t-69.5 62.5t-99 22.5q-47 0 -99.5 -14.5t-93.5 -32.5z" />
<glyph unicode="c" horiz-adv-x="849" d="M82 393q0 125 36 255t105.5 236.5t172 173t235.5 66.5q74 0 135 -18.5t104 -52.5l-61 -103q-68 51 -168 51q-88 0 -160.5 -58t-124.5 -157q-43 -84 -67.5 -187t-24.5 -196q0 -129 51.5 -210.5t153.5 -81.5q49 0 95 15t85 40l25 -115q-102 -72 -256 -71q-82 0 -144.5 30.5 t-105.5 85t-64.5 130t-21.5 167.5z" />
<glyph unicode="d" horiz-adv-x="1079" d="M80 391q0 117 36 245t110.5 234.5t189 176t272.5 69.5q41 0 83 -5t83 -17l100 514h179l-302 -1551q-68 -37 -160.5 -57t-197.5 -20q-98 0 -172 29.5t-123 83.5t-73.5 130t-24.5 168zM256 391q0 -61 14.5 -115.5t44 -93.5t75.5 -61.5t112 -22.5q45 0 90 7.5t76 23.5 l168 858q-68 23 -136 23q-123 0 -206.5 -61.5t-137.5 -162.5q-47 -86 -73.5 -192.5t-26.5 -202.5z" />
<glyph unicode="e" horiz-adv-x="1073" d="M84 403q0 113 33 240t101.5 233.5t175 177t253.5 70.5q164 0 254 -92t90 -268q0 -84 -20 -180l-715 -105q-6 -43 -6 -80q0 -135 67.5 -212.5t206.5 -77.5q76 0 150 19t131 48l24 -119q-70 -37 -159.5 -57t-184.5 -20q-197 0 -299 111t-102 312zM268 580l545 82 q12 70 12 131q0 106 -47 162.5t-149 56.5q-70 0 -128.5 -32t-104.5 -88t-78 -136t-50 -176z" />
<glyph unicode="f" horiz-adv-x="634" d="M94 0l191 991h-125l20 113h127l31 160q33 168 132 257t269 89h15q10 0 24 -2l-22 -117h-13q-76 0 -137 -49t-86 -174l-33 -164h193l-21 -113h-194l-191 -991h-180z" />
<glyph unicode="g" horiz-adv-x="1079" d="M-20 -383l73 117q53 -29 118 -45.5t130 -16.5q74 0 131 21.5t98 60.5t68 92.5t39 116.5l14 72q-41 -23 -100 -35t-127 -12q-166 0 -254 110.5t-88 290.5q0 68 13.5 148.5t42 162.5t75.5 159t116.5 135.5t162 94t213.5 35.5q92 0 175 -19.5t144 -55.5l-209 -1074 q-41 -211 -168 -323.5t-332 -112.5q-92 0 -178.5 19.5t-156.5 58.5zM256 387q0 -129 51 -208t182 -79q53 0 100.5 12.5t82.5 30.5l164 842q-33 16 -71 23.5t-83 7.5q-111 0 -191.5 -58.5t-136.5 -166.5q-20 -41 -38.5 -92.5t-32 -105.5t-20.5 -107.5t-7 -98.5z" />
<glyph unicode="h" horiz-adv-x="1093" d="M33 0l311 1608h180l-108 -559q57 31 122.5 48t135.5 17q162 0 237.5 -80t75.5 -196q0 -23 -2 -46.5t-6 -41.5l-143 -750h-181l144 750q4 16 7 38.5t3 40.5q0 72 -43 121t-152 49q-57 0 -112.5 -15t-106.5 -44l-182 -940h-180z" />
<glyph unicode="i" horiz-adv-x="493" d="M43 0l215 1104h180l-215 -1104h-180zM301 1403q0 47 35 80t88 33q41 0 66.5 -26t25.5 -60q0 -47 -35 -81t-88 -34q-41 0 -66.5 26.5t-25.5 61.5z" />
<glyph unicode="j" horiz-adv-x="501" d="M-240 -453l25 134q63 33 110.5 73.5t81 94t58 122t41.5 156.5l190 977h180l-186 -957q-47 -246 -165 -392.5t-335 -207.5zM309 1403q0 47 35 80t88 33q41 0 66.5 -26t25.5 -60q0 -47 -34.5 -81t-88.5 -34q-41 0 -66.5 26.5t-25.5 61.5z" />
<glyph unicode="k" horiz-adv-x="1001" d="M43 0l311 1608h176l-196 -1022h4l502 518h209l-547 -533l370 -571h-204l-334 563h-4l-111 -563h-176z" />
<glyph unicode="l" horiz-adv-x="497" d="M45 0l311 1608h181l-312 -1608h-180z" />
<glyph unicode="m" horiz-adv-x="1708" d="M33 0l203 1047q88 39 182 58t207 19q125 0 195.5 -32.5t111.5 -96.5q72 59 154.5 94t185.5 35q170 0 250 -76.5t80 -201.5q0 -29 -3.5 -55.5t-7.5 -51.5l-141 -739h-178l143 739q4 25 7 48.5t3 50.5q0 78 -44 125t-144 47q-68 0 -125 -30t-106 -77l-177 -903h-178 l154 791q6 33 6 63q0 72 -47 114t-152 42q-59 0 -111 -8.5t-102 -28.5l-188 -973h-178z" />
<glyph unicode="n" horiz-adv-x="1093" d="M33 0l203 1047q174 78 389 77q186 0 274 -76.5t88 -203.5q0 -29 -3 -56.5t-7 -52.5l-141 -735h-181l142 739q4 27 8 52.5t4 48.5q0 80 -47 125t-160 45q-109 0 -201 -37l-188 -973h-180z" />
<glyph unicode="o" horiz-adv-x="1077" d="M82 379q0 66 11 145.5t37 162.5t69 162t104.5 140.5t145 98t192.5 36.5q174 0 258 -109.5t84 -289.5q0 -59 -10 -137t-35 -161t-67 -163t-103 -143.5t-146 -102t-196 -38.5q-174 0 -259 109.5t-85 289.5zM256 375q0 -123 42 -199t146 -76q94 0 161 60.5t112 158.5 q20 45 37.5 99.5t30 111t18.5 110.5t6 97q0 123 -42 198t-146 75q-92 0 -159 -58.5t-112 -156.5q-20 -45 -37.5 -100.5t-30 -112t-19.5 -110.5t-7 -97z" />
<glyph unicode="p" horiz-adv-x="1079" d="M-53 -440l289 1489q84 41 168.5 58t177.5 17q98 0 173.5 -29.5t126 -84t77 -130t26.5 -167.5q0 -117 -35 -245t-107.5 -235.5t-187 -178t-274.5 -70.5q-45 0 -90 8t-78 18l-88 -450h-178zM233 121q23 -10 56 -16.5t73 -6.5q133 0 229.5 74t151.5 213q14 37 26.5 81t22 89 t14.5 87t5 77q0 133 -55.5 214t-190.5 81q-41 0 -85 -7.5t-79 -23.5z" />
<glyph unicode="q" horiz-adv-x="1079" d="M80 387q0 68 13 148.5t42 162.5t77 159t117.5 136.5t163 95t214.5 35.5q188 0 317 -75l-289 -1489h-178l92 469q-90 -45 -225 -45q-84 0 -147.5 29.5t-107.5 83t-66.5 127t-22.5 163.5zM256 387q0 -129 51 -209t180 -80q53 0 100.5 12.5t82.5 30.5l164 844 q-33 16 -70 23.5t-82 7.5q-111 0 -192.5 -60.5t-137.5 -171.5q-20 -41 -37.5 -91t-31 -103t-20.5 -105.5t-7 -97.5z" />
<glyph unicode="r" horiz-adv-x="659" d="M33 0l203 1047q86 41 179 59t212 18q25 0 50 -1t46 -5l-64 -133q-59 16 -106 16q-43 0 -81 -8t-71 -20l-188 -973h-180z" />
<glyph unicode="s" horiz-adv-x="856" d="M-18 55l71 113q96 -61 217 -62q53 0 99.5 17.5t80 47.5t52 71t18.5 88q0 53 -26.5 87t-67.5 61.5t-88 52t-88 57.5t-67.5 81t-26.5 119q0 66 26.5 127.5t76.5 107.5t123 73.5t167 27.5q160 0 266 -75l-65 -103q-41 29 -88.5 44.5t-104.5 15.5q-55 0 -97 -17.5t-70 -47.5 t-42 -65.5t-14 -72.5q0 -49 27.5 -81t68.5 -58.5t90 -51t90 -60.5t69 -85t28 -125q0 -74 -32 -140.5t-89.5 -115.5t-138 -77.5t-179.5 -28.5q-78 0 -153.5 19t-132.5 56z" />
<glyph unicode="t" horiz-adv-x="657" d="M141 203q0 43 11 94l133 694h-125l20 113h127l49 254l191 55l-60 -309h193l-21 -113h-194l-135 -696q-4 -27 -6 -43t-2 -37q0 -47 28.5 -72.5t75.5 -25.5q18 0 34.5 4t31.5 8l-25 -121q-23 -10 -47.5 -15t-54.5 -5q-104 0 -164 59.5t-60 155.5z" />
<glyph unicode="u" horiz-adv-x="1073" d="M92 268q0 27 4 54l8 53l142 729h180l-143 -733q-10 -57 -11 -95q0 -82 49.5 -128t143.5 -46q55 0 105.5 9.5t88.5 27.5l189 965h180l-203 -1045q-76 -41 -175 -60t-210 -19q-164 0 -256 72.5t-92 215.5z" />
<glyph unicode="v" horiz-adv-x="1007" d="M160 1104h186l76 -791q2 -20 2 -39v-104h4q12 41 25.5 75t29.5 68l394 791h176l-578 -1104h-162z" />
<glyph unicode="w" horiz-adv-x="1583" d="M172 1104h180l39 -795v-76q0 -18 -4 -59h4q12 39 24.5 72t28.5 63l377 795h154l63 -795q2 -23 3 -45t1 -39v-20q0 -12 -2 -31h4q10 39 21.5 72t26.5 63l350 795h174l-529 -1104h-157l-70 793q-2 20 -2 41v86h-4q-10 -31 -19.5 -62t-25.5 -65l-377 -793h-158z" />
<glyph unicode="x" horiz-adv-x="972" d="M-61 0l454 578l-207 526h183l137 -402h4l295 402h180l-407 -526l231 -578h-191l-155 449h-4l-328 -449h-192z" />
<glyph unicode="y" horiz-adv-x="1007" d="M51 -440l266 440l-157 1104h186l78 -801q2 -20 3 -39.5t1 -40.5q0 -14 -1 -27.5t-1 -29.5h4q23 70 55 137l392 801h176l-803 -1544h-199z" />
<glyph unicode="z" horiz-adv-x="854" d="M-51 0l651 991h-426l23 113h659l-645 -991h471l-23 -113h-710z" />
<glyph unicode="{" horiz-adv-x="731" d="M78 535l20 104q84 12 125 69.5t60 155.5l71 369q37 186 143.5 280.5t301.5 94.5h37l-21 -105q-141 0 -207.5 -70.5t-91.5 -199.5l-72 -365q-10 -57 -25.5 -101t-38 -78t-56 -57.5t-82.5 -41.5v-4q55 -23 79.5 -70t24.5 -110q0 -25 -4 -51.5t-8 -51.5l-72 -369 q-4 -27 -7 -49t-3 -45q0 -82 47 -128t160 -46l-21 -106h-37q-147 0 -228 71.5t-81 206.5q0 25 2 50.5t8 58.5l72 364q10 57 10 92q0 55 -23.5 88.5t-82.5 43.5z" />
<glyph unicode="|" horiz-adv-x="466" d="M-39 -440l397 2048h148l-397 -2048h-148z" />
<glyph unicode="}" horiz-adv-x="731" d="M-104 -440l20 106q72 0 123 18.5t86 53.5t56.5 85t33.5 111l74 373q10 57 25.5 102.5t38 79t56 57t80.5 40.5v4q-57 23 -79.5 69t-22.5 109q0 25 4 51.5t8 50.5l70 363q10 57 10 98q0 84 -46 128t-159 44l19 105h35q152 0 231.5 -72t79.5 -207q0 -25 -4 -54.5t-8 -53.5 l-68 -357q-10 -57 -10 -94q0 -55 23.5 -88t82.5 -43l-22 -104q-84 -12 -124 -68.5t-58 -155.5l-74 -377q-37 -188 -144.5 -281t-302.5 -93h-34z" />
<glyph unicode="~" horiz-adv-x="987" d="M121 618q37 100 100.5 167t161.5 67q47 0 79 -20.5t61.5 -45t60 -45t75.5 -20.5q53 0 91 36t63 91l102 -39q-37 -100 -100 -167t-162 -67q-47 0 -78.5 20.5t-61.5 45.5t-60.5 45.5t-75.5 20.5q-53 0 -91 -35t-63 -90z" />
<glyph unicode="&#xa1;" horiz-adv-x="569" d="M-8 -440l221 942h135l-145 -942h-211zM229 846q0 55 42 95t98 40q43 0 71.5 -30.5t28.5 -71.5q0 -55 -41 -94.5t-96 -39.5q-43 0 -73 30t-30 71z" />
<glyph unicode="&#xa2;" d="M195 584q0 102 28.5 204.5t86 187.5t142.5 143.5t195 72.5l43 217h107l-41 -215q53 -4 106 -18.5t94 -40.5l-59 -97q-31 18 -73 28.5t-85 10.5q-102 0 -171.5 -50t-112.5 -125t-62.5 -161t-19.5 -157q0 -115 54 -180.5t165 -65.5q47 0 94 13.5t82 31.5l23 -107 q-45 -29 -103.5 -44t-122.5 -19l-43 -213h-106l43 219q-119 23 -191.5 114t-72.5 251z" />
<glyph unicode="&#xa3;" d="M6 0q68 63 127.5 135t103.5 151t70.5 165t26.5 182v35h-195l25 123h160q-4 35 -6.5 68.5t-2.5 72.5q0 102 34 193.5t98.5 159t161 106.5t220.5 39q82 0 157 -19.5t132 -56.5l-67 -115q-45 29 -101.5 42t-118.5 13q-88 0 -153.5 -33.5t-108.5 -90t-63.5 -132t-20.5 -159.5 q0 -23 1 -44.5t3 -43.5h355l-25 -123h-325q0 -72 -19 -172q-8 -41 -26.5 -88.5t-43 -93.5t-53 -89t-59.5 -75h594l-31 -150h-850z" />
<glyph unicode="&#xa4;" d="M33 330l184 153q-10 29 -15 60.5t-5 66.5q0 92 27.5 176t76.5 152l-123 154l90 75l113 -141q55 47 121.5 72.5t140.5 25.5q66 0 121 -26.5t96 -73.5l168 139l70 -88l-183 -151q18 -55 19 -125q0 -86 -26.5 -172t-78.5 -158l121 -152l-90 -75l-110 137q-53 -45 -119 -70.5 t-144 -25.5q-66 0 -121 26.5t-96 73.5l-168 -141zM348 612q0 -98 42 -156.5t116 -58.5q61 0 112.5 37t88 95.5t57 130t20.5 141.5q0 98 -42 155.5t-115 57.5q-57 0 -108.5 -35t-89.5 -91.5t-59.5 -129t-21.5 -146.5z" />
<glyph unicode="&#xa5;" d="M84 504l18 90h353l-66 235h-242l19 91h199l-136 489h185l151 -684h4l426 684h176l-325 -489h198l-18 -91h-240l-155 -235h352l-18 -90h-353l-98 -504h-176l98 504h-352z" />
<glyph unicode="&#xa6;" horiz-adv-x="466" d="M-39 -440l156 809h149l-157 -809h-148zM203 799l155 809h148l-156 -809h-147z" />
<glyph unicode="&#xa7;" horiz-adv-x="1089" d="M12 -381l72 117q92 -63 215 -64q57 0 105.5 19.5t81 52.5t51 73t18.5 83q0 55 -33 99t-81 85t-105 81t-105.5 89t-81 111.5t-32.5 144.5q0 74 25.5 134.5t68.5 109.5t99.5 87t117.5 68q-35 39 -54.5 84t-19.5 101q0 63 28 124.5t79 107.5t124.5 75t168.5 29 q72 0 139.5 -19.5t118.5 -56.5l-68 -109q-84 61 -194 62q-57 0 -100.5 -19.5t-71 -49.5t-41 -66.5t-13.5 -73.5q0 -53 32 -95t78 -80t101.5 -77t101.5 -86t77.5 -107.5t31.5 -142.5q0 -74 -25.5 -133.5t-68.5 -106.5t-98.5 -85t-116.5 -66q43 -45 70.5 -96.5t27.5 -116.5 q0 -70 -31.5 -135.5t-90 -116.5t-139.5 -82t-179 -31q-76 0 -152 19.5t-131 58.5zM274 535q0 -57 25 -103.5t63.5 -86.5t88 -76t96.5 -72q45 23 89 50t79 64t55.5 82t20.5 101q0 57 -27 104t-68 87t-91 76t-97 75q-45 -23 -87 -52.5t-75 -66.5t-52.5 -82t-19.5 -100z" />
<glyph unicode="&#xa8;" horiz-adv-x="493" d="M139 1329q0 39 30 70t75 31q33 0 55.5 -24t22.5 -54q0 -37 -29 -70t-76 -33q-33 0 -55.5 24.5t-22.5 55.5zM467 1329q0 39 29.5 70t74.5 31q33 0 55.5 -24t22.5 -54q0 -37 -28.5 -70t-75.5 -33q-33 0 -55.5 24.5t-22.5 55.5z" />
<glyph unicode="&#xa9;" horiz-adv-x="1683" d="M125 582q0 172 72.5 325.5t195.5 270t282 185.5t331 69q133 0 242.5 -47.5t188.5 -129t123 -192.5t44 -238q0 -172 -74 -325.5t-196 -269t-280.5 -184.5t-328.5 -69q-133 0 -242.5 46.5t-189.5 128t-124 191.5t-44 239zM248 584q0 -106 35.5 -198.5t100.5 -160 t157 -106.5t202 -39q143 0 276.5 62.5t237 167t165 238.5t61.5 277q0 106 -36 199.5t-100.5 162t-155.5 107.5t-204 39q-145 0 -278.5 -63.5t-235.5 -168t-163.5 -239.5t-61.5 -278zM510 621q0 94 30.5 184t87 161.5t138.5 115.5t186 44q51 0 97.5 -11t80.5 -32l-43 -73 q-57 29 -131 28q-80 0 -139 -40t-99 -102t-60.5 -137t-20.5 -143q0 -96 46 -161.5t148 -65.5q35 0 70 8.5t66 22.5l18 -82q-39 -23 -90 -33t-104 -10q-139 0 -210 91.5t-71 234.5z" />
<glyph unicode="&#xaa;" horiz-adv-x="774" d="M145 844q0 47 17.5 92t56.5 82q63 61 166.5 92t228.5 43l7 39q2 10 4 22.5t2 22.5q0 100 -129 100q-47 0 -98.5 -12t-98.5 -35l-16 84q55 27 116.5 41.5t126.5 14.5q106 0 166 -49.5t60 -143.5q0 -33 -6 -63l-93 -469q-51 -27 -118.5 -40.5t-141.5 -13.5 q-104 0 -177 46.5t-73 146.5zM272 850q0 -59 40 -89t106 -30q31 0 64.5 8.5t56.5 18.5l59 319q-100 -10 -172 -36.5t-113 -73.5q-41 -51 -41 -117z" />
<glyph unicode="&#xab;" horiz-adv-x="987" d="M129 692l350 455l96 -68l-309 -399l154 -401l-117 -54zM510 692l350 455l96 -68l-309 -399l154 -401l-117 -54z" />
<glyph unicode="&#xac;" horiz-adv-x="1060" d="M133 621l25 127h805l-89 -465h-139l66 338h-668z" />
<glyph unicode="&#xad;" horiz-adv-x="704" d="M125 612l29 144h462l-28 -144h-463z" />
<glyph unicode="&#xae;" horiz-adv-x="1683" d="M125 582q0 172 72.5 325.5t195.5 270t282 185.5t331 69q133 0 242.5 -47.5t188.5 -129t123 -192.5t44 -238q0 -172 -74 -325.5t-196 -269t-280.5 -184.5t-328.5 -69q-133 0 -242.5 46.5t-189.5 128t-124 191.5t-44 239zM248 584q0 -106 35.5 -198.5t100.5 -160 t157 -106.5t202 -39q143 0 276.5 62.5t237 167t165 238.5t61.5 277q0 106 -36 199.5t-100.5 162t-155.5 107.5t-204 39q-145 0 -278.5 -63.5t-235.5 -168t-163.5 -239.5t-61.5 -278zM557 309l152 785q100 45 219 45t183.5 -51.5t64.5 -139.5q0 -115 -78 -184.5t-193 -87.5 v-4q20 -20 34.5 -45t27.5 -52l118 -266h-133l-102 264q-16 39 -40 68t-62 39l-70 -371h-121zM758 731q14 -4 33 -4h36q68 0 120 28.5t81 78.5q16 27 22.5 56.5t6.5 57.5q0 53 -33 85t-109 32q-53 0 -96 -14z" />
<glyph unicode="&#xaf;" horiz-adv-x="493" d="M123 1262l22 108h510l-22 -108h-510z" />
<glyph unicode="&#xb0;" horiz-adv-x="872" d="M233 1075q0 72 30 136.5t79 112.5t114.5 77t137.5 29q53 0 99 -19.5t81 -53.5t55.5 -80t20.5 -101q0 -72 -29.5 -136.5t-79 -113.5t-115 -78t-137.5 -29q-51 0 -97 18.5t-82 52.5t-56.5 81t-20.5 104zM340 1085q0 -66 44 -114.5t120 -48.5q47 0 91 20.5t77 54t52 78.5 t19 92q0 61 -40.5 111.5t-122.5 50.5q-47 0 -91.5 -20.5t-77 -54t-52 -78t-19.5 -91.5z" />
<glyph unicode="&#xb1;" horiz-adv-x="1060" d="M14 0l25 121h805l-23 -121h-807zM141 651l23 121h334l63 332h139l-65 -332h334l-23 -121h-332l-65 -332h-137l63 332h-334z" />
<glyph unicode="&#xb2;" horiz-adv-x="692" d="M119 975l397 440q41 47 75 98.5t34 114.5q0 106 -142 107q-37 0 -80 -10.5t-84 -26.5l-16 88q100 47 227 47q125 0 180.5 -54.5t55.5 -140.5q0 -82 -45 -145t-105 -127l-268 -283h326l-21 -108h-534z" />
<glyph unicode="&#xb3;" horiz-adv-x="692" d="M143 1006l54 88q37 -18 79.5 -26.5t85.5 -8.5q51 0 91.5 16.5t68 44t40.5 62.5t13 71q0 66 -51 99.5t-137 33.5h-25l17 76q106 10 175 59.5t69 127.5q0 88 -119 88q-43 0 -86 -8.5t-84 -26.5l-17 86q104 45 224 45q100 0 158.5 -46t58.5 -128q0 -84 -57.5 -136.5 t-133.5 -78.5v-4q70 -20 109 -69.5t39 -115.5q0 -55 -23.5 -108t-67.5 -95t-109.5 -66.5t-149.5 -24.5q-126 0 -222 45z" />
<glyph unicode="&#xb4;" horiz-adv-x="493" d="M256 1227l205 280q20 14 48 22.5t56 8.5q29 0 52.5 -10t33.5 -33l-282 -268h-113z" />
<glyph unicode="&#xb5;" horiz-adv-x="1079" d="M-47 -440l299 1544h180l-182 -940q41 -29 95 -46.5t114 -17.5q57 0 113.5 16.5t99.5 45.5l182 942h180l-196 -1018q-156 -106 -379 -106q-63 0 -126 14t-108 45l-92 -479h-180z" />
<glyph unicode="&#xb6;" horiz-adv-x="1236" d="M170 928q0 98 39 189t120 160t205.5 111t296.5 42q104 0 209 -20.5t189 -55.5l-350 -1794h-164l334 1716q-51 16 -117 25.5t-123 9.5q-29 0 -57.5 -2t-51.5 -6l-340 -1743h-163l202 1040q-119 39 -174 126t-55 202z" />
<glyph unicode="&#xb7;" horiz-adv-x="514" d="M156 668q0 55 42 94t97 39q43 0 72.5 -30t29.5 -71q0 -55 -42 -95t-97 -40q-43 0 -72.5 31t-29.5 72z" />
<glyph unicode="&#xb8;" horiz-adv-x="493" d="M-186 -403l49 73q23 -4 49.5 -5t50.5 -1q123 0 178.5 26.5t55.5 65.5q0 55 -134 56h-49q-27 0 -61 -5l47 70q29 4 61.5 5t65.5 1q115 0 163 -35.5t48 -87.5q0 -78 -89 -126t-286 -48q-41 0 -77.5 3.5t-71.5 7.5z" />
<glyph unicode="&#xb9;" horiz-adv-x="692" d="M332 1608v82q96 12 174 43.5t123 85.5h98l-164 -844h-139l133 686q-20 -10 -48 -18.5t-58.5 -15.5t-61 -12t-57.5 -7z" />
<glyph unicode="&#xba;" horiz-adv-x="802" d="M178 932q0 84 23.5 172t70.5 160.5t120 119t169 46.5q63 0 108.5 -23t74 -60.5t43 -89t14.5 -108.5q0 -84 -23.5 -173t-71 -161t-119 -118t-169.5 -46q-63 0 -108.5 22.5t-75 60.5t-43 89.5t-13.5 108.5zM309 915q0 -72 28 -118.5t97 -46.5q63 0 106.5 39.5t71.5 101.5 q27 59 43.5 137t16.5 143q0 70 -27 117t-96 47q-57 0 -98 -33.5t-70 -87.5q-16 -31 -28.5 -68.5t-23 -77.5t-15.5 -80t-5 -73z" />
<glyph unicode="&#xbb;" horiz-adv-x="987" d="M72 293l309 399l-154 402l117 53l174 -467l-350 -455zM453 293l309 399l-154 402l117 53l174 -467l-350 -455z" />
<glyph unicode="&#xbc;" horiz-adv-x="1650" d="M250 1198v82q96 12 174 44t123 85h100l-164 -844h-139l133 686q-20 -10 -48 -18t-58.5 -15.5t-62 -12.5t-58.5 -7zM362 29l918 1411l90 -60l-917 -1411zM899 186l16 82l459 576h135l-112 -578h71l-14 -80h-72l-36 -186h-125l36 186h-358zM1020 266h254l63 326 q16 78 31 127h-4q-16 -27 -34.5 -54.5t-45.5 -62.5z" />
<glyph unicode="&#xbd;" horiz-adv-x="1650" d="M250 1198v82q96 12 174 44t123 85h100l-164 -844h-139l133 686q-20 -10 -48 -18t-58.5 -15.5t-62 -12.5t-58.5 -7zM285 29l919 1411l90 -60l-919 -1411zM887 0l399 440q41 47 74 98.5t33 114.5q0 106 -140 107q-37 0 -78.5 -10.5t-82.5 -26.5l-19 90q102 45 225 45 q125 0 181.5 -54t56.5 -140q0 -82 -46 -145.5t-106 -127.5l-268 -282h328l-23 -109h-534z" />
<glyph unicode="&#xbe;" horiz-adv-x="1650" d="M63 596l52 88q37 -18 80 -26.5t86 -8.5q51 0 92 16.5t67.5 44t41 62.5t14.5 72q0 66 -51.5 99.5t-137.5 33.5h-24l14 76q106 10 176 59t70 127q0 88 -119 88q-43 0 -86 -8t-84 -27l-18 86q104 45 223 45q100 0 159.5 -46t59.5 -128q0 -84 -57.5 -136t-133.5 -79v-4 q70 -20 109 -69.5t39 -114.5q0 -55 -23.5 -108.5t-67.5 -95.5t-109.5 -66.5t-149.5 -24.5q-126 0 -222 45zM381 29l917 1411l91 -60l-920 -1411zM899 186l16 82l459 576h135l-112 -578h71l-14 -80h-72l-36 -186h-125l36 186h-358zM1020 266h254l63 326q16 78 31 127h-4 q-16 -27 -34.5 -54.5t-45.5 -62.5z" />
<glyph unicode="&#xbf;" horiz-adv-x="829" d="M-41 -182q0 82 36 146.5t89 111.5t117.5 78.5t124.5 48.5l75 299h138l-52 -359q-66 -14 -127 -40.5t-108 -64.5t-77 -89t-30 -117q0 -76 52.5 -120t152.5 -44q53 0 113.5 15.5t109.5 40.5l31 -109q-66 -37 -146.5 -56.5t-162.5 -19.5q-150 0 -243 72t-93 207zM418 846 q0 55 42 95t97 40q43 0 72.5 -30.5t29.5 -71.5q0 -55 -42 -94.5t-97 -39.5q-43 0 -72.5 30t-29.5 71z" />
<glyph unicode="&#xc0;" horiz-adv-x="1208" d="M-76 0l750 1409h180l201 -1409h-191l-47 426h-491l-215 -426h-187zM383 539h420l-60 532q-4 47 -7 94t-3 88h-4q-14 -41 -32.5 -87t-43.5 -95zM571 1800q14 23 38 33t52 10q25 0 49.5 -7t42.5 -24l97 -280h-99z" />
<glyph unicode="&#xc1;" horiz-adv-x="1208" d="M-76 0l750 1409h180l201 -1409h-191l-47 426h-491l-215 -426h-187zM383 539h420l-60 532q-4 47 -7 94t-3 88h-4q-14 -41 -32.5 -87t-43.5 -95zM719 1532l205 280q20 14 48 22.5t56 8.5q29 0 52.5 -10t33.5 -33l-282 -268h-113z" />
<glyph unicode="&#xc2;" horiz-adv-x="1208" d="M-76 0l750 1409h180l201 -1409h-191l-47 426h-491l-215 -426h-187zM383 539h420l-60 532q-4 47 -7 94t-3 88h-4q-14 -41 -32.5 -87t-43.5 -95zM537 1575l229 205q16 16 36.5 23t37.5 7q39 0 63 -30l152 -205l-66 -53l-166 168l-229 -168z" />
<glyph unicode="&#xc3;" horiz-adv-x="1208" d="M-76 0l750 1409h180l201 -1409h-191l-47 426h-491l-215 -426h-187zM383 539h420l-60 532q-4 47 -7 94t-3 88h-4q-14 -41 -32.5 -87t-43.5 -95zM535 1573q27 72 69.5 118t114.5 46q33 0 56.5 -13.5t43 -29t41 -28.5t50.5 -13q35 0 57 23.5t37 58.5l86 -27 q-27 -72 -71 -119t-116 -47q-35 0 -57 13.5t-41.5 28.5t-40 28.5t-49.5 13.5q-35 0 -57.5 -22.5t-36.5 -57.5z" />
<glyph unicode="&#xc4;" horiz-adv-x="1208" d="M-76 0l750 1409h180l201 -1409h-191l-47 426h-491l-215 -426h-187zM383 539h420l-60 532q-4 47 -7 94t-3 88h-4q-14 -41 -32.5 -87t-43.5 -95zM557 1634q0 39 29.5 70t74.5 31q33 0 55.5 -23.5t22.5 -54.5q0 -37 -28.5 -70t-75.5 -33q-33 0 -55.5 24.5t-22.5 55.5z M885 1634q0 39 29.5 70t74.5 31q33 0 55.5 -23.5t22.5 -54.5q0 -37 -28.5 -70t-75.5 -33q-33 0 -55.5 24.5t-22.5 55.5z" />
<glyph unicode="&#xc5;" horiz-adv-x="1208" d="M-76 0l750 1409h180l201 -1409h-191l-47 426h-491l-215 -426h-187zM383 539h420l-60 532q-4 47 -7 94t-3 88h-4q-14 -41 -32.5 -87t-43.5 -95zM649 1669q0 39 15.5 74t42 61.5t62.5 42t75 15.5q61 0 101 -40t40 -100q0 -39 -15 -73.5t-42 -61t-62.5 -42t-74.5 -15.5 q-59 0 -100.5 41t-41.5 98zM725 1675q0 -33 20.5 -53t53.5 -20q45 0 78 34.5t33 77.5q0 33 -19.5 54.5t-54.5 21.5q-45 0 -78 -36t-33 -79z" />
<glyph unicode="&#xc6;" horiz-adv-x="1540" d="M-104 0l868 1409h758l-25 -127h-543l27 -491h418l-23 -125h-389l29 -539h383l-27 -127h-532l-13 426h-493l-252 -426h-186zM399 539h426l-16 534v35q0 37 1 74t3 71h-4q-20 -43 -42 -85t-52 -95z" />
<glyph unicode="&#xc7;" horiz-adv-x="980" d="M117 506q0 94 18.5 199.5t55 208t92 195.5t131 165t172 114t213.5 42q86 0 152.5 -20.5t113.5 -57.5l-70 -111q-84 55 -196 55q-72 0 -132.5 -28.5t-110.5 -77.5t-90 -115.5t-71 -142.5q-39 -98 -63.5 -213t-24.5 -221q0 -78 14.5 -146.5t46 -120t81 -80t120.5 -28.5 q57 0 115.5 17.5t101.5 43.5l25 -127q-121 -78 -289 -77q-102 0 -178 38.5t-126 108.5t-75.5 166t-25.5 213zM80 -403l49 73q23 -4 49.5 -5t50.5 -1q123 0 178.5 26.5t55.5 65.5q0 55 -134 56h-49q-27 0 -61 -5l47 70q29 4 61.5 5t65.5 1q115 0 163 -35.5t48 -87.5 q0 -78 -89 -126t-286 -48q-41 0 -77.5 3.5t-71.5 7.5z" />
<glyph unicode="&#xc8;" horiz-adv-x="905" d="M43 0l274 1409h654l-25 -127h-465l-96 -491h418l-25 -125h-418l-104 -539h465l-25 -127h-653zM479 1800q14 23 38 33t52 10q25 0 49.5 -7t42.5 -24l97 -280h-99z" />
<glyph unicode="&#xc9;" horiz-adv-x="905" d="M43 0l274 1409h654l-25 -127h-465l-96 -491h418l-25 -125h-418l-104 -539h465l-25 -127h-653zM577 1532l205 280q20 14 48 22.5t56 8.5q29 0 52.5 -10t33.5 -33l-282 -268h-113z" />
<glyph unicode="&#xca;" horiz-adv-x="905" d="M43 0l274 1409h654l-25 -127h-465l-96 -491h418l-25 -125h-418l-104 -539h465l-25 -127h-653zM406 1575l229 205q16 16 36.5 23t37.5 7q39 0 63 -30l152 -205l-66 -53l-166 168l-229 -168z" />
<glyph unicode="&#xcb;" horiz-adv-x="905" d="M43 0l274 1409h654l-25 -127h-465l-96 -491h418l-25 -125h-418l-104 -539h465l-25 -127h-653zM434 1634q0 39 29.5 70t74.5 31q33 0 55.5 -23.5t22.5 -54.5q0 -37 -28.5 -70t-75.5 -33q-33 0 -55.5 24.5t-22.5 55.5zM760 1634q0 39 29.5 70t74.5 31q33 0 55.5 -23.5 t22.5 -54.5q0 -37 -28.5 -70t-75.5 -33q-33 0 -55.5 24.5t-22.5 55.5z" />
<glyph unicode="&#xcc;" horiz-adv-x="516" d="M49 0l275 1409h188l-274 -1409h-189zM246 1800q14 23 38 33t52 10q25 0 49.5 -7t42.5 -24l97 -280h-99z" />
<glyph unicode="&#xcd;" horiz-adv-x="516" d="M49 0l275 1409h188l-274 -1409h-189zM356 1532l205 280q20 14 48 22.5t56 8.5q29 0 52.5 -10t33.5 -33l-282 -268h-113z" />
<glyph unicode="&#xce;" horiz-adv-x="516" d="M49 0l275 1409h188l-274 -1409h-189zM193 1575l229 205q16 16 36.5 23t37.5 7q39 0 63 -30l152 -205l-66 -53l-166 168l-229 -168z" />
<glyph unicode="&#xcf;" horiz-adv-x="516" d="M49 0l275 1409h188l-274 -1409h-189zM211 1634q0 39 29.5 70t74.5 31q33 0 55.5 -23.5t22.5 -54.5q0 -37 -28.5 -70t-75.5 -33q-33 0 -55.5 24.5t-22.5 55.5zM539 1634q0 39 29.5 70t74.5 31q33 0 55.5 -23.5t22.5 -54.5q0 -37 -28.5 -70t-75.5 -33q-33 0 -55.5 24.5 t-22.5 55.5z" />
<glyph unicode="&#xd0;" horiz-adv-x="1236" d="M61 682l23 113h131l109 559q86 41 181 58.5t195 17.5q115 0 202 -37t146.5 -105.5t89 -166t29.5 -216.5q0 -88 -16 -191.5t-51 -207t-92.5 -198.5t-140.5 -167.5t-192.5 -116.5t-248.5 -44q-96 0 -188.5 18t-165.5 57l121 627h-132zM272 137q29 -12 76 -19t101 -7 q303 0 442 352q20 51 37.5 111.5t30 123t19.5 124t7 116.5q0 176 -75.5 271.5t-229.5 95.5q-53 0 -103.5 -8.5t-82.5 -20.5l-95 -481h240l-23 -113h-239z" />
<glyph unicode="&#xd1;" horiz-adv-x="1325" d="M43 0l274 1409h193l387 -1001q16 -39 26.5 -75t20.5 -73h4q4 39 11.5 83t15.5 85l190 981h162l-274 -1409h-160l-410 1051q-14 37 -25.5 73.5t-21.5 77.5h-4q-4 -41 -10 -85t-16 -89l-201 -1028h-162zM592 1573q27 72 69.5 118t114.5 46q33 0 56.5 -13.5t43 -29t41 -28.5 t50.5 -13q35 0 57 23.5t37 58.5l86 -27q-27 -72 -71 -119t-116 -47q-35 0 -57 13.5t-41.5 28.5t-40 28.5t-49.5 13.5q-35 0 -57.5 -22.5t-36.5 -57.5z" />
<glyph unicode="&#xd2;" horiz-adv-x="1241" d="M113 477q0 82 14 185.5t46 209t83 206t126 179t174 126t226 47.5q104 0 178 -38t122 -104.5t70 -158t22 -195.5q0 -80 -13.5 -181.5t-45.5 -208t-82 -207.5t-124.5 -181t-174 -128t-228.5 -48q-104 0 -179 37.5t-122 105t-69.5 159t-22.5 195.5zM295 442q0 -72 12 -131 t40 -103t72 -68.5t109 -24.5q117 0 200 74.5t138 197.5q27 59 50.5 135t41 155t26.5 155.5t9 142.5q0 70 -12 130t-40 103t-73 67.5t-108 24.5q-104 0 -180 -59t-129 -158q-35 -61 -63 -142t-49.5 -168t-32.5 -173t-11 -158zM610 1800q14 23 38 33t52 10q25 0 49.5 -7 t42.5 -24l97 -280h-99z" />
<glyph unicode="&#xd3;" horiz-adv-x="1241" d="M113 477q0 82 14 185.5t46 209t83 206t126 179t174 126t226 47.5q104 0 178 -38t122 -104.5t70 -158t22 -195.5q0 -80 -13.5 -181.5t-45.5 -208t-82 -207.5t-124.5 -181t-174 -128t-228.5 -48q-104 0 -179 37.5t-122 105t-69.5 159t-22.5 195.5zM295 442q0 -72 12 -131 t40 -103t72 -68.5t109 -24.5q117 0 200 74.5t138 197.5q27 59 50.5 135t41 155t26.5 155.5t9 142.5q0 70 -12 130t-40 103t-73 67.5t-108 24.5q-104 0 -180 -59t-129 -158q-35 -61 -63 -142t-49.5 -168t-32.5 -173t-11 -158zM719 1532l205 280q20 14 48 22.5t56 8.5 q29 0 52.5 -10t33.5 -33l-282 -268h-113z" />
<glyph unicode="&#xd4;" horiz-adv-x="1241" d="M113 477q0 82 14 185.5t46 209t83 206t126 179t174 126t226 47.5q104 0 178 -38t122 -104.5t70 -158t22 -195.5q0 -80 -13.5 -181.5t-45.5 -208t-82 -207.5t-124.5 -181t-174 -128t-228.5 -48q-104 0 -179 37.5t-122 105t-69.5 159t-22.5 195.5zM295 442q0 -72 12 -131 t40 -103t72 -68.5t109 -24.5q117 0 200 74.5t138 197.5q27 59 50.5 135t41 155t26.5 155.5t9 142.5q0 70 -12 130t-40 103t-73 67.5t-108 24.5q-104 0 -180 -59t-129 -158q-35 -61 -63 -142t-49.5 -168t-32.5 -173t-11 -158zM553 1575l229 205q16 16 36.5 23t37.5 7 q39 0 63 -30l152 -205l-66 -53l-166 168l-229 -168z" />
<glyph unicode="&#xd5;" horiz-adv-x="1241" d="M113 477q0 82 14 185.5t46 209t83 206t126 179t174 126t226 47.5q104 0 178 -38t122 -104.5t70 -158t22 -195.5q0 -80 -13.5 -181.5t-45.5 -208t-82 -207.5t-124.5 -181t-174 -128t-228.5 -48q-104 0 -179 37.5t-122 105t-69.5 159t-22.5 195.5zM295 442q0 -72 12 -131 t40 -103t72 -68.5t109 -24.5q117 0 200 74.5t138 197.5q27 59 50.5 135t41 155t26.5 155.5t9 142.5q0 70 -12 130t-40 103t-73 67.5t-108 24.5q-104 0 -180 -59t-129 -158q-35 -61 -63 -142t-49.5 -168t-32.5 -173t-11 -158zM547 1573q27 72 69.5 118t114.5 46 q33 0 56.5 -13.5t43 -29t41 -28.5t50.5 -13q35 0 57 23.5t37 58.5l86 -27q-27 -72 -71 -119t-116 -47q-35 0 -57 13.5t-41.5 28.5t-40 28.5t-49.5 13.5q-35 0 -57.5 -22.5t-36.5 -57.5z" />
<glyph unicode="&#xd6;" horiz-adv-x="1241" d="M113 477q0 82 14 185.5t46 209t83 206t126 179t174 126t226 47.5q104 0 178 -38t122 -104.5t70 -158t22 -195.5q0 -80 -13.5 -181.5t-45.5 -208t-82 -207.5t-124.5 -181t-174 -128t-228.5 -48q-104 0 -179 37.5t-122 105t-69.5 159t-22.5 195.5zM295 442q0 -72 12 -131 t40 -103t72 -68.5t109 -24.5q117 0 200 74.5t138 197.5q27 59 50.5 135t41 155t26.5 155.5t9 142.5q0 70 -12 130t-40 103t-73 67.5t-108 24.5q-104 0 -180 -59t-129 -158q-35 -61 -63 -142t-49.5 -168t-32.5 -173t-11 -158zM573 1634q0 39 29.5 70t74.5 31q33 0 55.5 -23.5 t22.5 -54.5q0 -37 -28.5 -70t-75.5 -33q-33 0 -55.5 24.5t-22.5 55.5zM899 1634q0 39 29.5 70t74.5 31q33 0 55.5 -23.5t22.5 -54.5q0 -37 -28.5 -70t-75.5 -33q-33 0 -55.5 24.5t-22.5 55.5z" />
<glyph unicode="&#xd7;" horiz-adv-x="1060" d="M86 379l379 315l-252 314l98 84l252 -314l373 314l76 -97l-371 -313l250 -313l-98 -82l-252 313l-377 -317z" />
<glyph unicode="&#xd8;" horiz-adv-x="1241" d="M-6 -35l176 217q-29 61 -43 136t-14 159q0 82 14 185.5t46 209t83 206t126 179t174 126t226 47.5q100 0 172 -35t119 -97l160 199l61 -49l-178 -221q29 -61 43.5 -135t14.5 -158q0 -80 -13.5 -181.5t-45.5 -208t-82 -207.5t-124.5 -181t-174 -128t-228.5 -48 q-100 0 -173 34.5t-120 96.5l-158 -195zM283 440q0 -29 2 -56.5t6 -51.5l680 842q-27 63 -77 99t-132 36q-72 0 -130.5 -28t-105.5 -76t-85 -114.5t-66 -146.5q-18 -53 -35.5 -117.5t-30 -131t-19.5 -132.5t-7 -123zM317 240q29 -61 80.5 -97.5t130.5 -36.5q74 0 133.5 30 t107.5 81t85 122t66 155q18 51 33.5 112.5t26.5 125t17.5 125t6.5 116.5q0 57 -7 106z" />
<glyph unicode="&#xd9;" horiz-adv-x="1198" d="M119 322q0 31 4 63.5t8 56.5l186 967h189l-189 -971q-4 -25 -7 -52.5t-3 -51.5q0 -98 56.5 -153.5t154.5 -55.5q119 0 203 74.5t108 201.5l197 1008h174l-196 -1008q-39 -197 -174.5 -310.5t-342.5 -113.5q-82 0 -149.5 24t-116.5 68t-75.5 107.5t-26.5 145.5zM612 1800 q14 23 38 33t52 10q25 0 49.5 -7t42.5 -24l97 -280h-99z" />
<glyph unicode="&#xda;" horiz-adv-x="1198" d="M119 322q0 31 4 63.5t8 56.5l186 967h189l-189 -971q-4 -25 -7 -52.5t-3 -51.5q0 -98 56.5 -153.5t154.5 -55.5q119 0 203 74.5t108 201.5l197 1008h174l-196 -1008q-39 -197 -174.5 -310.5t-342.5 -113.5q-82 0 -149.5 24t-116.5 68t-75.5 107.5t-26.5 145.5zM686 1532 l205 280q20 14 48 22.5t56 8.5q29 0 52.5 -10t33.5 -33l-282 -268h-113z" />
<glyph unicode="&#xdb;" horiz-adv-x="1198" d="M119 322q0 31 4 63.5t8 56.5l186 967h189l-189 -971q-4 -25 -7 -52.5t-3 -51.5q0 -98 56.5 -153.5t154.5 -55.5q119 0 203 74.5t108 201.5l197 1008h174l-196 -1008q-39 -197 -174.5 -310.5t-342.5 -113.5q-82 0 -149.5 24t-116.5 68t-75.5 107.5t-26.5 145.5zM539 1575 l229 205q16 16 36.5 23t37.5 7q39 0 63 -30l152 -205l-66 -53l-166 168l-229 -168z" />
<glyph unicode="&#xdc;" horiz-adv-x="1198" d="M119 322q0 31 4 63.5t8 56.5l186 967h189l-189 -971q-4 -25 -7 -52.5t-3 -51.5q0 -98 56.5 -153.5t154.5 -55.5q119 0 203 74.5t108 201.5l197 1008h174l-196 -1008q-39 -197 -174.5 -310.5t-342.5 -113.5q-82 0 -149.5 24t-116.5 68t-75.5 107.5t-26.5 145.5zM559 1634 q0 39 29.5 70t74.5 31q33 0 55.5 -23.5t22.5 -54.5q0 -37 -28.5 -70t-75.5 -33q-33 0 -55.5 24.5t-22.5 55.5zM885 1634q0 39 29.5 70t74.5 31q33 0 55.5 -23.5t22.5 -54.5q0 -37 -28.5 -70t-75.5 -33q-33 0 -55.5 24.5t-22.5 55.5z" />
<glyph unicode="&#xdd;" horiz-adv-x="1026" d="M195 1409h194l158 -637h4l416 637h188l-539 -784l-122 -625h-189l123 625zM624 1532l205 280q20 14 48 22.5t56 8.5q29 0 52.5 -10t33.5 -33l-282 -268h-113z" />
<glyph unicode="&#xde;" horiz-adv-x="1091" d="M43 0l274 1409h185l-47 -246q41 10 84 17.5t88 7.5q207 0 305 -94.5t98 -243.5q0 -86 -27.5 -177t-95 -166t-182.5 -124t-289 -49q-37 0 -72.5 2t-68.5 6l-68 -342h-184zM317 457q29 -4 64 -6t72 -2q104 0 176.5 30.5t120.5 83.5q51 57 76.5 139t25.5 158 q0 98 -57.5 156.5t-190.5 58.5q-47 0 -91 -6t-81 -18z" />
<glyph unicode="&#xdf;" horiz-adv-x="1159" d="M37 0l209 1090q23 117 65.5 215t108 170.5t154 112.5t200.5 40q86 0 148.5 -26.5t103.5 -72.5t61.5 -106.5t20.5 -128.5q0 -61 -19.5 -135t-50.5 -133q-78 -6 -132 -27.5t-88 -54.5t-49 -70.5t-15 -76.5q0 -59 40 -103.5t89 -92.5t89 -107.5t40 -149.5 q0 -63 -24.5 -126.5t-77 -116t-132.5 -85t-190 -32.5q-57 0 -114.5 15t-102.5 44l59 115q35 -23 78 -34t84 -11q66 0 112 22.5t74.5 56t42 72.5t13.5 74q0 63 -39 110.5t-86 93.5t-86 102t-39 140q0 123 85 203t226 109q20 51 29.5 106t9.5 103q0 84 -41 143t-137 59 q-68 0 -121 -32.5t-94 -88t-69 -130t-44 -158.5l-213 -1098h-178z" />
<glyph unicode="&#xe0;" horiz-adv-x="1021" d="M39 268q0 84 36 151.5t103 123.5q96 78 238.5 117.5t316.5 56.5l15 69q6 33 6 64q0 80 -50.5 117t-148.5 37q-72 0 -148.5 -20.5t-142.5 -51.5l-20 112q80 41 169 60.5t177 19.5q158 0 244 -66.5t86 -205.5q0 -16 -2.5 -40t-6.5 -48l-137 -707q-72 -35 -167 -56t-201 -21 q-78 0 -144.5 16t-116 51t-78 89t-28.5 132zM209 276q0 -53 18.5 -88.5t49 -59.5t71.5 -34t86 -10q102 0 184 39l97 498q-139 -16 -241.5 -48t-168.5 -92q-45 -41 -70.5 -93.5t-25.5 -111.5zM463 1495q14 23 37.5 33t52.5 10q25 0 49 -7t43 -24l96 -280h-98z" />
<glyph unicode="&#xe1;" horiz-adv-x="1021" d="M39 268q0 84 36 151.5t103 123.5q96 78 238.5 117.5t316.5 56.5l15 69q6 33 6 64q0 80 -50.5 117t-148.5 37q-72 0 -148.5 -20.5t-142.5 -51.5l-20 112q80 41 169 60.5t177 19.5q158 0 244 -66.5t86 -205.5q0 -16 -2.5 -40t-6.5 -48l-137 -707q-72 -35 -167 -56t-201 -21 q-78 0 -144.5 16t-116 51t-78 89t-28.5 132zM209 276q0 -53 18.5 -88.5t49 -59.5t71.5 -34t86 -10q102 0 184 39l97 498q-139 -16 -241.5 -48t-168.5 -92q-45 -41 -70.5 -93.5t-25.5 -111.5zM567 1227l205 280q20 14 48 22.5t56 8.5q29 0 52.5 -10t33.5 -33l-282 -268h-113z " />
<glyph unicode="&#xe2;" horiz-adv-x="1021" d="M39 268q0 84 36 151.5t103 123.5q96 78 238.5 117.5t316.5 56.5l15 69q6 33 6 64q0 80 -50.5 117t-148.5 37q-72 0 -148.5 -20.5t-142.5 -51.5l-20 112q80 41 169 60.5t177 19.5q158 0 244 -66.5t86 -205.5q0 -16 -2.5 -40t-6.5 -48l-137 -707q-72 -35 -167 -56t-201 -21 q-78 0 -144.5 16t-116 51t-78 89t-28.5 132zM209 276q0 -53 18.5 -88.5t49 -59.5t71.5 -34t86 -10q102 0 184 39l97 498q-139 -16 -241.5 -48t-168.5 -92q-45 -41 -70.5 -93.5t-25.5 -111.5zM385 1270l230 205q16 16 36.5 23t36.5 7q39 0 64 -30l151 -205l-65 -53l-166 167 l-229 -167z" />
<glyph unicode="&#xe3;" horiz-adv-x="1021" d="M39 268q0 84 36 151.5t103 123.5q96 78 238.5 117.5t316.5 56.5l15 69q6 33 6 64q0 80 -50.5 117t-148.5 37q-72 0 -148.5 -20.5t-142.5 -51.5l-20 112q80 41 169 60.5t177 19.5q158 0 244 -66.5t86 -205.5q0 -16 -2.5 -40t-6.5 -48l-137 -707q-72 -35 -167 -56t-201 -21 q-78 0 -144.5 16t-116 51t-78 89t-28.5 132zM209 276q0 -53 18.5 -88.5t49 -59.5t71.5 -34t86 -10q102 0 184 39l97 498q-139 -16 -241.5 -48t-168.5 -92q-45 -41 -70.5 -93.5t-25.5 -111.5zM379 1268q27 72 70 118t114 46q33 0 56.5 -13.5t43 -29t41 -28.5t50.5 -13 q35 0 57.5 23.5t36.5 58.5l86 -27q-27 -72 -71 -119t-115 -47q-35 0 -57.5 13.5t-42 28.5t-40 28.5t-49.5 13.5q-35 0 -57.5 -22.5t-36.5 -57.5z" />
<glyph unicode="&#xe4;" horiz-adv-x="1021" d="M39 268q0 84 36 151.5t103 123.5q96 78 238.5 117.5t316.5 56.5l15 69q6 33 6 64q0 80 -50.5 117t-148.5 37q-72 0 -148.5 -20.5t-142.5 -51.5l-20 112q80 41 169 60.5t177 19.5q158 0 244 -66.5t86 -205.5q0 -16 -2.5 -40t-6.5 -48l-137 -707q-72 -35 -167 -56t-201 -21 q-78 0 -144.5 16t-116 51t-78 89t-28.5 132zM209 276q0 -53 18.5 -88.5t49 -59.5t71.5 -34t86 -10q102 0 184 39l97 498q-139 -16 -241.5 -48t-168.5 -92q-45 -41 -70.5 -93.5t-25.5 -111.5zM416 1329q0 39 29.5 70t74.5 31q33 0 55.5 -24t22.5 -54q0 -37 -28.5 -70 t-76.5 -33q-33 0 -55 24.5t-22 55.5zM742 1329q0 39 29.5 70t74.5 31q33 0 55.5 -24t22.5 -54q0 -37 -28.5 -70t-76.5 -33q-33 0 -55 24.5t-22 55.5z" />
<glyph unicode="&#xe5;" horiz-adv-x="1021" d="M39 268q0 84 36 151.5t103 123.5q96 78 238.5 117.5t316.5 56.5l15 69q6 33 6 64q0 80 -50.5 117t-148.5 37q-72 0 -148.5 -20.5t-142.5 -51.5l-20 112q80 41 169 60.5t177 19.5q158 0 244 -66.5t86 -205.5q0 -16 -2.5 -40t-6.5 -48l-137 -707q-72 -35 -167 -56t-201 -21 q-78 0 -144.5 16t-116 51t-78 89t-28.5 132zM209 276q0 -53 18.5 -88.5t49 -59.5t71.5 -34t86 -10q102 0 184 39l97 498q-139 -16 -241.5 -48t-168.5 -92q-45 -41 -70.5 -93.5t-25.5 -111.5zM510 1364q0 39 15.5 74t42 61.5t62.5 41.5t75 15q61 0 101 -39.5t40 -99.5 q0 -39 -15 -73.5t-42 -61.5t-62.5 -42t-74.5 -15q-59 0 -100.5 41t-41.5 98zM586 1370q0 -33 20.5 -53.5t53.5 -20.5q45 0 78 35t33 78q0 33 -19.5 54.5t-54.5 21.5q-45 0 -78 -36t-33 -79z" />
<glyph unicode="&#xe6;" horiz-adv-x="1648" d="M35 256q0 74 26.5 135.5t77.5 114.5q92 94 245 143t347 68l10 55q4 16 6.5 35.5t2.5 38.5q0 90 -55.5 124t-147.5 34q-68 0 -141.5 -19.5t-141.5 -52.5l-22 112q78 39 164 59.5t184 20.5q111 0 185.5 -48t88.5 -144q61 86 156.5 139t206.5 53q160 0 250 -89t90 -267 q0 -41 -6.5 -86t-16.5 -98l-710 -105q-6 -43 -7 -82q0 -135 67 -211.5t208 -76.5q78 0 150.5 19t127.5 48l25 -119q-63 -35 -150.5 -56t-181.5 -21q-121 0 -208 50t-130 152q-63 -100 -153 -151t-220 -51q-147 0 -237 71.5t-90 204.5zM203 262q0 -84 50 -131t134 -47 q45 0 89 17.5t80 49t61.5 74.5t35.5 92l60 304q-156 -16 -273.5 -58.5t-179.5 -122.5q-57 -76 -57 -178zM846 582l545 80q12 70 12 131q0 109 -47 164t-150 55q-59 0 -115.5 -25.5t-103.5 -78t-84 -133t-57 -193.5z" />
<glyph unicode="&#xe7;" horiz-adv-x="849" d="M82 393q0 125 36 255t105.5 236.5t172 173t235.5 66.5q74 0 135 -18.5t104 -52.5l-61 -103q-68 51 -168 51q-88 0 -160.5 -58t-124.5 -157q-43 -84 -67.5 -187t-24.5 -196q0 -129 51.5 -210.5t153.5 -81.5q49 0 95 15t85 40l25 -115q-102 -72 -256 -71q-82 0 -144.5 30.5 t-105.5 85t-64.5 130t-21.5 167.5zM-14 -403l49 73q23 -4 49.5 -5t50.5 -1q123 0 178.5 26.5t55.5 65.5q0 55 -134 56h-49q-27 0 -61 -5l47 70q29 4 61.5 5t65.5 1q115 0 163 -35.5t48 -87.5q0 -78 -89 -126t-286 -48q-41 0 -77.5 3.5t-71.5 7.5z" />
<glyph unicode="&#xe8;" horiz-adv-x="1073" d="M84 403q0 113 33 240t101.5 233.5t175 177t253.5 70.5q164 0 254 -92t90 -268q0 -84 -20 -180l-715 -105q-6 -43 -6 -80q0 -135 67.5 -212.5t206.5 -77.5q76 0 150 19t131 48l24 -119q-70 -37 -159.5 -57t-184.5 -20q-197 0 -299 111t-102 312zM268 580l545 82 q12 70 12 131q0 106 -47 162.5t-149 56.5q-70 0 -128.5 -32t-104.5 -88t-78 -136t-50 -176zM478 1495q14 23 37.5 33t52.5 10q25 0 49 -7t43 -24l96 -280h-98z" />
<glyph unicode="&#xe9;" horiz-adv-x="1073" d="M84 403q0 113 33 240t101.5 233.5t175 177t253.5 70.5q164 0 254 -92t90 -268q0 -84 -20 -180l-715 -105q-6 -43 -6 -80q0 -135 67.5 -212.5t206.5 -77.5q76 0 150 19t131 48l24 -119q-70 -37 -159.5 -57t-184.5 -20q-197 0 -299 111t-102 312zM268 580l545 82 q12 70 12 131q0 106 -47 162.5t-149 56.5q-70 0 -128.5 -32t-104.5 -88t-78 -136t-50 -176zM590 1227l205 280q20 14 48 22.5t56 8.5q29 0 52.5 -10t33.5 -33l-282 -268h-113z" />
<glyph unicode="&#xea;" horiz-adv-x="1073" d="M84 403q0 113 33 240t101.5 233.5t175 177t253.5 70.5q164 0 254 -92t90 -268q0 -84 -20 -180l-715 -105q-6 -43 -6 -80q0 -135 67.5 -212.5t206.5 -77.5q76 0 150 19t131 48l24 -119q-70 -37 -159.5 -57t-184.5 -20q-197 0 -299 111t-102 312zM268 580l545 82 q12 70 12 131q0 106 -47 162.5t-149 56.5q-70 0 -128.5 -32t-104.5 -88t-78 -136t-50 -176zM424 1270l230 205q16 16 36.5 23t36.5 7q39 0 64 -30l151 -205l-65 -53l-166 167l-229 -167z" />
<glyph unicode="&#xeb;" horiz-adv-x="1073" d="M84 403q0 113 33 240t101.5 233.5t175 177t253.5 70.5q164 0 254 -92t90 -268q0 -84 -20 -180l-715 -105q-6 -43 -6 -80q0 -135 67.5 -212.5t206.5 -77.5q76 0 150 19t131 48l24 -119q-70 -37 -159.5 -57t-184.5 -20q-197 0 -299 111t-102 312zM268 580l545 82 q12 70 12 131q0 106 -47 162.5t-149 56.5q-70 0 -128.5 -32t-104.5 -88t-78 -136t-50 -176zM443 1329q0 39 29.5 70t74.5 31q33 0 55.5 -24t22.5 -54q0 -37 -28.5 -70t-76.5 -33q-33 0 -55 24.5t-22 55.5zM768 1329q0 39 29.5 70t74.5 31q33 0 55.5 -24t22.5 -54 q0 -37 -28.5 -70t-76.5 -33q-33 0 -55 24.5t-22 55.5z" />
<glyph unicode="&#xec;" horiz-adv-x="493" d="M43 0l215 1104h180l-215 -1104h-180zM195 1495q14 23 37.5 33t52.5 10q25 0 49 -7t43 -24l96 -280h-98z" />
<glyph unicode="&#xed;" horiz-adv-x="493" d="M43 0l215 1104h180l-215 -1104h-180zM268 1227l205 280q20 14 48 22.5t56 8.5q29 0 52.5 -10t33.5 -33l-282 -268h-113z" />
<glyph unicode="&#xee;" horiz-adv-x="493" d="M43 0l215 1104h180l-215 -1104h-180zM119 1270l230 205q16 16 36.5 23t36.5 7q39 0 64 -30l151 -205l-65 -53l-166 167l-229 -167z" />
<glyph unicode="&#xef;" horiz-adv-x="493" d="M43 0l215 1104h180l-215 -1104h-180zM142 1329q0 39 29.5 70t74.5 31q33 0 55.5 -24t22.5 -54q0 -37 -28.5 -70t-76.5 -33q-33 0 -55 24.5t-22 55.5zM467 1329q0 39 29.5 70t74.5 31q33 0 55.5 -24t22.5 -54q0 -37 -28.5 -70t-76.5 -33q-33 0 -55 24.5t-22 55.5z" />
<glyph unicode="&#xf0;" horiz-adv-x="1077" d="M78 373q0 139 41 270t115.5 232.5t181 163t239.5 61.5q31 0 58.5 -4t56.5 -13q-41 129 -113 234l-231 -123l-45 80l219 121l-121 151l125 86l131 -162l215 117l51 -86l-206 -110q94 -135 143 -286t49 -329q0 -80 -11 -170t-37 -178t-69 -170t-105.5 -143.5t-147.5 -98 t-193 -36.5q-172 0 -259 108.5t-87 284.5zM254 371q0 -123 45 -197t145 -74q76 0 133.5 40t98.5 106q35 53 60.5 121.5t43 141.5t25.5 142.5t8 126.5q0 53 -4 102.5t-12 96.5q-57 23 -127 22q-72 0 -133.5 -31.5t-108.5 -84.5q-43 -47 -74.5 -110.5t-54.5 -132.5t-34 -138.5 t-11 -130.5z" />
<glyph unicode="&#xf1;" horiz-adv-x="1093" d="M33 0l203 1047q174 78 389 77q186 0 274 -76.5t88 -203.5q0 -29 -3 -56.5t-7 -52.5l-141 -735h-181l142 739q4 27 8 52.5t4 48.5q0 80 -47 125t-160 45q-109 0 -201 -37l-188 -973h-180zM407 1268q27 72 70 118t114 46q33 0 56.5 -13.5t43 -29t41 -28.5t50.5 -13 q35 0 57.5 23.5t36.5 58.5l86 -27q-27 -72 -71 -119t-115 -47q-35 0 -57.5 13.5t-42 28.5t-40 28.5t-49.5 13.5q-35 0 -57.5 -22.5t-36.5 -57.5z" />
<glyph unicode="&#xf2;" horiz-adv-x="1077" d="M82 379q0 66 11 145.5t37 162.5t69 162t104.5 140.5t145 98t192.5 36.5q174 0 258 -109.5t84 -289.5q0 -59 -10 -137t-35 -161t-67 -163t-103 -143.5t-146 -102t-196 -38.5q-174 0 -259 109.5t-85 289.5zM256 375q0 -123 42 -199t146 -76q94 0 161 60.5t112 158.5 q20 45 37.5 99.5t30 111t18.5 110.5t6 97q0 123 -42 198t-146 75q-92 0 -159 -58.5t-112 -156.5q-20 -45 -37.5 -100.5t-30 -112t-19.5 -110.5t-7 -97zM467 1495q14 23 37.5 33t52.5 10q25 0 49 -7t43 -24l96 -280h-98z" />
<glyph unicode="&#xf3;" horiz-adv-x="1077" d="M82 379q0 66 11 145.5t37 162.5t69 162t104.5 140.5t145 98t192.5 36.5q174 0 258 -109.5t84 -289.5q0 -59 -10 -137t-35 -161t-67 -163t-103 -143.5t-146 -102t-196 -38.5q-174 0 -259 109.5t-85 289.5zM256 375q0 -123 42 -199t146 -76q94 0 161 60.5t112 158.5 q20 45 37.5 99.5t30 111t18.5 110.5t6 97q0 123 -42 198t-146 75q-92 0 -159 -58.5t-112 -156.5q-20 -45 -37.5 -100.5t-30 -112t-19.5 -110.5t-7 -97zM579 1227l205 280q20 14 48 22.5t56 8.5q29 0 52.5 -10t33.5 -33l-282 -268h-113z" />
<glyph unicode="&#xf4;" horiz-adv-x="1077" d="M82 379q0 66 11 145.5t37 162.5t69 162t104.5 140.5t145 98t192.5 36.5q174 0 258 -109.5t84 -289.5q0 -59 -10 -137t-35 -161t-67 -163t-103 -143.5t-146 -102t-196 -38.5q-174 0 -259 109.5t-85 289.5zM256 375q0 -123 42 -199t146 -76q94 0 161 60.5t112 158.5 q20 45 37.5 99.5t30 111t18.5 110.5t6 97q0 123 -42 198t-146 75q-92 0 -159 -58.5t-112 -156.5q-20 -45 -37.5 -100.5t-30 -112t-19.5 -110.5t-7 -97zM411 1270l230 205q16 16 36.5 23t36.5 7q39 0 64 -30l151 -205l-65 -53l-166 167l-229 -167z" />
<glyph unicode="&#xf5;" horiz-adv-x="1077" d="M82 379q0 66 11 145.5t37 162.5t69 162t104.5 140.5t145 98t192.5 36.5q174 0 258 -109.5t84 -289.5q0 -59 -10 -137t-35 -161t-67 -163t-103 -143.5t-146 -102t-196 -38.5q-174 0 -259 109.5t-85 289.5zM256 375q0 -123 42 -199t146 -76q94 0 161 60.5t112 158.5 q20 45 37.5 99.5t30 111t18.5 110.5t6 97q0 123 -42 198t-146 75q-92 0 -159 -58.5t-112 -156.5q-20 -45 -37.5 -100.5t-30 -112t-19.5 -110.5t-7 -97zM407 1268q27 72 70 118t114 46q33 0 56.5 -13.5t43 -29t41 -28.5t50.5 -13q35 0 57.5 23.5t36.5 58.5l86 -27 q-27 -72 -71 -119t-115 -47q-35 0 -57.5 13.5t-42 28.5t-40 28.5t-49.5 13.5q-35 0 -57.5 -22.5t-36.5 -57.5z" />
<glyph unicode="&#xf6;" horiz-adv-x="1077" d="M82 379q0 66 11 145.5t37 162.5t69 162t104.5 140.5t145 98t192.5 36.5q174 0 258 -109.5t84 -289.5q0 -59 -10 -137t-35 -161t-67 -163t-103 -143.5t-146 -102t-196 -38.5q-174 0 -259 109.5t-85 289.5zM256 375q0 -123 42 -199t146 -76q94 0 161 60.5t112 158.5 q20 45 37.5 99.5t30 111t18.5 110.5t6 97q0 123 -42 198t-146 75q-92 0 -159 -58.5t-112 -156.5q-20 -45 -37.5 -100.5t-30 -112t-19.5 -110.5t-7 -97zM432 1329q0 39 29.5 70t74.5 31q33 0 55.5 -24t22.5 -54q0 -37 -28.5 -70t-76.5 -33q-33 0 -55 24.5t-22 55.5zM758 1329 q0 39 29.5 70t74.5 31q33 0 55.5 -24t22.5 -54q0 -37 -28.5 -70t-76.5 -33q-33 0 -55 24.5t-22 55.5z" />
<glyph unicode="&#xf7;" horiz-adv-x="1060" d="M117 629l20 110h807l-22 -110h-805zM362 338q0 49 35 85t86 36q35 0 62.5 -24.5t27.5 -65.5q0 -49 -35.5 -84t-86.5 -35q-35 0 -62 23.5t-27 64.5zM489 997q0 49 35 85t86 36q35 0 62.5 -24.5t27.5 -65.5q0 -49 -35.5 -84t-86.5 -35q-35 0 -62 23.5t-27 64.5z" />
<glyph unicode="&#xf8;" horiz-adv-x="1077" d="M-6 -35l143 170q-55 98 -55 244q0 66 11 145.5t37 162.5t69 162t104.5 140.5t145 98t192.5 36.5q156 0 244 -94l133 158l53 -47l-141 -172q53 -94 53 -244q0 -59 -10 -137t-35 -161t-67 -163t-103 -143.5t-146 -102t-196 -38.5q-158 0 -246 94l-131 -156zM246 360 q0 -23 2 -44t6 -42l537 644q-23 47 -63 74.5t-105 27.5q-102 0 -172 -64.5t-115 -169.5q-18 -45 -34.5 -98t-29 -109.5t-19.5 -113t-7 -105.5zM279 190q23 -47 62.5 -72.5t102.5 -25.5q104 0 173 67.5t116 174.5q18 43 34.5 96t28 109.5t18.5 112t7 102.5q0 43 -6 80z" />
<glyph unicode="&#xf9;" horiz-adv-x="1073" d="M92 268q0 27 4 54l8 53l142 729h180l-143 -733q-10 -57 -11 -95q0 -82 49.5 -128t143.5 -46q55 0 105.5 9.5t88.5 27.5l189 965h180l-203 -1045q-76 -41 -175 -60t-210 -19q-164 0 -256 72.5t-92 215.5zM490 1495q14 23 37.5 33t52.5 10q25 0 49 -7t43 -24l96 -280h-98z " />
<glyph unicode="&#xfa;" horiz-adv-x="1073" d="M92 268q0 27 4 54l8 53l142 729h180l-143 -733q-10 -57 -11 -95q0 -82 49.5 -128t143.5 -46q55 0 105.5 9.5t88.5 27.5l189 965h180l-203 -1045q-76 -41 -175 -60t-210 -19q-164 0 -256 72.5t-92 215.5zM581 1227l205 280q20 14 48 22.5t56 8.5q29 0 52.5 -10t33.5 -33 l-282 -268h-113z" />
<glyph unicode="&#xfb;" horiz-adv-x="1073" d="M92 268q0 27 4 54l8 53l142 729h180l-143 -733q-10 -57 -11 -95q0 -82 49.5 -128t143.5 -46q55 0 105.5 9.5t88.5 27.5l189 965h180l-203 -1045q-76 -41 -175 -60t-210 -19q-164 0 -256 72.5t-92 215.5zM409 1270l230 205q16 16 36.5 23t36.5 7q39 0 64 -30l151 -205 l-65 -53l-166 167l-229 -167z" />
<glyph unicode="&#xfc;" horiz-adv-x="1073" d="M92 268q0 27 4 54l8 53l142 729h180l-143 -733q-10 -57 -11 -95q0 -82 49.5 -128t143.5 -46q55 0 105.5 9.5t88.5 27.5l189 965h180l-203 -1045q-76 -41 -175 -60t-210 -19q-164 0 -256 72.5t-92 215.5zM430 1329q0 39 29.5 70t74.5 31q33 0 55.5 -24t22.5 -54 q0 -37 -28.5 -70t-76.5 -33q-33 0 -55 24.5t-22 55.5zM756 1329q0 39 29.5 70t74.5 31q33 0 55.5 -24t22.5 -54q0 -37 -28.5 -70t-76.5 -33q-33 0 -55 24.5t-22 55.5z" />
<glyph unicode="&#xfd;" horiz-adv-x="1007" d="M51 -440l266 440l-157 1104h186l78 -801q2 -20 3 -39.5t1 -40.5q0 -14 -1 -27.5t-1 -29.5h4q23 70 55 137l392 801h176l-803 -1544h-199zM551 1227l205 280q20 14 48 22.5t56 8.5q29 0 52.5 -10t33.5 -33l-282 -268h-113z" />
<glyph unicode="&#xfe;" d="M-53 -440l397 2048h178l-102 -537q106 49 225 49q86 0 150.5 -30.5t106.5 -85t63.5 -128t21.5 -159.5q0 -119 -34.5 -249t-107.5 -237.5t-186.5 -178t-271.5 -70.5q-45 0 -90 8t-84 20l-88 -450h-178zM236 125q33 -16 69.5 -21.5t77.5 -5.5q113 0 192.5 56.5t133.5 154.5 q45 86 74.5 199t29.5 211q0 61 -13.5 115.5t-40 93.5t-69.5 61.5t-100 22.5q-47 0 -98.5 -14.5t-92.5 -32.5z" />
<glyph unicode="&#xff;" horiz-adv-x="1007" d="M51 -440l266 440l-157 1104h186l78 -801q2 -20 3 -39.5t1 -40.5q0 -14 -1 -27.5t-1 -29.5h4q23 70 55 137l392 801h176l-803 -1544h-199zM414 1329q0 39 29.5 70t74.5 31q33 0 55.5 -24t22.5 -54q0 -37 -28.5 -70t-76.5 -33q-33 0 -55 24.5t-22 55.5zM740 1329 q0 39 29.5 70t74.5 31q33 0 55.5 -24t22.5 -54q0 -37 -28.5 -70t-76.5 -33q-33 0 -55 24.5t-22 55.5z" />
<glyph unicode="&#x131;" horiz-adv-x="493" d="M43 0l215 1104h180l-215 -1104h-180z" />
<glyph unicode="&#x152;" horiz-adv-x="1552" d="M113 483q0 74 12 173.5t44 205t84 206.5t131 182t187.5 130.5t253.5 49.5q41 0 88.5 -5.5t81.5 -15.5h623l-25 -127h-463l-96 -491h420l-24 -125h-418l-105 -539h463l-27 -127h-622q-35 -10 -80 -15t-92 -5q-211 0 -323.5 130.5t-112.5 372.5zM297 469 q0 -172 69.5 -267.5t211.5 -95.5q41 0 79.5 4.5t69.5 14.5l229 1165q-33 10 -69.5 15.5t-75.5 5.5q-147 0 -247.5 -91.5t-162.5 -238.5q-23 -55 -42 -118.5t-33.5 -131t-21.5 -135.5t-7 -127z" />
<glyph unicode="&#x153;" horiz-adv-x="1732" d="M80 375q0 72 12 154.5t39 165.5t70 161t104.5 137.5t142 95t185.5 35.5q125 0 194.5 -67.5t94.5 -171.5q61 98 159.5 168.5t231.5 70.5q160 0 249 -91t89 -267q0 -86 -21 -182l-710 -105q-6 -43 -7 -82q0 -135 67 -211.5t208 -76.5q78 0 150.5 19t127.5 48l25 -119 q-68 -35 -154 -56t-180 -21q-133 0 -225 58t-127 189q-29 -51 -66 -96t-85 -79t-106.5 -53t-129.5 -19q-166 0 -252 106.5t-86 288.5zM252 375q0 -123 42 -199t146 -76q94 0 161 61.5t112 160.5q20 45 36.5 99t29 110.5t19.5 109.5t7 96q0 123 -42 198t-147 75 q-94 0 -160.5 -60.5t-111.5 -158.5q-20 -45 -36.5 -99.5t-29 -111t-19.5 -109.5t-7 -96zM932 582l545 80q6 35 9 68.5t3 62.5q0 106 -47 162.5t-150 56.5q-70 0 -128 -31t-104 -88t-78 -136t-50 -175z" />
<glyph unicode="&#x178;" horiz-adv-x="1026" d="M195 1409h194l158 -637h4l416 637h188l-539 -784l-122 -625h-189l123 625zM475 1634q0 39 29.5 70t74.5 31q33 0 55.5 -23.5t22.5 -54.5q0 -37 -28.5 -70t-75.5 -33q-33 0 -55.5 24.5t-22.5 55.5zM801 1634q0 39 29.5 70t74.5 31q33 0 55.5 -23.5t22.5 -54.5 q0 -37 -28.5 -70t-75.5 -33q-33 0 -55.5 24.5t-22.5 55.5z" />
<glyph unicode="&#x2c6;" horiz-adv-x="493" d="M121 1270l229 205q16 16 37 23t37 7q39 0 63 -30l152 -205l-66 -53l-165 167l-230 -167z" />
<glyph unicode="&#x2dc;" horiz-adv-x="493" d="M115 1268q27 72 69.5 118t114.5 46q33 0 56.5 -13.5t43 -29t41 -28.5t49.5 -13q35 0 57.5 23.5t37.5 58.5l86 -27q-27 -72 -71 -119t-116 -47q-35 0 -57.5 13.5t-41.5 28.5t-39.5 28.5t-49.5 13.5q-35 0 -57.5 -22.5t-36.5 -57.5z" />
<glyph unicode="&#x2000;" horiz-adv-x="929" />
<glyph unicode="&#x2001;" horiz-adv-x="1861" />
<glyph unicode="&#x2002;" horiz-adv-x="929" />
<glyph unicode="&#x2003;" horiz-adv-x="1861" />
<glyph unicode="&#x2004;" horiz-adv-x="620" />
<glyph unicode="&#x2005;" horiz-adv-x="464" />
<glyph unicode="&#x2006;" horiz-adv-x="309" />
<glyph unicode="&#x2007;" horiz-adv-x="309" />
<glyph unicode="&#x2008;" horiz-adv-x="231" />
<glyph unicode="&#x2009;" horiz-adv-x="370" />
<glyph unicode="&#x200a;" horiz-adv-x="102" />
<glyph unicode="&#x2010;" horiz-adv-x="704" d="M125 612l29 144h462l-28 -144h-463z" />
<glyph unicode="&#x2011;" horiz-adv-x="704" d="M125 612l29 144h462l-28 -144h-463z" />
<glyph unicode="&#x2012;" horiz-adv-x="704" d="M125 612l29 144h462l-28 -144h-463z" />
<glyph unicode="&#x2013;" horiz-adv-x="770" d="M6 616l25 136h770l-25 -136h-770z" />
<glyph unicode="&#x2014;" horiz-adv-x="1540" d="M6 621l25 127h1540l-25 -127h-1540z" />
<glyph unicode="&#x2018;" horiz-adv-x="532" d="M203 1143l325 465h111l-248 -465q-18 -25 -51 -40.5t-64 -15.5q-29 0 -49 13.5t-24 42.5z" />
<glyph unicode="&#x2019;" horiz-adv-x="532" d="M190 1102l250 465q18 25 51 40t64 15q29 0 49.5 -13.5t24.5 -41.5l-328 -465h-111z" />
<glyph unicode="&#x201a;" horiz-adv-x="532" d="M-82 -297l250 465q18 25 51 40t64 15q29 0 48 -13t23 -42l-325 -465h-111z" />
<glyph unicode="&#x201c;" horiz-adv-x="888" d="M203 1143l325 465h111l-248 -465q-18 -25 -51 -40.5t-64 -15.5q-29 0 -49 13.5t-24 42.5zM559 1143l326 465h110l-247 -465q-18 -25 -51 -40.5t-64 -15.5q-29 0 -49.5 13.5t-24.5 42.5z" />
<glyph unicode="&#x201d;" horiz-adv-x="888" d="M190 1102l250 465q18 25 51 40t64 15q29 0 49.5 -13.5t24.5 -41.5l-328 -465h-111zM547 1102l250 465q18 25 51 40t63 15q29 0 49.5 -13.5t24.5 -41.5l-328 -465h-110z" />
<glyph unicode="&#x201e;" horiz-adv-x="888" d="M-82 -297l250 465q18 25 51 40t64 15q29 0 48 -13t23 -42l-325 -465h-111zM274 -297l250 465q18 25 51 40t64 15q29 0 48.5 -13t23.5 -42l-326 -465h-111z" />
<glyph unicode="&#x2022;" horiz-adv-x="663" d="M168 707q0 47 18.5 87t48 68.5t69.5 44t83 15.5q70 0 118 -46.5t48 -121.5q0 -47 -18.5 -87t-49 -69t-70.5 -45t-83 -16q-70 0 -117 47t-47 123z" />
<glyph unicode="&#x2026;" horiz-adv-x="1544" d="M45 90q0 55 41 94t96 39q43 0 73 -29.5t30 -70.5q0 -55 -42 -95t-98 -40q-43 0 -71.5 30.5t-28.5 71.5zM559 90q0 55 41 94t96 39q43 0 73 -29.5t30 -70.5q0 -55 -41 -95t-96 -40q-43 0 -73 30.5t-30 71.5zM1073 90q0 55 42 94t97 39q43 0 72 -29.5t29 -70.5 q0 -55 -41 -95t-96 -40q-43 0 -73 30.5t-30 71.5z" />
<glyph unicode="&#x202f;" horiz-adv-x="370" />
<glyph unicode="&#x2039;" horiz-adv-x="606" d="M129 692l350 455l96 -68l-309 -399l154 -401l-117 -54z" />
<glyph unicode="&#x203a;" horiz-adv-x="606" d="M72 293l309 399l-154 402l117 53l174 -467l-350 -455z" />
<glyph unicode="&#x205f;" horiz-adv-x="464" />
<glyph unicode="&#x20ac;" d="M88 514l18 90h166q6 57 17.5 116.5t27.5 119.5h-167l18 90h178q35 98 88 189t124 160t160 110t200 41q150 0 243 -76l-65 -109q-33 25 -78 40t-98 15q-80 0 -142.5 -32.5t-109.5 -86t-81 -119t-59 -132.5h398l-19 -90h-407q-16 -59 -28.5 -118.5t-20.5 -117.5h413 l-18 -90h-404q0 -12 -1 -23.5t-1 -21.5q0 -166 59.5 -259t188.5 -93q55 0 105.5 16.5t91.5 40.5l24 -117q-49 -37 -116.5 -57t-149.5 -20q-98 0 -169 35.5t-118 100t-69.5 154.5t-22.5 199v45h-176z" />
<glyph unicode="&#x2122;" horiz-adv-x="1572" d="M188 1317l19 92h500l-21 -92h-182l-142 -727h-133l142 727h-183zM594 590l260 819h141l58 -559q2 -23 3 -50.5t1 -51.5h4q14 45 41 102l276 559h142l-60 -819h-121l56 586q4 25 6 51t6 43h-4q-14 -39 -41 -94l-291 -586h-86l-61 586q-2 18 -4 45.5t-2 48.5h-5 q-10 -53 -22 -94l-178 -586h-119z" />
<glyph unicode="&#xe000;" horiz-adv-x="1105" d="M0 1105h1105v-1105h-1105v1105z" />
<glyph unicode="&#xfb01;" horiz-adv-x="1130" d="M94 0l191 991h-125l20 113h127l31 160q33 168 132 257t269 89h15q10 0 24 -2l-22 -117h-13q-76 0 -137 -49t-86 -174l-33 -164h193l-21 -113h-194l-191 -991h-180zM680 0l215 1104h180l-215 -1104h-180zM938 1403q0 47 35 80t88 33q41 0 66.5 -26t25.5 -60q0 -47 -35 -81 t-88 -34q-41 0 -66.5 26.5t-25.5 61.5z" />
<glyph unicode="&#xfb02;" horiz-adv-x="1163" d="M94 0l191 991h-125l20 113h127l31 160q33 168 132 257t269 89h15q10 0 24 -2l-22 -117h-13q-76 0 -137 -49t-86 -174l-33 -164h193l-21 -113h-194l-191 -991h-180zM711 0l311 1608h180l-311 -1608h-180z" />
<glyph unicode="&#xfb03;" horiz-adv-x="1763" d="M1313 0l215 1104h180l-215 -1104h-180zM1571 1403q0 47 35 80t88 33q41 0 66.5 -26t25.5 -60q0 -47 -35 -81t-88 -34q-41 0 -66.5 26.5t-25.5 61.5zM729 0l191 991h-125l20 113h127l31 160q33 168 132 257t269 89h15q10 0 24 -2l-22 -117h-13q-76 0 -137 -49t-86 -174 l-33 -164h193l-21 -113h-194l-191 -991h-180zM94 0l191 991h-125l20 113h127l31 160q33 168 132 257t269 89h15q10 0 24 -2l-22 -117h-13q-76 0 -137 -49t-86 -174l-33 -164h193l-21 -113h-194l-191 -991h-180z" />
<glyph unicode="&#xfb04;" horiz-adv-x="1767" d="M1315 0l311 1608h181l-312 -1608h-180zM729 0l191 991h-125l20 113h127l31 160q33 168 132 257t269 89h15q10 0 24 -2l-22 -117h-13q-76 0 -137 -49t-86 -174l-33 -164h193l-21 -113h-194l-191 -991h-180zM94 0l191 991h-125l20 113h127l31 160q33 168 132 257t269 89h15 q10 0 24 -2l-22 -117h-13q-76 0 -137 -49t-86 -174l-33 -164h193l-21 -113h-194l-191 -991h-180z" />
<glyph horiz-adv-x="1083" d="M496 1495q14 23 37.5 33t52.5 10q25 0 49 -7t43 -24l96 -280h-98z" />
<glyph horiz-adv-x="1083" d="M604 1227l205 280q20 14 48 22.5t56 8.5q29 0 52.5 -10t33.5 -33l-282 -268h-113z" />
<glyph horiz-adv-x="1083" d="M438 1270l230 205q16 16 36.5 23t36.5 7q39 0 64 -30l151 -205l-65 -53l-166 167l-229 -167z" />
<glyph horiz-adv-x="1093" d="M616 1364q0 39 15.5 74t42 61.5t62.5 41.5t75 15q61 0 101 -39.5t40 -99.5q0 -39 -15 -73.5t-42 -61.5t-62.5 -42t-74.5 -15q-59 0 -100.5 41t-41.5 98zM692 1370q0 -33 20.5 -53.5t53.5 -20.5q45 0 78 35t33 78q0 33 -19.5 54.5t-54.5 21.5q-45 0 -78 -36t-33 -79z" />
<glyph horiz-adv-x="1083" d="M430 1268q27 72 70 118t114 46q33 0 56.5 -13.5t43 -29t41 -28.5t50.5 -13q35 0 57.5 23.5t36.5 58.5l86 -27q-27 -72 -71 -119t-115 -47q-35 0 -57.5 13.5t-42 28.5t-40 28.5t-49.5 13.5q-35 0 -57.5 -22.5t-36.5 -57.5z" />
<glyph horiz-adv-x="1083" d="M455 1329q0 39 29.5 70t74.5 31q33 0 55.5 -24t22.5 -54q0 -37 -28.5 -70t-76.5 -33q-33 0 -55 24.5t-22 55.5z" />
<glyph horiz-adv-x="1249" d="M643 1800q14 23 38 33t52 10q25 0 49.5 -7t42.5 -24l97 -280h-99z" />
<glyph horiz-adv-x="1249" d="M733 1532l205 280q20 14 48 22.5t56 8.5q29 0 52.5 -10t33.5 -33l-282 -268h-113z" />
<glyph horiz-adv-x="1249" d="M584 1575l229 205q16 16 36.5 23t37.5 7q39 0 63 -30l152 -205l-66 -53l-166 168l-229 -168z" />
<glyph horiz-adv-x="434" d="M231 1669q0 39 15.5 74t42 61.5t62.5 42t75 15.5q61 0 101 -40t40 -100q0 -39 -15 -73.5t-42 -61t-62.5 -42t-74.5 -15.5q-59 0 -100.5 41t-41.5 98zM307 1675q0 -33 20.5 -53t53.5 -20q45 0 78 34.5t33 77.5q0 33 -19.5 54.5t-54.5 21.5q-45 0 -78 -36t-33 -79z" />
<glyph horiz-adv-x="1249" d="M590 1573q27 72 69.5 118t114.5 46q33 0 56.5 -13.5t43 -29t41 -28.5t50.5 -13q35 0 57 23.5t37 58.5l86 -27q-27 -72 -71 -119t-116 -47q-35 0 -57 13.5t-41.5 28.5t-40 28.5t-49.5 13.5q-35 0 -57.5 -22.5t-36.5 -57.5z" />
<glyph horiz-adv-x="1249" d="M596 1634q0 39 29.5 70t74.5 31q33 0 55.5 -23.5t22.5 -54.5q0 -37 -28.5 -70t-75.5 -33q-33 0 -55.5 24.5t-22.5 55.5z" />
</font>
</defs>
</svg>
