<?xml version="1.0" encoding="utf-8"?>
<!-- Generator: Adobe Illustrator 16.0.3, SVG Export Plug-In . SVG Version: 6.00 Build 0)  -->
<!DOCTYPE svg PUBLIC "-//W3C//DTD SVG 1.1//EN" "http://www.w3.org/Graphics/SVG/1.1/DTD/svg11.dtd">
<svg version="1.1" id="Layer_1" xmlns="http://www.w3.org/2000/svg" xmlns:xlink="http://www.w3.org/1999/xlink" x="0px" y="0px"
	 width="99.95px" height="100px" viewBox="161.5 99 99.95 100" enable-background="new 161.5 99 99.95 100" xml:space="preserve">
<path id="White_2_" fill="#FFFFFF" d="M256,99h-89c-3.05,0-5.5,2.45-5.5,5.5v89c0,3.05,2.45,5.5,5.5,5.5h47.9v-38.75h-13.05v-15.1
	h13.05V134c0-12.9,7.9-19.95,19.4-19.95c5.5,0,10.25,0.4,11.65,0.6v13.5h-8c-6.25,0-7.5,3-7.5,7.35v9.65h14.95l-1.95,15.1h-13V199
	h25.5c3.05,0,5.5-2.45,5.5-5.5v-89C261.5,101.45,259.05,99,256,99z"/>
</svg>
