<svg id="Layer_1" data-name="Layer 1" xmlns="http://www.w3.org/2000/svg" viewBox="0 0 199.94 200"><defs><style>.cls-1{fill:#fff;}.cls-2{fill:#5e5c5c;}</style></defs><title>G+</title><path class="cls-1" d="M301.81,206c2.4-.95,5-.82,7.54-.92q87.46.1,174.92,0a10.61,10.61,0,0,1,11.56,11.55c.13,58.86,0,117.73,0,176.6A10.82,10.82,0,0,1,484.26,405q-88.28,0-176.58,0a10.82,10.82,0,0,1-11.61-11.75c0-58.86-.1-117.73,0-176.58A11.34,11.34,0,0,1,301.81,206Zm39.4,99c-.3,14.54,9.72,28.42,23.5,32.95,13,4.36,28.94,1.1,37.57-10,6.31-7.79,7.74-18.17,7.06-27.87-11.12-.1-22.23-.07-33.33,0,0,4,0,7.9,0,11.86,6.66.18,13.31.1,20,.23-1.68,5.76-5.51,11.12-11.32,13.2-11.22,4.94-25.53-1.51-29.05-13.28-4.26-11.27,2.71-24.86,14.23-28.14,7.14-2.51,14.49.32,20.6,4,3.1-2.9,6-6,8.84-9.12-6.94-5.81-15.86-9.37-25-8.59C356.27,270.34,340.53,286.94,341.21,304.91Zm89.76-15c0,3.31-.07,6.64-.08,10q-5,0-10,.07v9.92c3.31,0,6.64,0,10,.07,0,3.31,0,6.62.07,10,3.29,0,6.61,0,9.92,0,0-3.33,0-6.64.07-10l10,0V300c-3.31,0-6.64,0-10-.07,0-3.31,0-6.64-.07-10Z" transform="translate(-296 -205)"/><path class="cls-2" d="M341.21,304.91c-.68-18,15.06-34.58,33-34.79,9.17-.78,18.09,2.78,25,8.59-2.85,3.13-5.74,6.22-8.84,9.12-6.11-3.71-13.46-6.54-20.6-4-11.51,3.28-18.49,16.87-14.23,28.14,3.53,11.76,17.84,18.22,29.05,13.28,5.81-2.08,9.63-7.44,11.32-13.2-6.66-.13-13.31,0-20-.23,0-4,0-7.9,0-11.86,11.1,0,22.21,0,33.33,0,.68,9.7-.75,20.08-7.06,27.87-8.64,11.12-24.59,14.38-37.57,10C350.93,333.33,340.91,319.46,341.21,304.91Z" transform="translate(-296 -205)"/><path class="cls-2" d="M431,289.94h9.9c0,3.31,0,6.64.07,10,3.31,0,6.64,0,10,.07v9.92l-10,0c0,3.33,0,6.64-.07,10-3.31,0-6.62,0-9.92,0,0-3.33,0-6.64-.07-10-3.31,0-6.64,0-10-.07V300q5,0,10-.07C430.9,296.58,430.93,293.25,431,289.94Z" transform="translate(-296 -205)"/></svg>