<?xml version="1.0" encoding="utf-8"?>
<!-- Generator: Adobe Illustrator 16.0.3, SVG Export Plug-In . SVG Version: 6.00 Build 0)  -->
<!DOCTYPE svg PUBLIC "-//W3C//DTD SVG 1.1//EN" "http://www.w3.org/Graphics/SVG/1.1/DTD/svg11.dtd">
<svg version="1.1" id="Layer_1" xmlns="http://www.w3.org/2000/svg" xmlns:xlink="http://www.w3.org/1999/xlink" x="0px" y="0px"
	 width="100px" height="100px" viewBox="161.5 99 100 100" enable-background="new 161.5 99 100 100" xml:space="preserve">
<path fill="#FFFFFF" d="M261.5,199h-100V99h100V199z M190.6,178.15h21.05c6.5,0,11.6-1.5,15.25-4.45c3.649-2.95,5.5-7.05,5.5-12.3
	c0-3.9-0.95-6.95-2.9-9.25c-1.95-2.25-4.95-3.8-9.05-4.55v-0.4c3.3-0.6,5.85-2,7.6-4.25s2.65-5.1,2.65-8.5
	c0-5.05-1.8-8.75-5.35-11.1c-3.6-2.35-9.4-3.5-17.4-3.5h-17.3v58.3H190.6z M200.15,127.8h8.25c4.3,0,7.45,0.6,9.45,1.85
	c2,1.2,2.95,3.2,2.95,5.95c0,3.05-0.9,5.2-2.75,6.45c-1.85,1.25-4.75,1.9-8.75,1.9h-9.2V127.8H200.15z M209.8,151.65
	c4.25,0,7.4,0.75,9.45,2.2c2.05,1.45,3.1,3.7,3.1,6.75c0,3.301-1,5.7-3.05,7.25c-2.05,1.551-5.05,2.301-9.05,2.301H200.1V151.7h9.7
	V151.65z"/>
</svg>
