<?xml version="1.0" encoding="utf-8"?>
<!-- Generator: Adobe Illustrator 16.0.3, SVG Export Plug-In . SVG Version: 6.00 Build 0)  -->
<!DOCTYPE svg PUBLIC "-//W3C//DTD SVG 1.1//EN" "http://www.w3.org/Graphics/SVG/1.1/DTD/svg11.dtd">
<svg version="1.1" id="Layer_1" xmlns="http://www.w3.org/2000/svg" xmlns:xlink="http://www.w3.org/1999/xlink" x="0px" y="0px"
	 width="100px" height="100px" viewBox="161.5 99 100 100" enable-background="new 161.5 99 100 100" xml:space="preserve">
<path fill="#FFFFFF" d="M261.5,199h-100V99h100V199z M199.9,174.4c23.6,0,36.5-19.551,36.5-36.45c0-0.55,0-1.1,0-1.65
	c2.5-1.8,4.649-4.05,6.399-6.65c-2.3,1-4.75,1.7-7.399,2c2.649-1.55,4.699-4.1,5.649-7.1c-2.45,1.45-5.2,2.5-8.149,3.1
	c-2.351-2.5-5.7-4.05-9.351-4.05c-7.05,0-12.8,5.75-12.8,12.8c0,1,0.1,1.95,0.3,2.95c-10.65-0.55-20.1-5.65-26.4-13.4
	c-1.1,1.9-1.75,4.1-1.75,6.45c0,4.45,2.25,8.4,5.7,10.7c-2.1-0.05-4.05-0.65-5.8-1.6c0,0.05,0,0.1,0,0.15c0,6.2,4.45,11.4,10.3,12.6
	c-1.05,0.3-2.2,0.45-3.4,0.45c-0.8,0-1.6-0.05-2.4-0.2c1.6,5.1,6.4,8.8,12,8.9c-4.4,3.449-9.95,5.5-15.95,5.5
	c-1,0-2.05-0.051-3.05-0.2C185.95,172.25,192.7,174.4,199.9,174.4"/>
</svg>
