<?xml version="1.0" encoding="utf-8"?>
<!-- Generator: Adobe Illustrator 16.0.3, SVG Export Plug-In . SVG Version: 6.00 Build 0)  -->
<!DOCTYPE svg PUBLIC "-//W3C//DTD SVG 1.1//EN" "http://www.w3.org/Graphics/SVG/1.1/DTD/svg11.dtd">
<svg version="1.1" id="Layer_1" xmlns="http://www.w3.org/2000/svg" xmlns:xlink="http://www.w3.org/1999/xlink" x="0px" y="0px"
	 width="100px" height="100px" viewBox="161.5 99 100 100" enable-background="new 161.5 99 100 100" xml:space="preserve">
<g>
	<g>
		<g>
			<path fill="#FFFFFF" d="M254.1,99h-85.2c-4.05,0-7.4,3.25-7.4,7.2v85.6c0,4,3.3,7.2,7.4,7.2h85.2c4.101,0,7.4-3.25,7.4-7.2v-85.6
				C261.5,102.25,258.2,99,254.1,99z M191.15,184.2H176.3v-47.7h14.85V184.2z M183.75,129.95c-4.75,0-8.6-3.85-8.6-8.6
				s3.85-8.6,8.6-8.6s8.6,3.85,8.6,8.6S188.5,129.95,183.75,129.95z M246.7,184.2h-14.8V161c0-5.55-0.101-12.65-7.7-12.65
				c-7.7,0-8.9,6.05-8.9,12.25V184.2h-14.8v-47.7h14.2v6.5h0.2c2-3.75,6.8-7.7,14.05-7.7c15,0,17.8,9.9,17.8,22.75v26.15H246.7z"/>
		</g>
	</g>
</g>
</svg>
