<?xml version="1.0" standalone="no"?>
<!DOCTYPE svg PUBLIC "-//W3C//DTD SVG 1.1//EN" "http://www.w3.org/Graphics/SVG/1.1/DTD/svg11.dtd" >
<svg xmlns="http://www.w3.org/2000/svg">
<metadata></metadata>
<defs>
<font id="webfontuploaded_file" horiz-adv-x="1202" >
<font-face units-per-em="2048" ascent="1608" descent="-440" />
<missing-glyph horiz-adv-x="512" />
<glyph unicode="&#xfb01;" horiz-adv-x="989" d="M6 887v123h178q2 156 31 223q72 160 262 160q39 0 98 -11v-125q-45 12 -83 13q-98 0 -134 -84q-16 -39 -16 -176h233v-123h-233v-887h-158v887h-178zM666 1192v174h170v-174h-170zM672 0v1010h157v-1010h-157z" />
<glyph unicode="&#xfb02;" horiz-adv-x="987" d="M6 887v123h178q2 156 31 223q74 160 268 160q43 0 92 -11v-125q-49 10 -81 11q-115 0 -142 -99q-10 -41 -10 -159h233v-123h-233v-887h-158v887h-178zM672 0v1366h157v-1366h-157z" />
<glyph horiz-adv-x="2048" />
<glyph horiz-adv-x="2048" />
<glyph unicode="&#xd;" horiz-adv-x="681" />
<glyph unicode=" "  horiz-adv-x="512" />
<glyph unicode="&#x09;" horiz-adv-x="512" />
<glyph unicode="&#xa0;" horiz-adv-x="512" />
<glyph unicode="!" horiz-adv-x="550" d="M158 1366h235l-78 -1026h-84zM172 0v211h209v-211h-209z" />
<glyph unicode="&#x22;" horiz-adv-x="647" d="M106 1366h160l-30 -528h-99zM383 1366h160l-31 -528h-100z" />
<glyph unicode="#" d="M63 434l23 123h217l51 285h-219l23 123h219l69 401h132l-72 -401h289l71 401h129l-71 -401h213l-23 -123h-209l-51 -285h209l-21 -123h-211l-75 -434h-131l77 434h-290l-78 -434h-129l78 434h-220zM434 557h289l49 285h-287z" />
<glyph unicode="$" d="M96 356l135 54q76 -213 293 -230v465q-158 41 -231 84q-66 39 -103.5 108.5t-37.5 153.5q0 94 47 172t129 121q78 39 196 57v166h121v-166q293 -27 387 -262l-135 -45q-53 164 -252 176v-428q160 -35 238 -75q80 -41 128 -123t48 -174q0 -94 -50.5 -178.5t-134.5 -129.5 q-78 -41 -229 -59v-193h-121v193q-336 37 -428 313zM297 1010q0 -164 227 -209v409q-109 -12 -168 -64t-59 -136zM645 180q123 8 191.5 65.5t68.5 151.5q0 111 -92 166q-53 35 -168 53v-436z" />
<glyph unicode="%" horiz-adv-x="1474" d="M76 1026q0 160 76.5 257t201.5 97q127 0 206 -98t79 -260q0 -154 -79 -253t-202 -99q-125 0 -203.5 99t-78.5 257zM182 1030q0 -133 47 -206.5t131 -73.5q78 0 124 69.5t46 192.5q0 137 -47 214t-129 77t-127 -71t-45 -202zM262 0l828 1366h124l-825 -1366h-127zM840 342 q0 160 76.5 257t201.5 97q127 0 205 -98t78 -260q0 -154 -79 -253t-202 -99q-125 0 -202.5 99t-77.5 257zM944 346q0 -133 47 -206.5t131 -73.5q80 0 126 69.5t46 192.5q0 137 -47 213.5t-131 76.5q-82 0 -127 -70.5t-45 -201.5z" />
<glyph unicode="&#x26;" horiz-adv-x="1366" d="M88 379q0 143 92 250.5t262 167.5q-131 193 -131 309q0 125 87 206t220 81q139 0 227.5 -81t88.5 -210q0 -115 -65.5 -196t-221.5 -158l287 -437q139 178 186 437l146 -31q-20 -123 -95 -276.5t-157 -235.5q39 -41 70.5 -55.5t80.5 -14.5q27 0 125 8v-143 q-90 -14 -149 -14q-66 0 -105 20.5t-123 102.5q-96 -76 -175 -106t-185 -30q-201 0 -333 116t-132 290zM258 387q0 -113 55 -180q39 -47 107.5 -76t146.5 -29q84 0 142.5 24t126.5 85l-328 483q-141 -63 -195.5 -130.5t-54.5 -176.5zM457 1114q0 -49 22.5 -98t98.5 -170 q14 8 34.5 20.5t26.5 14.5q90 51 128 99t38 112q0 74 -52.5 124t-127.5 50q-72 0 -120 -43t-48 -109z" />
<glyph unicode="'" horiz-adv-x="370" d="M106 1366h160l-30 -528h-99z" />
<glyph unicode="(" horiz-adv-x="600" d="M106 512q0 451 293 854h105q-252 -393 -252 -845.5t254 -862.5h-105q-295 387 -295 854z" />
<glyph unicode=")" horiz-adv-x="600" d="M94 1366h105q295 -387 295 -854q0 -451 -293 -854h-105q252 393 252 845.5t-254 862.5z" />
<glyph unicode="*" d="M160 1001l47 144l354 -156l-39 377h156l-39 -377l354 156l47 -144l-387 -77l256 -281l-125 -88l-184 324l-184 -324l-125 88l256 281z" />
<glyph unicode="+" d="M123 614v140h403v420h150v-420h403v-140h-403v-419h-150v419h-403z" />
<glyph unicode="," horiz-adv-x="512" d="M131 -256l119 256h-103v227h220v-204l-150 -279h-86z" />
<glyph unicode="-" horiz-adv-x="512" d="M31 451v122h452v-122h-452z" />
<glyph unicode="." horiz-adv-x="512" d="M145 0v223h224v-223h-224z" />
<glyph unicode="/" horiz-adv-x="929" d="M-96 -342l823 1708h135l-825 -1708h-133z" />
<glyph unicode="0" d="M84 686q0 256 100 447q138 260 412 260q281 0 418 -260q104 -205 104 -457q0 -250 -110 -451q-66 -121 -171.5 -186.5t-234.5 -65.5q-229 0 -373.5 199t-144.5 514zM258 690q0 -274 91 -429t255 -155q199 0 283 216q55 145 55 331q0 242 -70 406q-83 201 -276 201 q-162 0 -250 -149.5t-88 -420.5z" />
<glyph unicode="1" d="M188 0v127h410v1055q-180 -186 -375 -295v172q260 135 416 334h123v-1266h383v-127h-957z" />
<glyph unicode="2" d="M106 0v141q299 223 451 351q201 168 272.5 269t71.5 218q0 119 -88 198.5t-219 79.5q-164 0 -262 -131q-55 -72 -66 -182l-160 49q23 92 49.5 145.5t71.5 102.5q135 152 369 152q205 0 340 -118t135 -294q0 -143 -84 -265t-305 -302q-158 -131 -360 -273h753v-141h-969z " />
<glyph unicode="3" d="M61 305l160 53q41 -119 96 -165q90 -80 269 -80q174 0 256 82q78 74 78 180q0 125 -97.5 195.5t-269.5 70.5h-156v137h156q152 0 234.5 62.5t82.5 177.5q0 106 -79.5 172.5t-204.5 66.5q-150 0 -244 -94q-45 -45 -76 -127l-155 43q59 139 153 211q137 102 336 103 q193 0 318.5 -102.5t125.5 -260.5q0 -119 -69.5 -202t-192.5 -109q150 -29 233 -118t83 -222q0 -180 -143.5 -293t-374.5 -113q-211 0 -361 113q-59 47 -93 93t-65 126z" />
<glyph unicode="4" d="M63 326v114l625 955h215v-934h221v-135h-221v-326h-166v326h-674zM242 461h495v645q0 84 4 151l-73 -129z" />
<glyph unicode="5" d="M88 295l145 51q98 -238 338 -237q160 0 257.5 95t97.5 251q0 145 -90.5 237t-231.5 92q-195 0 -321 -186l-136 29l46 739h808l-14 -147h-672l-28 -443q90 84 163.5 117t170.5 33q201 0 336 -136.5t135 -336.5q0 -207 -147.5 -343.5t-373.5 -136.5q-223 0 -368 140 q-78 72 -115 182z" />
<glyph unicode="6" d="M104 651q0 354 164 568q137 174 389 174q328 -1 441 -308l-154 -41q-45 109 -113.5 158t-175.5 49q-231 0 -329 -235q-61 -141 -64 -398q51 109 125 173q123 104 289 104q186 0 314 -131t128 -320q0 -201 -140 -336t-345 -135q-244 0 -386.5 183.5t-142.5 494.5zM301 426 q0 -133 96.5 -224t233.5 -91t233.5 93t96.5 226q0 137 -90.5 232.5t-223.5 95.5q-141 0 -243.5 -98.5t-102.5 -233.5z" />
<glyph unicode="7" d="M141 1217l19 149h901v-102q-145 -170 -279 -420q-94 -180 -150.5 -395.5t-56.5 -403.5v-45h-176v39q0 317 156 668q131 295 328 510h-742z" />
<glyph unicode="8" d="M74 354q-1 230 323 355q-258 113 -258 329q0 158 130 256.5t341 98.5q207 0 332 -95.5t125 -253.5q0 -217 -264 -311q127 -61 188 -104q63 -47 99 -119t36 -152q0 -172 -144 -278.5t-377.5 -106.5t-382 106.5t-148.5 274.5zM242 346q0 -111 98 -177.5t260 -66.5t260 64.5 t98 171.5q0 102 -89.5 174t-282.5 125q-344 -82 -344 -291zM311 1053q0 -88 79 -156.5t214 -101.5q166 43 240 103t74 155q0 96 -82 153.5t-219.5 57.5t-221.5 -57.5t-84 -153.5z" />
<glyph unicode="9" d="M84 924q0 201 137 335t342 134q227 0 361 -140q82 -84 127 -226t45 -312q0 -311 -135 -525q-66 -102 -177.5 -160.5t-244.5 -58.5q-174 0 -295 92q-45 37 -71.5 76t-55.5 111l137 49q84 -190 285 -190q188 0 290.5 156.5t106.5 453.5q-76 -127 -172 -186.5t-232 -59.5 q-193 0 -320.5 129t-127.5 322zM250 926q0 -137 91 -226.5t230 -89.5q135 0 232.5 96.5t97.5 229.5q0 137 -92.5 226t-233.5 89q-145 0 -235 -90t-90 -235z" />
<glyph unicode=":" horiz-adv-x="512" d="M145 0v225h224v-225h-224zM145 786v224h224v-224h-224z" />
<glyph unicode=";" horiz-adv-x="512" d="M131 -256l117 256h-103v227h220v-204l-152 -279h-82zM145 788v222h220v-222h-220z" />
<glyph unicode="&#x3c;" d="M137 610v133l887 416v-151l-723 -332l723 -330v-153z" />
<glyph unicode="=" d="M123 469v137h956v-137h-956zM123 793v137h956v-137h-956z" />
<glyph unicode="&#x3e;" d="M178 193v153l723 330l-723 332v151l887 -416v-133z" />
<glyph unicode="?" horiz-adv-x="1034" d="M41 989q18 98 45 156.5t80 114.5q125 133 340 133q201 0 324.5 -107.5t123.5 -281.5q0 -219 -256 -357q-117 -66 -140 -96.5t-21 -120.5v-41v-49h-144v43q0 109 4 145.5t21 81.5q29 61 84 92l131 74q145 82 145 234q0 106 -77.5 174.5t-198.5 68.5q-152 0 -234 -102 q-49 -66 -78 -193zM369 0v197h202v-197h-202z" />
<glyph unicode="@" horiz-adv-x="1525" d="M82 684q0 299 206 504t507 205q276 0 462.5 -176.5t186.5 -436.5q0 -201 -102.5 -347t-241.5 -146q-119 0 -162 121q-53 -70 -103.5 -97.5t-121.5 -27.5q-135 0 -224.5 106.5t-89.5 265.5q0 172 101.5 288t251.5 116q135 0 215 -117l12 100h133l-55 -467q-6 -49 -6 -90 q0 -70 67 -69q78 0 140.5 108.5t62.5 245.5q0 219 -148.5 359.5t-377.5 140.5q-246 0 -413 -169t-167 -417q0 -160 76 -296t207 -212q135 -76 323 -76q209 0 406 93l10 5t13 6t20 7l43 -121q-240 -117 -490 -117q-231 0 -399 97q-158 92 -250 257t-92 357zM555 649 q0 -102 47 -167.5t121 -65.5q86 0 151.5 88t65.5 205q0 96 -49 156.5t-125 60.5q-90 0 -150.5 -79t-60.5 -198z" />
<glyph unicode="A" horiz-adv-x="1128" d="M6 0l443 1366h196l445 -1366h-177l-137 399h-506l-120 -399h-144zM319 528h420l-209 656z" />
<glyph unicode="B" horiz-adv-x="1239" d="M170 0v1366h541q158 0 256 -63q145 -98 145 -271q0 -141 -96 -231q-49 -43 -146 -76q117 -35 174 -88q109 -109 109 -258q0 -213 -172 -318q-102 -61 -272 -61h-539zM336 150h366q131 0 205 62t74 175q0 111 -72 186q-72 78 -231 78h-342v-501zM336 780h297q158 0 225 51 q84 63 84 183q0 102 -69.5 157.5t-196.5 55.5h-340v-447z" />
<glyph unicode="C" horiz-adv-x="1185" d="M86 696q0 317 154.5 507t412.5 190q385 0 492 -439l-160 -30q-51 170 -130 246.5t-204 76.5q-178 0 -278.5 -150.5t-100.5 -418.5q0 -256 101.5 -407.5t271.5 -151.5q74 0 142.5 33.5t109.5 91.5q53 74 92 215l156 -35q-49 -186 -137 -291q-135 -160 -367 -160 q-233 0 -375 166q-180 215 -180 557z" />
<glyph unicode="D" horiz-adv-x="1325" d="M170 0v1366h457q248 0 405 -149q207 -197 207 -529q0 -297 -157.5 -492.5t-397.5 -195.5h-514zM340 145h278q193 0 300 113q70 72 108.5 187.5t38.5 242.5q0 256 -143 416q-111 119 -306 119h-276v-1078z" />
<glyph unicode="E" horiz-adv-x="1122" d="M170 0v1366h864v-149h-694v-437h551v-139h-551v-491h713v-150h-883z" />
<glyph unicode="F" horiz-adv-x="1040" d="M170 0v1366h836v-149h-666v-433h553v-137h-553v-647h-170z" />
<glyph unicode="G" horiz-adv-x="1325" d="M86 668q0 326 163 525.5t429 199.5q231 0 371 -158q76 -88 118 -238l-161 -39q-31 121 -88 183q-100 106 -256 106q-96 0 -175 -46t-125 -130q-90 -162 -90 -397q0 -231 88 -387q47 -82 131 -129t181 -47q152 0 244 99t92 261q0 45 -2 74h-336v143h512v-706h-107l-45 172 q-74 -96 -163 -139.5t-218 -43.5q-236 0 -389 174q-174 203 -174 523z" />
<glyph unicode="H" horiz-adv-x="1316" d="M170 0v1366h170v-565h635v565h170v-1366h-170v651h-635v-651h-170z" />
<glyph unicode="I" horiz-adv-x="512" d="M170 0v1366h170v-1366h-170z" />
<glyph unicode="J" horiz-adv-x="763" d="M0 0v139q102 -18 182 -18q156 0 213 78q27 35 35 74.5t8 144.5v948h170v-948q0 -227 -100 -336t-311 -109q-88 0 -197 27z" />
<glyph unicode="K" horiz-adv-x="1286" d="M170 0v1366h170v-793l618 793h185l-371 -479l477 -887h-188l-408 754l-313 -389v-365h-170z" />
<glyph unicode="L" horiz-adv-x="1003" d="M170 0v1366h174v-1216h631v-150h-805z" />
<glyph unicode="M" horiz-adv-x="1658" d="M170 0v1366h254l410 -1092l403 1092h250v-1366h-166v1192l-442 -1192h-117l-447 1192v-1192h-145z" />
<glyph unicode="N" horiz-adv-x="1345" d="M170 0v1366h213l661 -1114l-2 94q-2 51 -2 100v920h136v-1366h-166l-707 1190l2 -90q2 -45 2 -86v-1014h-137z" />
<glyph unicode="O" horiz-adv-x="1292" d="M86 680q0 315 155.5 514t405.5 199q252 0 405.5 -194.5t153.5 -514.5q0 -324 -182 -539q-145 -172 -381 -172q-244 0 -389 177q-168 209 -168 530zM264 678q0 -256 104.5 -410.5t278.5 -154.5q172 0 276.5 156.5t104.5 416.5q0 266 -101.5 416.5t-281.5 150.5 q-174 0 -277.5 -156.5t-103.5 -418.5z" />
<glyph unicode="P" horiz-adv-x="1144" d="M170 0v1366h483q186 0 293 -86q68 -53 109 -140t41 -182q0 -176 -119 -289.5t-305 -113.5h-332v-555h-170zM340 696h313q121 0 195 72t74 190q0 117 -72 191t-184 74h-326v-527z" />
<glyph unicode="Q" horiz-adv-x="1304" d="M86 678q0 322 156.5 518.5t410.5 196.5q256 0 412 -193.5t156 -509.5q0 -348 -189 -549q-86 -98 -237 -141v-33q0 -53 30 -92q41 -55 156 -55q80 0 152 12v-137q-90 -23 -148 -23q-154 0 -237 72q-78 68 -93 233q-113 8 -182.5 31t-136.5 74q-250 188 -250 596zM268 672 q0 -258 99.5 -404.5t273.5 -146.5q186 0 290.5 147.5t104.5 409.5q0 272 -99.5 418.5t-281.5 146.5q-190 0 -284 -139q-102 -156 -103 -432z" />
<glyph unicode="R" horiz-adv-x="1255" d="M170 0v1366h537q193 0 312.5 -106.5t119.5 -276.5q0 -147 -95 -252q-51 -59 -159 -98l268 -633h-180l-252 592h-391v-592h-160zM330 731h356q139 0 213 76q70 74 70 180.5t-71 168t-191 61.5h-377v-486z" />
<glyph unicode="S" horiz-adv-x="1165" d="M20 365l154 32q94 -278 402 -278h2q154 0 240.5 66.5t86.5 183.5q0 78 -54 134t-155 81l-272 69q-150 35 -225 103q-111 104 -111 264q0 168 127 270.5t334 102.5q373 0 487 -336l-153 -43q-25 94 -86 147q-104 92 -254 92q-125 0 -207 -63.5t-82 -159.5q0 -82 52 -130 t171 -77l254 -61q352 -84 352 -377q0 -188 -138 -300t-367 -112q-250 0 -400 136q-95 88 -158 256z" />
<glyph unicode="T" horiz-adv-x="993" d="M20 1217v149h953v-149h-391v-1217h-170v1217h-392z" />
<glyph unicode="U" horiz-adv-x="1241" d="M150 473v893h169v-893q0 -176 56 -250q78 -100 254 -100q168 0 252 100q68 80 67 250v893h142v-893q0 -217 -93 -338q-121 -162 -383 -162q-270 0 -383 162q-81 120 -81 333v5z" />
<glyph unicode="V" horiz-adv-x="1099" d="M6 1366h178l381 -1126l377 1126h150l-461 -1366h-164z" />
<glyph unicode="W" horiz-adv-x="1673" d="M39 1366h176l274 -1106l291 1106h138l313 -1106l254 1106h149l-327 -1366h-172l-297 1059l-279 -1059h-174z" />
<glyph unicode="X" horiz-adv-x="1064" d="M4 0l438 707l-391 659h191l301 -506l305 506h156l-383 -625l438 -741h-193l-346 582l-356 -582h-160z" />
<glyph unicode="Y" horiz-adv-x="1044" d="M-20 1366h200l363 -629l364 629h156l-457 -791v-575h-170v575z" />
<glyph unicode="Z" horiz-adv-x="1067" d="M55 0v145l742 1072h-707v139h905v-113l-749 -1098h772v-145h-963z" />
<glyph unicode="[" horiz-adv-x="600" d="M162 -342v1708h354v-102h-217v-1497h217v-109h-354z" />
<glyph unicode="\" horiz-adv-x="929" d="M68 1366h133l825 -1708h-135z" />
<glyph unicode="]" horiz-adv-x="600" d="M84 -240h217v1497h-217v109h354v-1708h-354v102z" />
<glyph unicode="^" horiz-adv-x="1024" d="M51 745l361 625h202l361 -625h-166l-297 504l-295 -504h-166z" />
<glyph unicode="_" horiz-adv-x="1024" d="M0 -135h1024v-137h-1024v137z" />
<glyph unicode="`" horiz-adv-x="1024" d="M188 1356l62 121l395 -230l-41 -80z" />
<glyph unicode="a" horiz-adv-x="1083" d="M68 279q0 86 46 161.5t124 114.5q139 74 405 74q68 0 131 -4v32q0 143 -59.5 202t-204.5 59q-229 0 -270 -185l-146 25q18 100 76 157q121 123 375 123q225 0 313 -118q68 -92 68 -295v-428v-9q0 -107 22 -188h-155q-8 39 -19 182q-61 -113 -143 -161t-211 -48 q-156 0 -254 85t-98 221zM236 274q0 -82 58 -131t157 -49q137 0 231 100.5t94 245.5q0 39 -2 66q-111 4 -133 4q-197 0 -301 -60.5t-104 -175.5z" />
<glyph unicode="b" horiz-adv-x="1099" d="M158 0v1366h157v-524q61 104 130 149t167 45q182 0 296 -145.5t114 -381t-117 -386t-299 -150.5q-199 0 -315 195l-58 -168h-75zM315 395q12 -121 62 -188q37 -47 95 -76t118 -29q121 0 193.5 105.5t72.5 281.5q0 203 -82 324q-63 94 -184 94q-111 0 -195 -94 q-62 -71 -80 -190v-228z" />
<glyph unicode="c" horiz-adv-x="954" d="M78 504q0 240 118.5 386t315.5 146q156 0 254 -90t129 -262l-141 -27q-16 98 -54 154q-70 96 -190 96q-125 0 -196.5 -107.5t-71.5 -291.5q0 -190 70.5 -298t195.5 -108q197 0 246 252l141 -24q-18 -92 -44 -145.5t-75 -102.5q-106 -109 -272 -109q-195 0 -310.5 144.5 t-115.5 386.5z" />
<glyph unicode="d" horiz-adv-x="1101" d="M76 496q0 240 115.5 390t297.5 150q94 0 162 -36.5t135 -127.5v494h158v-1366h-143v172q-63 -109 -137 -155t-183 -46q-178 0 -291.5 147.5t-113.5 377.5zM248 516q0 -197 68.5 -306.5t191.5 -109.5q115 0 205 103q63 76 73 207v211q-10 125 -59 186q-35 47 -94.5 75.5 t-118.5 28.5q-121 0 -193.5 -107.5t-72.5 -287.5z" />
<glyph unicode="e" horiz-adv-x="1064" d="M78 500q0 238 131 387t338 149q127 0 227 -61.5t154 -171.5q57 -121 59 -311h-735q0 -152 41 -236q33 -70 104.5 -112t153.5 -42q131 0 211 93q30 32 61 106l146 -31q-49 -139 -162 -218t-266 -79q-207 0 -335 145.5t-128 381.5zM260 608h555q-2 121 -57 201 q-76 106 -209 106q-131 0 -217 -104q-58 -74 -72 -203z" />
<glyph unicode="f" horiz-adv-x="614" d="M6 887v123h178q4 152 33 225q27 74 98.5 117t169.5 43q51 0 150 -15v-127q-51 14 -94 15q-158 0 -193 -97q-14 -31 -16 -54t-2 -107h245v-123h-245v-887h-146v887h-178z" />
<glyph unicode="g" horiz-adv-x="1005" d="M51 -115q0 141 154 201q-55 41 -77 76t-22 88q0 61 31 101t109 77q-70 61 -100.5 122.5t-30.5 145.5q0 147 109.5 245.5t275.5 98.5q113 0 207 -47q14 86 63 131q45 45 170 45q21 0 41 -2v-125h-15q-88 0 -126 -22q-41 -25 -52 -92q96 -113 97 -244q0 -147 -108.5 -241.5 t-278.5 -94.5q-39 0 -70 6q-55 10 -66 11q-41 0 -73.5 -30t-32.5 -67q0 -49 51 -73q41 -18 262 -27q160 -4 226.5 -15.5t113.5 -43.5q111 -70 111 -201q0 -289 -508 -289q-225 0 -343 67.5t-118 198.5zM203 -98q0 -55 37 -86q88 -76 284 -76q125 0 240 37q106 35 106 125 q0 66 -69 96q-37 16 -74 20.5t-170 8.5q-158 4 -244 14q-63 -31 -86.5 -61.5t-23.5 -77.5zM276 690.5q0 -100.5 61.5 -161t164.5 -60.5q98 0 161.5 61.5t63.5 155.5q0 98 -63.5 163.5t-159.5 65.5q-100 0 -164 -62t-64 -162.5z" />
<glyph unicode="h" horiz-adv-x="1105" d="M158 0v1366h157v-543q61 115 133 165t177 50q176 0 264 -133q39 -55 50 -110.5t11 -182.5v-612h-157v612q0 131 -20.5 182.5t-69 82t-107.5 30.5q-113 0 -197 -96t-84 -266v-545h-157z" />
<glyph unicode="i" horiz-adv-x="468" d="M150 1192v174h169v-174h-169zM156 0v1010h157v-1010h-157z" />
<glyph unicode="j" horiz-adv-x="468" d="M-125 -205q68 -16 115 -16q88 0 127 44t39 144v1055h157v-1055q0 -317 -295 -317q-47 0 -143 20v125zM143 1192v174h179v-174h-179z" />
<glyph unicode="k" horiz-adv-x="1026" d="M158 0v1366h157v-874l469 518h168l-315 -357l356 -653h-164l-294 563l-220 -252v-311h-157z" />
<glyph unicode="l" horiz-adv-x="471" d="M158 0v1366h157v-1366h-157z" />
<glyph unicode="m" horiz-adv-x="1667" d="M158 0v1010h135v-195q109 221 311 221q106 0 180 -63.5t103 -177.5q104 241 317 241h2q80 0 148.5 -39t109.5 -104q47 -76 47 -266v-627h-153v627q0 129 -33 184q-25 41 -69 65.5t-93 24.5q-98 0 -180 -88q-78 -88 -78 -244v-569h-151v664q0 111 -47 170q-60 73 -150 73 h-2q-104 0 -176 -88t-72 -215v-604h-149z" />
<glyph unicode="n" horiz-adv-x="1110" d="M158 0v1010h145v-187q78 121 148.5 167t175.5 46q199 0 291 -176q36 -70 36 -265v-11v-584h-147v649q0 123 -53.5 187.5t-155.5 64.5q-123 0 -203 -98t-80 -248v-555h-157z" />
<glyph unicode="o" horiz-adv-x="1062" d="M78 508q0 236 127 382t330 146q205 0 327.5 -147.5t122.5 -394.5q0 -227 -131 -374t-336 -147q-199 0 -319.5 146.5t-120.5 388.5zM250 510q0 -195 73.5 -301.5t207 -106.5t208 106.5t74.5 293.5q0 195 -72 297q-82 108 -213 108t-209 -110q-69 -99 -69 -282v-5z" />
<glyph unicode="p" horiz-adv-x="1093" d="M158 -342v1352h141v-197q59 117 135 170t182 53q180 0 291 -146.5t111 -384t-111.5 -385t-292.5 -147.5q-98 0 -166.5 41t-132.5 140v-496h-157zM315 367q18 -115 95 -190t174 -75q51 0 102 27t84 68q76 96 76 299q0 190 -69.5 296.5t-192.5 106.5q-94 0 -166 -66.5 t-103 -183.5v-282z" />
<glyph unicode="q" horiz-adv-x="1097" d="M78 498q0 242 114.5 391t301.5 149q104 0 169.5 -42t135.5 -152l61 180h80v-1366h-158v526q-100 -211 -305 -211q-180 0 -289.5 144.5t-109.5 380.5zM250 504q0 -182 70.5 -288.5t189.5 -106.5q143 0 221 141q41 72 51 199v135q-10 94 -26.5 144t-55.5 93q-80 86 -188 86 q-119 0 -190.5 -110.5t-71.5 -292.5z" />
<glyph unicode="r" horiz-adv-x="673" d="M158 0v1010h137v-236q59 121 104 176q74 88 199 88q12 0 57 -4v-149q-15 1 -30 1q-123 0 -209 -90q-96 -100 -101 -261v-535h-157z" />
<glyph unicode="s" horiz-adv-x="950" d="M20 262l150 31q23 -80 66 -115q92 -76 247 -76q106 0 172 45.5t66 118.5q0 121 -174 156l-213 39q-129 25 -201 98.5t-72 179.5q0 133 104.5 215t276.5 82q322 0 398 -256l-144 -30q-68 157 -256 157h-2q-98 0 -157.5 -41t-59.5 -108q0 -111 158 -142l199 -34 q307 -55 307 -299q0 -139 -115 -224.5t-301 -85.5q-217 0 -344 113q-72 61 -105 176z" />
<glyph unicode="t" horiz-adv-x="630" d="M-2 887v123h178l6 254l148 12v-266h227v-123h-227v-633q0 -158 164 -158q54 1 120 13v-125q-84 -12 -149 -13q-289 0 -289 308v608h-178z" />
<glyph unicode="u" horiz-adv-x="1107" d="M158 365v645h157v-645q0 -133 52 -193q57 -70 147 -70q117 0 199 99.5t82 238.5v570h157v-1010h-141v193q-111 -219 -322 -220q-154 0 -242.5 104.5t-88.5 287.5z" />
<glyph unicode="v" horiz-adv-x="921" d="M25 1010h174l280 -822l279 822h139l-348 -1010h-164z" />
<glyph unicode="w" horiz-adv-x="1359" d="M39 1010h158l219 -752l211 752h114l226 -756l227 756h127l-291 -1010h-127l-225 750l-207 -750h-129z" />
<glyph unicode="x" horiz-adv-x="868" d="M6 0l340 524l-307 486h180l217 -344l219 344h152l-295 -453l348 -557h-182l-256 410l-262 -410h-154z" />
<glyph unicode="y" horiz-adv-x="849" d="M10 1010h160l270 -760l277 760h133l-406 -1129q-51 -141 -139 -203q-52 -38 -153 -38h-5q-47 0 -118 16v125q70 -14 104 -14q106 0 160 86q31 49 67 165z" />
<glyph unicode="z" horiz-adv-x="866" d="M68 0v121l536 766h-495v123h702v-86l-555 -803h555v-121h-743z" />
<glyph unicode="{" horiz-adv-x="600" d="M119 465v98q63 16 90 58.5t27 121.5v355q0 141 66.5 204.5t215.5 63.5h43v-106q-111 -2 -149.5 -39.5t-38.5 -139.5v-346q0 -94 -28 -142t-99 -83q70 -33 98.5 -85t28.5 -144v-332q0 -109 38 -145.5t150 -39.5v-106h-43q-154 0 -218 66.5t-64 226.5v328q0 84 -27 127 t-90 59z" />
<glyph unicode="|" horiz-adv-x="1024" d="M436 -342v1708h154v-1708h-154z" />
<glyph unicode="}" horiz-adv-x="600" d="M41 -236q111 2 149.5 39.5t38.5 139.5v346q0 94 28 142t99 83q-70 33 -98.5 85t-28.5 144v332q0 109 -37.5 145.5t-150.5 39.5v106h43q154 0 218.5 -66.5t64.5 -226.5v-328q0 -84 26.5 -127t89.5 -59v-98q-63 -16 -89.5 -58.5t-26.5 -121.5v-355q0 -141 -67 -204.5 t-216 -63.5h-43v106z" />
<glyph unicode="~" d="M109 586q59 127 124.5 182t155.5 55q84 0 229 -69q135 -63 199 -64q57 0 98 31t86 106l93 -55q-57 -109 -115 -164q-72 -68 -168 -67q-82 0 -254 82q-113 53 -180 53q-51 0 -92 -34t-86 -116z" />
<glyph unicode="&#xa1;" horiz-adv-x="550" d="M158 -342l78 1026h83l74 -1026h-235zM172 799v211h209v-211h-209z" />
<glyph unicode="&#xa2;" d="M197 696q0 248 143 381q78 72 215 97v249h113v-249q125 -14 213 -99.5t110 -212.5l-137 -26q-16 88 -70.5 152.5t-115.5 68.5v-709q70 12 120 70.5t66 144.5l137 -20q-63 -279 -323 -318v-282h-113v282q-133 25 -209 92q-150 137 -149 379zM354 694q0 -287 201 -346v705 q-94 -18 -147.5 -112.5t-53.5 -246.5z" />
<glyph unicode="&#xa3;" d="M-4 0v147l49 3q104 2 158.5 18t103.5 63q86 84 86 222q0 66 -18 196h-219v117h206q-18 113 -18 192q0 193 103.5 314t269.5 121q190 0 327 -187l-112 -86q-61 78 -105.5 106.5t-101.5 28.5q-88 0 -145.5 -68.5t-57.5 -170.5q0 -76 13 -174q2 -14 8 -76h293v-117h-279 q6 -102 6 -141q0 -123 -37 -205t-123 -153h320q133 0 205 33.5t121 121.5l131 -84q-53 -106 -144.5 -163.5t-210.5 -57.5h-829z" />
<glyph unicode="&#xa4;" horiz-adv-x="1366" d="M100 1227l93 92l196 -197q92 59 152.5 81t142.5 22t141.5 -20.5t149.5 -80.5l196 195l93 -92l-197 -195q59 -88 80.5 -149.5t21.5 -141.5q0 -78 -21.5 -139t-78.5 -149l197 -197l-90 -92l-197 196q-150 -102 -293 -102q-137 0 -295 100l-196 -194l-91 92l195 195 q-102 145 -102 292q0 137 100 287zM338 741q0 -143 101.5 -244.5t242.5 -101.5q143 0 244.5 101.5t101.5 244.5q0 141 -100.5 243.5t-239.5 102.5q-147 0 -248.5 -100t-101.5 -246z" />
<glyph unicode="&#xa5;" d="M59 1366h201l363 -629l364 629h156l-299 -520h252v-117h-322l-88 -158l410 -2v-118h-412v-451h-164v451h-414v118l412 2l-90 158h-322v117h254z" />
<glyph unicode="&#xa6;" horiz-adv-x="1024" d="M436 313h154v-655h-154v655zM436 682v684h154v-684h-154z" />
<glyph unicode="&#xa7;" d="M135 -72l176 25q37 -78 88 -119q96 -74 222 -74q121 0 202.5 62.5t81.5 154.5q0 137 -211 195l-207 55q-162 43 -235.5 114t-73.5 181q0 90 44 158t149 137q-88 51 -126 113.5t-38 150.5q0 143 104.5 228.5t280.5 85.5q158 0 264.5 -69t149.5 -198l-152 -18 q-74 170 -266 170q-100 0 -164 -49t-64 -125q0 -147 244 -217l184 -51q117 -33 183.5 -108t66.5 -173q0 -74 -37.5 -136.5t-126.5 -137.5q195 -92 195 -281q0 -160 -131 -265.5t-330 -105.5q-213 0 -346 113q-78 65 -127 184zM336 569q0 -131 217 -192l197 -55 q141 74 141 192q0 59 -49 110t-129 76l-221 68q-156 -82 -156 -199z" />
<glyph unicode="&#xa8;" horiz-adv-x="1024" d="M248 1305q0 43 29.5 72.5t72.5 29.5q41 0 72 -29.5t31 -72.5q0 -41 -31 -72t-72 -31q-43 0 -72.5 30t-29.5 73zM565 1307q0 43 31 72.5t74 29.5q41 0 71.5 -30.5t30.5 -71.5q0 -43 -30.5 -74t-73.5 -31q-41 0 -72 31t-31 74z" />
<glyph unicode="&#xa9;" horiz-adv-x="1583" d="M86 688q0 291 209 496t508 205q285 0 489.5 -209t204.5 -496q0 -293 -206 -500t-498 -207q-295 0 -501 207t-206 504zM186 688q0 -256 176.5 -433t430.5 -177q250 0 427 177t177 429q0 246 -177 425t-419 179q-276 0 -459 -201q-156 -172 -156 -399zM422 690 q0 190 99.5 304t264.5 114q252 0 320 -270l-121 -23q-31 102 -78 148.5t-123 46.5q-106 0 -165.5 -88t-59.5 -242q0 -150 60.5 -238t160.5 -88q78 0 133.5 53.5t75.5 151.5l117 -24q-76 -279 -326 -279q-162 0 -260 120t-98 314z" />
<glyph unicode="&#xaa;" horiz-adv-x="714" d="M49 938q0 53 31 98t82 72q90 43 258 43h69q2 88 -30.5 122t-120.5 34q-74 0 -108.5 -25t-51.5 -84l-112 19q12 55 32 81q72 94 256 95q137 0 194.5 -56.5t57.5 -193.5v-254q1 -60 17 -123h-121q-6 39 -10 82q-68 -98 -211 -98q-102 0 -167 52t-65 136zM176 934 q0 -45 33 -71.5t90 -26.5q82 0 137.5 56t55.5 140q-1 21 -3 33l-71 2q-242 0 -242 -133z" />
<glyph unicode="&#xab;" horiz-adv-x="704" d="M82 532l172 283h90l-106 -283l106 -292h-90zM344 532l172 283h92l-106 -283l106 -292h-90z" />
<glyph unicode="&#xac;" d="M158 408v137h886v-545h-153v408h-733z" />
<glyph unicode="&#xad;" horiz-adv-x="512" d="M31 451v122h452v-122h-452z" />
<glyph unicode="&#xae;" horiz-adv-x="1583" d="M86 688q0 291 209 496t508 205q285 0 489.5 -209t204.5 -496q0 -293 -206 -500t-498 -207q-295 0 -501 207t-206 504zM186 688q0 -256 176.5 -433t430.5 -177q250 0 427 177t177 429q0 246 -177 425t-419 179q-276 0 -459 -201q-156 -172 -156 -399zM487 272v820h347 q123 0 200.5 -65.5t77.5 -168.5q0 -156 -158 -211l170 -375h-135l-155 349h-226v-349h-121zM608 717h211q76 0 120 39t44 104q0 59 -40 94t-109 35h-226v-272z" />
<glyph unicode="&#xaf;" horiz-adv-x="1024" d="M201 1237v109h620v-109h-620z" />
<glyph unicode="&#xb0;" d="M330 1122q0 113 79.5 192t192.5 79t191.5 -79t78.5 -192q0 -115 -79.5 -192.5t-196.5 -77.5q-109 0 -187.5 80t-78.5 190zM446 1122.5q0 -63.5 44.5 -108.5t107.5 -45q66 0 112 45t46 110q0 63 -46 108.5t-109.5 45.5t-109 -46t-45.5 -109.5z" />
<glyph unicode="&#xb1;" d="M123 -41v140h956v-140h-956zM123 614v140h403v420h150v-420h403v-140h-403v-419h-150v419h-403z" />
<glyph unicode="&#xb2;" horiz-adv-x="792" d="M80 1135q63 248 313 247q129 0 215 -71.5t86 -177.5q0 -104 -99 -212t-349 -278h450v-96h-614v92q315 225 404 313t89 178q0 68 -53 113t-131 45q-84 0 -137 -49t-61 -137z" />
<glyph unicode="&#xb3;" horiz-adv-x="792" d="M51 739l113 35q27 -82 77 -114.5t146 -32.5q92 0 146.5 40t54.5 107q0 72 -58.5 112t-162.5 40h-105v92h105q90 0 140 36t50 99q0 59 -47 97t-123 38q-143 0 -197 -133l-108 29q84 199 313 198q123 0 203 -63.5t80 -159.5q0 -133 -139 -182q80 -18 126 -71.5t46 -129.5 q0 -109 -91.5 -177.5t-238.5 -68.5q-246 0 -330 209z" />
<glyph unicode="&#xb4;" horiz-adv-x="1024" d="M379 1247l395 230l62 -121l-414 -189z" />
<glyph unicode="&#xb5;" d="M203 -342v1352h157v-568q0 -150 50 -225q68 -104 186 -104q135 0 199 114q45 76 45 230v553h157v-1010h-143v158q-55 -102 -111.5 -143.5t-142.5 -41.5q-154 0 -240 158v-473h-157z" />
<glyph unicode="&#xb6;" d="M74 1026q0 100 43 181t116 120q78 39 271 39h581v-96h-137v-1612h-100v1612h-96v-1612h-101v1067h-149q-195 0 -273 35q-156 74 -155 266zM240 1040q0 -117 63.5 -168t206.5 -51h141v449h-110q-111 0 -162 -12.5t-84 -47.5q-55 -51 -55 -170z" />
<glyph unicode="&#xb7;" horiz-adv-x="223" d="M0 408v223h224v-223h-224z" />
<glyph unicode="&#xb8;" horiz-adv-x="1024" d="M307 -328l25 66q74 -37 139 -37q47 0 75.5 19.5t28.5 52.5q0 70 -122 69q-2 0 -68 -4l53 162h66l-27 -92q78 -4 119 -21q35 -14 57.5 -45.5t22.5 -68.5q0 -68 -51.5 -107t-141.5 -39q-98 0 -176 45z" />
<glyph unicode="&#xb9;" horiz-adv-x="792" d="M154 1065v117q162 82 262 200h86v-747h209v-88h-551v88h225v600q-109 -106 -231 -170z" />
<glyph unicode="&#xba;" horiz-adv-x="704" d="M57 1075q0 139 82 228.5t213 89.5q133 0 213 -89.5t80 -236.5q0 -137 -85 -226t-218 -89q-129 0 -207 89t-78 234zM186 1075q0 -113 43 -173t121 -60t122 60.5t44 169t-44 170t-122 61.5t-121 -60.5t-43 -167.5z" />
<glyph unicode="&#xbb;" horiz-adv-x="704" d="M96 240l107 282l-107 293h92l172 -293l-172 -282h-92zM360 240l107 282l-107 293h91l172 -293l-172 -282h-91z" />
<glyph unicode="&#xbc;" horiz-adv-x="1802" d="M102 1065v117q162 82 263 200h86v-747h208v-88h-550v88h225v600q-109 -106 -232 -170zM412 0l827 1366h123l-825 -1366h-125zM1051 190v78l389 568h143v-551h139v-95h-139v-190h-117v190h-415zM1180 285h286v374v62q-18 -35 -30 -51z" />
<glyph unicode="&#xbd;" horiz-adv-x="1802" d="M88 1065v117q162 82 262 200h86v-747h209v-88h-551v88h225v600q-109 -106 -231 -170zM397 0l828 1366h123l-826 -1366h-125zM1100 586q63 250 313 250q129 0 216 -72t87 -178q0 -104 -100 -214t-350 -276h452v-96h-616v92q315 225 404 313.5t89 178.5q0 68 -53 112.5 t-131 44.5q-84 0 -136 -49t-61 -137z" />
<glyph unicode="&#xbe;" horiz-adv-x="1802" d="M41 739l113 35q27 -82 77 -114.5t146 -32.5q92 0 146.5 40t54.5 107q0 72 -58.5 112t-163.5 40h-104v92h104q90 0 140.5 36t50.5 99q0 59 -47 97t-123 38q-143 0 -197 -133l-108 29q84 199 313 198q123 0 203 -63.5t80 -159.5q0 -133 -140 -182q80 -18 126 -71.5 t46 -129.5q0 -109 -91 -177.5t-238 -68.5q-248 0 -330 209zM481 0l826 1366h125l-826 -1366h-125zM1077 190v78l391 568h144v-551h137v-95h-137v-190h-117v190h-418zM1206 285h289v374v62l-31 -51z" />
<glyph unicode="&#xbf;" horiz-adv-x="1034" d="M82 20q0 219 256 357q117 66 140.5 96.5t21.5 120.5q-2 41 -2 90h145q-2 -20 -2 -45q2 -106 -2 -143t-23 -82q-27 -61 -81 -92l-132 -74q-143 -82 -143 -234q0 -106 78 -174.5t199 -68.5q150 0 229 102q51 66 80 193l147 -31q-29 -172 -123 -271q-125 -133 -342 -133 q-199 0 -322.5 107.5t-123.5 281.5zM465 813v197h203v-197h-203z" />
<glyph unicode="&#xc0;" horiz-adv-x="1128" d="M6 0l443 1366h196l445 -1366h-177l-137 399h-506l-120 -399h-144zM221 1671l62 119l395 -215l-43 -80zM319 528h420l-209 656z" />
<glyph unicode="&#xc1;" horiz-adv-x="1128" d="M6 0l443 1366h196l445 -1366h-177l-137 399h-506l-120 -399h-144zM319 528h420l-209 656zM416 1575l395 215l61 -119l-415 -176z" />
<glyph unicode="&#xc2;" horiz-adv-x="1128" d="M6 0l443 1366h196l445 -1366h-177l-137 399h-506l-120 -399h-144zM217 1522l334 245l328 -245l-142 -21l-190 121l-185 -121zM319 528h420l-209 656z" />
<glyph unicode="&#xc3;" horiz-adv-x="1128" d="M6 0l443 1366h196l445 -1366h-177l-137 399h-506l-120 -399h-144zM207 1593q86 127 223 127q33 0 55.5 -6t118.5 -47q43 -18 86 -18q60 0 123 53l76 -74q-63 -57 -106.5 -78.5t-98.5 -21.5q-33 0 -54.5 7t-115.5 48q-43 18 -90 19q-76 0 -133 -68zM319 528h420l-209 656z " />
<glyph unicode="&#xc4;" horiz-adv-x="1128" d="M6 0l443 1366h196l445 -1366h-177l-137 399h-506l-120 -399h-144zM283 1624q0 43 29.5 72.5t72.5 29.5q41 0 71.5 -29.5t30.5 -72.5q0 -41 -30.5 -71.5t-71.5 -30.5q-43 0 -72.5 29.5t-29.5 72.5zM319 528h420l-209 656zM602 1626q0 43 31 73t74 30q41 0 71.5 -31 t30.5 -72q0 -43 -30.5 -73.5t-73.5 -30.5q-41 0 -72 30.5t-31 73.5z" />
<glyph unicode="&#xc5;" horiz-adv-x="1128" d="M6 0l443 1366h196l445 -1366h-177l-137 399h-506l-120 -399h-144zM319 528h420l-209 656zM369 1636q0 76 53 128.5t131 52.5q72 0 124 -53.5t52 -129.5q0 -74 -52 -126t-126 -52q-76 0 -129 53.5t-53 126.5zM459 1636q0 -39 26.5 -65.5t65.5 -26.5q37 0 62.5 26.5 t25.5 63.5q0 39 -25.5 65.5t-62.5 26.5q-39 0 -65.5 -26.5t-26.5 -63.5z" />
<glyph unicode="&#xc6;" horiz-adv-x="1855" d="M-27 0l813 1366h977v-141h-743v-443h600v-137h-600v-495h768v-150h-938v422h-459l-252 -422h-166zM465 555h385v662z" />
<glyph unicode="&#xc7;" horiz-adv-x="1185" d="M86 696q0 317 154.5 507t412.5 190q385 0 492 -439l-160 -32q-51 172 -130 248.5t-204 76.5q-178 0 -278.5 -151.5t-100.5 -419.5q0 -256 101.5 -407.5t271.5 -151.5q74 0 142.5 33.5t109.5 91.5q53 74 92 217l156 -35q-109 -449 -496 -453l-24 -77l34 2q78 0 130.5 -43 t52.5 -109q0 -72 -58.5 -114t-159 -42t-192.5 50l25 71q86 -39 153 -39q117 0 117 78t-135 78q-20 0 -76 -6l53 157q-217 27 -350 223.5t-133 495.5z" />
<glyph unicode="&#xc8;" horiz-adv-x="1122" d="M170 0v1366h864v-149h-694v-437h551v-139h-551v-491h713v-150h-883zM322 1671l61 119l395 -215l-41 -80z" />
<glyph unicode="&#xc9;" horiz-adv-x="1122" d="M170 0v1366h864v-149h-694v-437h551v-139h-551v-491h713v-150h-883zM451 1575l397 215l61 -119l-415 -176z" />
<glyph unicode="&#xca;" horiz-adv-x="1122" d="M170 0v1366h864v-149h-694v-437h551v-139h-551v-491h713v-150h-883zM272 1522l336 245l328 -245l-141 -21l-191 121l-184 -121z" />
<glyph unicode="&#xcb;" horiz-adv-x="1122" d="M170 0v1366h864v-149h-694v-437h551v-139h-551v-491h713v-150h-883zM340 1624q0 43 29.5 72.5t72.5 29.5q41 0 72 -29.5t31 -72.5q0 -41 -31 -72t-72 -31q-43 0 -72.5 30t-29.5 73zM657 1626q0 43 31 72.5t74 29.5q41 0 71.5 -30.5t30.5 -71.5q0 -43 -30.5 -74t-73.5 -31 q-41 0 -72 31t-31 74z" />
<glyph unicode="&#xcc;" horiz-adv-x="512" d="M-27 1675l62 115l354 -215l-41 -80zM172 0v1366h170v-1366h-170z" />
<glyph unicode="&#xcd;" horiz-adv-x="512" d="M123 1575l354 215l62 -115l-373 -180zM170 0v1366h170v-1366h-170z" />
<glyph unicode="&#xce;" horiz-adv-x="512" d="M-35 1522l293 245l289 -245l-135 -21l-156 121l-152 -121zM170 0v1366h170v-1366h-170z" />
<glyph unicode="&#xcf;" horiz-adv-x="512" d="M12 1624q0 43 30 72.5t73 29.5q41 0 71.5 -29.5t30.5 -72.5q0 -41 -30.5 -71.5t-71.5 -30.5q-43 0 -73 29.5t-30 72.5zM170 0v1366h170v-1366h-170zM287 1626q0 43 30.5 73t73.5 30q41 0 72 -31t31 -72q0 -43 -31 -73.5t-74 -30.5q-41 0 -71.5 30.5t-30.5 73.5z" />
<glyph unicode="&#xd0;" horiz-adv-x="1325" d="M35 655v138h137v573h455q248 0 405 -149q207 -197 207 -529q0 -297 -157.5 -492.5t-397.5 -195.5h-512v655h-137zM342 145h276q193 0 300 113q70 72 108.5 187.5t38.5 242.5q0 256 -143 416q-111 119 -306 119h-274v-430h326v-138h-326v-510z" />
<glyph unicode="&#xd1;" horiz-adv-x="1345" d="M170 0v1366h213l661 -1114l-2 94q-2 51 -2 100v920h136v-1366h-166l-707 1190l2 -90q2 -45 2 -86v-1014h-137zM338 1593q86 127 223 127q35 0 56.5 -6t117.5 -47q43 -18 86 -18q60 0 123 53l78 -74q-63 -57 -107.5 -78.5t-99.5 -21.5q-33 0 -53.5 7t-116.5 48 q-41 18 -90 19q-76 0 -133 -68z" />
<glyph unicode="&#xd2;" horiz-adv-x="1292" d="M86 680q0 315 155.5 514t405.5 199q252 0 405.5 -194.5t153.5 -514.5q0 -324 -182 -539q-145 -172 -381 -172q-244 0 -389 177q-168 209 -168 530zM264 678q0 -256 104.5 -410.5t278.5 -154.5q172 0 276.5 156.5t104.5 416.5q0 266 -101.5 416.5t-281.5 150.5 q-174 0 -277.5 -156.5t-103.5 -418.5zM350 1671l62 119l395 -215l-43 -80z" />
<glyph unicode="&#xd3;" horiz-adv-x="1292" d="M86 680q0 315 155.5 514t405.5 199q252 0 405.5 -194.5t153.5 -514.5q0 -324 -182 -539q-145 -172 -381 -172q-244 0 -389 177q-168 209 -168 530zM264 678q0 -256 104.5 -410.5t278.5 -154.5q172 0 276.5 156.5t104.5 416.5q0 266 -101.5 416.5t-281.5 150.5 q-174 0 -277.5 -156.5t-103.5 -418.5zM500 1575l395 215l61 -119l-413 -176z" />
<glyph unicode="&#xd4;" horiz-adv-x="1292" d="M86 680q0 315 155.5 514t405.5 199q252 0 405.5 -194.5t153.5 -514.5q0 -324 -182 -539q-145 -172 -381 -172q-244 0 -389 177q-168 209 -168 530zM264 678q0 -256 104.5 -410.5t278.5 -154.5q172 0 276.5 156.5t104.5 416.5q0 266 -101.5 416.5t-281.5 150.5 q-174 0 -277.5 -156.5t-103.5 -418.5zM315 1522l334 245l330 -245l-141 -21l-191 121l-184 -121z" />
<glyph unicode="&#xd5;" horiz-adv-x="1292" d="M86 680q0 315 155.5 514t405.5 199q252 0 405.5 -194.5t153.5 -514.5q0 -324 -182 -539q-145 -172 -381 -172q-244 0 -389 177q-168 209 -168 530zM264 678q0 -256 104.5 -410.5t278.5 -154.5q172 0 276.5 156.5t104.5 416.5q0 266 -101.5 416.5t-281.5 150.5 q-174 0 -277.5 -156.5t-103.5 -418.5zM317 1593q90 127 226 127q35 0 56.5 -6t117.5 -47q43 -18 84 -18q62 0 125 53l75 -74q-63 -57 -106 -78.5t-98 -21.5q-35 0 -55.5 7t-114.5 48q-43 18 -92 19q-74 0 -134 -68z" />
<glyph unicode="&#xd6;" horiz-adv-x="1292" d="M86 680q0 315 155.5 514t405.5 199q252 0 405.5 -194.5t153.5 -514.5q0 -324 -182 -539q-145 -172 -381 -172q-244 0 -389 177q-168 209 -168 530zM264 678q0 -256 104.5 -410.5t278.5 -154.5q172 0 276.5 156.5t104.5 416.5q0 266 -101.5 416.5t-281.5 150.5 q-174 0 -277.5 -156.5t-103.5 -418.5zM381 1624q0 43 29.5 72.5t72.5 29.5q41 0 72 -29.5t31 -72.5q0 -41 -31 -71.5t-72 -30.5q-43 0 -72.5 29.5t-29.5 72.5zM700 1626q0 43 31 73t74 30q41 0 71.5 -31t30.5 -72q0 -43 -30.5 -73.5t-73.5 -30.5q-41 0 -72 30.5t-31 73.5z " />
<glyph unicode="&#xd7;" d="M195 375l309 309l-309 309l98 99l309 -310l307 310l99 -99l-310 -309l310 -309l-99 -99l-307 310l-309 -310z" />
<glyph unicode="&#xd8;" horiz-adv-x="1292" d="M63 -49l158 242q-135 207 -135 485q0 319 155.5 517t405.5 198q178 0 328 -113l98 139h146l-158 -233q145 -195 145 -494q0 -313 -170 -530q-147 -188 -397 -189q-106 0 -179 27t-157 98l-96 -147h-144zM264 686q0 -205 68 -352l545 827q-92 92 -234 92 q-172 0 -275.5 -155.5t-103.5 -411.5zM406 223q96 -111 239 -110q176 0 270 143q113 172 113 436q0 216 -74 363z" />
<glyph unicode="&#xd9;" horiz-adv-x="1241" d="M150 473v893h169v-893q0 -176 56 -250q78 -100 254 -100q168 0 252 100q68 80 67 250v893h142v-893q0 -217 -93 -338q-121 -162 -383 -162q-270 0 -383 162q-82 121 -81 338zM317 1671l62 119l395 -215l-43 -80z" />
<glyph unicode="&#xda;" horiz-adv-x="1241" d="M150 473v893h169v-893q0 -176 56 -250q78 -100 254 -100q168 0 252 100q68 80 67 250v893h142v-893q0 -217 -93 -338q-121 -162 -383 -162q-270 0 -383 162q-82 121 -81 338zM494 1575l395 215l61 -119l-413 -176z" />
<glyph unicode="&#xdb;" horiz-adv-x="1241" d="M150 473v893h169v-893q0 -176 56 -250q78 -100 254 -100q168 0 252 100q68 80 67 250v893h142v-893q0 -217 -93 -338q-121 -162 -383 -162q-270 0 -383 162q-82 121 -81 338zM295 1522l334 245l329 -245l-141 -21l-190 121l-185 -121z" />
<glyph unicode="&#xdc;" horiz-adv-x="1241" d="M150 473v893h169v-893q0 -176 56 -250q78 -100 254 -100q168 0 252 100q68 80 67 250v893h142v-893q0 -217 -93 -338q-121 -162 -383 -162q-270 0 -383 162q-82 121 -81 338zM363 1624q0 43 29.5 72.5t72.5 29.5q41 0 72 -29.5t31 -72.5q0 -41 -31 -72t-72 -31 q-43 0 -72.5 30t-29.5 73zM680 1626q0 43 31 72.5t74 29.5q41 0 71.5 -30.5t30.5 -71.5q0 -43 -30.5 -74t-73.5 -31q-41 0 -72 31t-31 74z" />
<glyph unicode="&#xdd;" horiz-adv-x="1044" d="M-20 1366h200l363 -629l364 629h156l-457 -791v-575h-170v575zM395 1575l398 215l61 -119l-416 -176z" />
<glyph unicode="&#xde;" horiz-adv-x="1159" d="M170 0v1366h170v-199h313q186 0 293 -84q68 -53 109 -142t41 -181q0 -176 -119 -290t-305 -114h-332v-356h-170zM340 498h313q121 0 195 71.5t74 190.5q0 117 -72 190.5t-184 73.5h-326v-526z" />
<glyph unicode="&#xdf;" horiz-adv-x="1161" d="M51 791v127h107q12 188 69 299q51 100 149.5 157.5t223.5 57.5q160 0 268.5 -86t108.5 -211q0 -127 -110.5 -205t-293.5 -78q-39 0 -38 -18q0 -16 27.5 -32t115.5 -48q242 -88 336 -178.5t94 -231.5q0 -166 -122 -276.5t-306 -110.5q-86 0 -225 33l45 114q98 -20 157 -20 q119 0 199 68.5t80 171.5q0 61 -39 113t-106 83l-250 109q-156 70 -156 168q0 51 35 110q16 27 74 31q143 12 227 67.5t84 137.5q0 72 -57.5 116t-149.5 44q-131 0 -207 -89.5t-76 -242.5v-1059h-157v879h-107z" />
<glyph unicode="&#xe0;" horiz-adv-x="1083" d="M68 279q0 86 46 161.5t124 114.5q139 74 405 74q68 0 131 -4v32q0 143 -59.5 202t-204.5 59q-229 0 -270 -185l-146 25q18 100 76 157q121 123 375 123q225 0 313 -118q68 -92 68 -295v-428q-1 -113 22 -197h-155q-8 39 -19 182q-61 -113 -143 -161t-211 -48 q-156 0 -254 85t-98 221zM236 274q0 -82 58 -131t157 -49q137 0 231 100.5t94 245.5q0 39 -2 66q-111 4 -133 4q-197 0 -301 -60.5t-104 -175.5zM252 1356l61 121l396 -230l-43 -80z" />
<glyph unicode="&#xe1;" horiz-adv-x="1083" d="M68 279q0 86 46 161.5t124 114.5q139 74 405 74q68 0 131 -4v32q0 143 -59.5 202t-204.5 59q-229 0 -270 -185l-146 25q18 100 76 157q121 123 375 123q225 0 313 -118q68 -92 68 -295v-428q-1 -113 22 -197h-155q-8 39 -19 182q-61 -113 -143 -161t-211 -48 q-156 0 -254 85t-98 221zM236 274q0 -82 58 -131t157 -49q137 0 231 100.5t94 245.5q0 39 -2 66q-111 4 -133 4q-197 0 -301 -60.5t-104 -175.5zM375 1247l395 230l62 -121l-414 -189z" />
<glyph unicode="&#xe2;" horiz-adv-x="1083" d="M68 279q0 86 46 161.5t124 114.5q139 74 405 74q68 0 131 -4v32q0 143 -59.5 202t-204.5 59q-229 0 -270 -185l-146 25q18 100 76 157q121 123 375 123q225 0 313 -118q68 -92 68 -295v-428q-1 -113 22 -197h-155q-8 39 -19 182q-61 -113 -143 -161t-211 -48 q-156 0 -254 85t-98 221zM203 1194l334 260l330 -260l-142 -20l-190 135l-184 -135zM236 274q0 -82 58 -131t157 -49q137 0 231 100.5t94 245.5q0 39 -2 66q-111 4 -133 4q-197 0 -301 -60.5t-104 -175.5z" />
<glyph unicode="&#xe3;" horiz-adv-x="1083" d="M68 279q0 86 46 161.5t124 114.5q139 74 405 74q68 0 131 -4v32q0 143 -59.5 202t-204.5 59q-229 0 -270 -185l-146 25q18 100 76 157q121 123 375 123q225 0 313 -118q68 -92 68 -295v-428q-1 -113 22 -197h-155q-8 39 -19 182q-61 -113 -143 -161t-211 -48 q-156 0 -254 85t-98 221zM201 1274q86 127 223 127q35 0 56.5 -6t117.5 -47q43 -18 86 -19q57 0 123 51l76 -71q-66 -59 -108 -80t-97 -21q-35 0 -55.5 7.5t-114.5 48.5q-43 18 -92 18q-72 0 -131 -68zM236 274q0 -82 58 -131t157 -49q137 0 231 100.5t94 245.5q0 39 -2 66 q-111 4 -133 4q-197 0 -301 -60.5t-104 -175.5z" />
<glyph unicode="&#xe4;" horiz-adv-x="1083" d="M68 279q0 86 46 161.5t124 114.5q139 74 405 74q68 0 131 -4v32q0 143 -59.5 202t-204.5 59q-229 0 -270 -185l-146 25q18 100 76 157q121 123 375 123q225 0 313 -118q68 -92 68 -295v-428q-1 -113 22 -197h-155q-8 39 -19 182q-61 -113 -143 -161t-211 -48 q-156 0 -254 85t-98 221zM236 274q0 -82 58 -131t157 -49q137 0 231 100.5t94 245.5q0 39 -2 66q-111 4 -133 4q-197 0 -301 -60.5t-104 -175.5zM271 1305q0 43 29.5 72.5t72.5 29.5q41 0 72 -29.5t31 -72.5q0 -41 -31 -72t-72 -31q-43 0 -72.5 30t-29.5 73zM588 1307 q0 43 31 72.5t74 29.5q41 0 71.5 -30.5t30.5 -71.5q0 -43 -30.5 -74t-73.5 -31q-41 0 -72 31t-31 74z" />
<glyph unicode="&#xe5;" horiz-adv-x="1083" d="M68 279q0 86 46 161.5t124 114.5q139 74 405 74q68 0 131 -4v32q0 143 -59.5 202t-204.5 59q-229 0 -270 -185l-146 25q18 100 76 157q121 123 375 123q225 0 313 -118q68 -92 68 -295v-428q-1 -113 22 -197h-155q-8 39 -19 182q-61 -113 -143 -161t-211 -48 q-156 0 -254 85t-98 221zM236 274q0 -82 58 -131t157 -49q137 0 231 100.5t94 245.5q0 39 -2 66q-111 4 -133 4q-197 0 -301 -60.5t-104 -175.5zM360 1327q0 72 51.5 123t127.5 51q72 0 121 -51t49 -125q0 -72 -50.5 -122t-122 -50t-124 51t-52.5 123zM442 1327 q0 -37 28 -64.5t67 -27.5q37 0 63.5 26.5t26.5 65.5t-26.5 65.5t-63.5 26.5q-39 0 -67 -26.5t-28 -65.5z" />
<glyph unicode="&#xe6;" horiz-adv-x="1722" d="M63 272q0 92 48.5 168t136.5 119q135 66 377 66q43 0 135 -7q2 25 2 66q0 236 -258 236q-100 0 -167 -47.5t-87 -131.5l-150 27q31 113 109 174q121 94 326 94q123 0 200.5 -32.5t141.5 -112.5q133 145 327 145q244 0 367 -215q59 -111 71 -334h-731q0 -158 52 -245 q37 -63 104.5 -101.5t144.5 -38.5q94 0 159 46.5t112 148.5l141 -27q-45 -141 -157.5 -219t-266.5 -78q-139 0 -236.5 61.5t-170.5 194.5q-104 -258 -377 -258q-158 0 -255.5 83t-97.5 218zM236 283q0 -78 55 -129.5t141 -51.5q158 0 254 125q70 89 70 222v53 q-82 10 -138 10q-178 0 -280 -61.5t-102 -167.5zM918 604h552q-6 147 -75.5 228t-190.5 81q-123 0 -199.5 -83t-86.5 -226z" />
<glyph unicode="&#xe7;" horiz-adv-x="954" d="M78 502q0 242 118.5 388t315.5 146q156 0 254 -90t129 -262l-141 -27q-16 98 -54 154q-70 96 -190 96q-125 0 -196.5 -107.5t-71.5 -291.5q0 -190 70.5 -298t195.5 -108q193 0 246 250l141 -24q-27 -166 -132 -262.5t-257 -94.5l-19 -65q74 -2 117 -19q35 -14 57.5 -45.5 t22.5 -68.5q0 -68 -51 -107t-139 -39q-100 0 -179 45l25 64q76 -35 139 -35q47 0 76 19.5t29 52.5q0 70 -121 69q-20 0 -70 -6l45 139q-168 27 -264 167.5t-96 359.5z" />
<glyph unicode="&#xe8;" horiz-adv-x="1064" d="M78 500q0 238 131 387t338 149q127 0 227 -61.5t154 -171.5q57 -121 59 -311h-735q0 -152 41 -236q33 -70 104.5 -112t153.5 -42q131 0 211 93q30 32 61 106l146 -31q-49 -139 -162 -218t-266 -79q-207 0 -335 145.5t-128 381.5zM260 608h555q-2 121 -57 201 q-76 106 -209 106q-131 0 -217 -104q-58 -74 -72 -203zM270 1356l62 121l395 -230l-43 -80z" />
<glyph unicode="&#xe9;" horiz-adv-x="1064" d="M78 500q0 238 131 387t338 149q127 0 227 -61.5t154 -171.5q57 -121 59 -311h-735q0 -152 41 -236q33 -70 104.5 -112t153.5 -42q131 0 211 93q30 32 61 106l146 -31q-49 -139 -162 -218t-266 -79q-207 0 -335 145.5t-128 381.5zM260 608h555q-2 121 -57 201 q-76 106 -209 106q-131 0 -217 -104q-58 -74 -72 -203zM393 1247l395 230l62 -121l-416 -189z" />
<glyph unicode="&#xea;" horiz-adv-x="1064" d="M78 500q0 238 131 387t338 149q127 0 227 -61.5t154 -171.5q57 -121 59 -311h-735q0 -152 41 -236q33 -70 104.5 -112t153.5 -42q131 0 211 93q30 32 61 106l146 -31q-49 -139 -162 -218t-266 -79q-207 0 -335 145.5t-128 381.5zM215 1194l334 260l328 -260l-142 -20 l-190 135l-185 -135zM260 608h555q-2 121 -57 201q-76 106 -209 106q-131 0 -217 -104q-58 -74 -72 -203z" />
<glyph unicode="&#xeb;" horiz-adv-x="1064" d="M78 500q0 238 131 387t338 149q127 0 227 -61.5t154 -171.5q57 -121 59 -311h-735q0 -152 41 -236q33 -70 104.5 -112t153.5 -42q131 0 211 93q30 32 61 106l146 -31q-49 -139 -162 -218t-266 -79q-207 0 -335 145.5t-128 381.5zM260 608h555q-2 121 -57 201 q-76 106 -209 106q-131 0 -217 -104q-58 -74 -72 -203zM291 1305q0 43 29.5 72.5t72.5 29.5q41 0 72 -29.5t31 -72.5q0 -41 -31 -72t-72 -31q-43 0 -72.5 30t-29.5 73zM596 1307q0 43 30.5 72.5t73.5 29.5q41 0 72 -30.5t31 -71.5q0 -43 -31 -74t-74 -31q-41 0 -71.5 31 t-30.5 74z" />
<glyph unicode="&#xec;" horiz-adv-x="468" d="M-31 1368l64 109l321 -230l-47 -80zM156 0v1010h157v-1010h-157z" />
<glyph unicode="&#xed;" horiz-adv-x="468" d="M115 1247l321 230l64 -109l-338 -201zM156 0v1010h157v-1010h-157z" />
<glyph unicode="&#xee;" horiz-adv-x="468" d="M-35 1194l273 260l268 -260l-131 -20l-139 135l-136 -135zM158 0v1010h157v-1010h-157z" />
<glyph unicode="&#xef;" horiz-adv-x="468" d="M-8 1305q0 43 29.5 72.5t72.5 29.5q41 0 72 -29.5t31 -72.5q0 -41 -31 -72t-72 -31q-43 0 -72.5 30t-29.5 73zM156 0v1010h157v-1010h-157zM266 1307q0 43 31 72.5t74 29.5q41 0 71.5 -30.5t30.5 -71.5q0 -43 -30.5 -74t-73.5 -31q-41 0 -72 31t-31 74z" />
<glyph unicode="&#xf0;" horiz-adv-x="1060" d="M78 492q0 217 124 367.5t302 150.5q137 0 244 -115q-47 156 -168 283l-174 -103l-62 88l148 88q-61 45 -164 95l75 81q117 -39 207 -106l176 98l70 -86l-151 -86q276 -283 276 -710q0 -309 -160 -451q-121 -115 -297 -115q-242 0 -360 199q-86 147 -86 322zM250 498 q0 -186 74.5 -292t205.5 -106q127 0 203 104.5t76 280.5q0 178 -78 287t-205 109q-125 0 -200.5 -104.5t-75.5 -278.5z" />
<glyph unicode="&#xf1;" horiz-adv-x="1110" d="M158 0v1010h145v-187q78 121 148.5 167t175.5 46q199 0 291 -176q37 -72 36 -276v-584h-147v649q0 123 -53.5 187.5t-155.5 64.5q-123 0 -203 -98t-80 -248v-555h-157zM221 1274q90 127 223 127q35 0 56.5 -6t117.5 -47q43 -18 87 -19q56 0 122 51l78 -71 q-63 -57 -107 -79t-100 -22q-33 0 -53 7.5t-117 48.5q-39 18 -90 18q-74 0 -133 -68z" />
<glyph unicode="&#xf2;" horiz-adv-x="1062" d="M78 508q0 236 127 382t330 146q205 0 327.5 -147.5t122.5 -394.5q0 -227 -131 -374t-336 -147q-199 0 -319.5 146.5t-120.5 388.5zM247 1356l62 121l395 -230l-41 -80zM250 510q0 -195 73.5 -301.5t207 -106.5t208 106.5t74.5 293.5q0 195 -72 297q-82 108 -213 108 t-209 -110q-70 -100 -69 -287z" />
<glyph unicode="&#xf3;" horiz-adv-x="1062" d="M78 508q0 236 127 382t330 146q205 0 327.5 -147.5t122.5 -394.5q0 -227 -131 -374t-336 -147q-199 0 -319.5 146.5t-120.5 388.5zM250 510q0 -195 73.5 -301.5t207 -106.5t208 106.5t74.5 293.5q0 195 -72 297q-82 108 -213 108t-209 -110q-70 -100 -69 -287zM371 1247 l395 230l62 -121l-414 -189z" />
<glyph unicode="&#xf4;" horiz-adv-x="1062" d="M78 508q0 236 127 382t330 146q205 0 327.5 -147.5t122.5 -394.5q0 -227 -131 -374t-336 -147q-199 0 -319.5 146.5t-120.5 388.5zM199 1194l336 260l327 -260l-141 -20l-191 135l-184 -135zM250 510q0 -195 73.5 -301.5t207 -106.5t208 106.5t74.5 293.5q0 195 -72 297 q-82 108 -213 108t-209 -110q-70 -100 -69 -287z" />
<glyph unicode="&#xf5;" horiz-adv-x="1062" d="M78 508q0 236 127 382t330 146q205 0 327.5 -147.5t122.5 -394.5q0 -227 -131 -374t-336 -147q-199 0 -319.5 146.5t-120.5 388.5zM203 1274q90 127 223 127q35 0 57.5 -7.5t118.5 -45.5q41 -18 84 -19q59 0 125 51l76 -71q-63 -57 -107.5 -79t-97.5 -22q-35 0 -55.5 7.5 t-114.5 48.5q-43 18 -92 18q-74 0 -133 -68zM250 510q0 -195 73.5 -301.5t207 -106.5t208 106.5t74.5 293.5q0 195 -72 297q-82 108 -213 108t-209 -110q-70 -100 -69 -287z" />
<glyph unicode="&#xf6;" horiz-adv-x="1062" d="M78 508q0 236 127 382t330 146q205 0 327.5 -147.5t122.5 -394.5q0 -227 -131 -374t-336 -147q-199 0 -319.5 146.5t-120.5 388.5zM250 510q0 -195 73.5 -301.5t207 -106.5t208 106.5t74.5 293.5q0 195 -72 297q-82 108 -213 108t-209 -110q-70 -100 -69 -287zM266 1305 q0 43 29.5 72.5t72.5 29.5q41 0 72 -29.5t31 -72.5q0 -41 -31 -72t-72 -31q-43 0 -72.5 30t-29.5 73zM583 1307q0 43 31 72.5t74 29.5q41 0 71.5 -30.5t30.5 -71.5q0 -43 -30.5 -74t-73.5 -31q-41 0 -72 31t-31 74z" />
<glyph unicode="&#xf7;" d="M123 614v140h956v-140h-956zM504 387q0 41 28.5 68.5t69.5 27.5q39 0 66.5 -28.5t27.5 -67.5t-28.5 -67.5t-67.5 -28.5t-67.5 28.5t-28.5 67.5zM504 991q0 41 28.5 68.5t69.5 27.5q39 0 66.5 -28.5t27.5 -67.5q0 -41 -28.5 -68.5t-67.5 -27.5t-67.5 27.5t-28.5 68.5z" />
<glyph unicode="&#xf8;" horiz-adv-x="1062" d="M37 -55l145 200q-102 152 -102 365q0 236 127 381t332 145q143 0 254 -80l90 119h141l-150 -198q111 -152 111 -371q0 -238 -130 -385.5t-339 -147.5q-147 0 -256 86l-88 -114h-135zM252 510q0 -132 37 -234l405 570q-76 61 -164 61q-59 0 -115.5 -28.5t-88.5 -75.5 q-74 -104 -74 -293zM358 174q74 -72 172 -72q129 0 206 106.5t77 287.5q0 166 -45 258z" />
<glyph unicode="&#xf9;" horiz-adv-x="1107" d="M158 365v645h157v-645q0 -133 52 -193q57 -70 147 -70q117 0 199 99.5t82 238.5v570h157v-1010h-141v193q-111 -219 -322 -220q-154 0 -242.5 104.5t-88.5 287.5zM244 1356l61 121l397 -230l-43 -80z" />
<glyph unicode="&#xfa;" horiz-adv-x="1107" d="M158 365v645h157v-645q0 -133 52 -193q57 -70 147 -70q117 0 199 99.5t82 238.5v570h157v-1010h-141v193q-111 -219 -322 -220q-154 0 -242.5 104.5t-88.5 287.5zM416 1247l395 230l61 -121l-415 -189z" />
<glyph unicode="&#xfb;" horiz-adv-x="1107" d="M158 365v645h157v-645q0 -133 52 -193q57 -70 147 -70q117 0 199 99.5t82 238.5v570h157v-1010h-141v193q-111 -219 -322 -220q-154 0 -242.5 104.5t-88.5 287.5zM223 1194l334 260l330 -260l-142 -20l-190 135l-184 -135z" />
<glyph unicode="&#xfc;" horiz-adv-x="1107" d="M158 365v645h157v-645q0 -133 52 -193q57 -70 147 -70q117 0 199 99.5t82 238.5v570h157v-1010h-141v193q-111 -219 -322 -220q-154 0 -242.5 104.5t-88.5 287.5zM291 1305q0 43 29.5 72.5t72.5 29.5q41 0 72 -29.5t31 -72.5q0 -41 -31 -72t-72 -31q-43 0 -72.5 30 t-29.5 73zM608 1307q0 43 31 72.5t74 29.5q41 0 71.5 -30.5t30.5 -71.5q0 -43 -30.5 -74t-73.5 -31q-41 0 -72 31t-31 74z" />
<glyph unicode="&#xfd;" horiz-adv-x="849" d="M10 1010h160l270 -760l277 760h133l-406 -1129q-51 -141 -139 -203q-53 -39 -158 -38q-47 0 -118 16v125q70 -14 104 -14q106 0 160 86q31 49 67 165zM311 1247l396 230l61 -121l-416 -189z" />
<glyph unicode="&#xfe;" horiz-adv-x="1093" d="M158 -342v1708h157v-532q113 203 308 202q176 0 285.5 -147.5t109.5 -382.5q0 -238 -111.5 -385.5t-292.5 -147.5q-98 0 -166.5 41t-132.5 140v-496h-157zM315 367q18 -115 95 -190t174 -75q51 0 102 27t84 68q76 96 76 299q0 190 -69.5 296.5t-192.5 106.5 q-94 0 -166 -66.5t-103 -183.5v-282z" />
<glyph unicode="&#xff;" horiz-adv-x="849" d="M10 1010h160l270 -760l277 760h133l-406 -1129q-51 -141 -139 -203q-53 -39 -158 -38q-47 0 -118 16v125q70 -14 104 -14q106 0 160 86q31 49 67 165zM172 1305q0 43 29.5 72.5t72.5 29.5q41 0 72 -29.5t31 -72.5q0 -41 -31 -72t-72 -31q-43 0 -72.5 30t-29.5 73z M489 1307q0 43 31 72.5t74 29.5q41 0 71.5 -30.5t30.5 -71.5q0 -43 -30.5 -74t-73.5 -31q-41 0 -72 31t-31 74z" />
<glyph unicode="&#x152;" horiz-adv-x="1972" d="M84 678q0 315 167 515t429 200q117 0 197.5 -38t160.5 -128v139h867v-139h-686v-447h553v-135h-553v-502h686v-143h-867v143q-78 -90 -161.5 -130t-202.5 -40q-258 0 -424 198t-166 507zM262 682q0 -258 112.5 -413.5t301.5 -155.5q176 0 282 118q47 51 80 166v598 q-29 119 -125 188.5t-231 69.5q-193 0 -306.5 -154.5t-113.5 -416.5z" />
<glyph unicode="&#x153;" horiz-adv-x="1746" d="M78 504q0 233 130 382.5t335 149.5q197 0 348 -172q84 92 164 132t186 40q250 0 365 -229q55 -113 63 -313h-711q0 -109 19 -172q27 -96 102.5 -154.5t171.5 -58.5q174 -1 260 194l142 -27q-41 -113 -101 -174q-125 -129 -313 -129q-203 0 -348 174q-80 -92 -164 -133 t-195 -41q-203 0 -328.5 146.5t-125.5 384.5zM254 494q0 -209 78 -299q84 -96 205 -97q143 0 221 121q63 98 63 281q0 197 -71.5 300t-208.5 103q-139 0 -213 -104.5t-74 -304.5zM963 610h538q-6 139 -75.5 221t-184.5 82q-152 0 -229 -131q-39 -66 -49 -172z" />
<glyph unicode="&#x178;" horiz-adv-x="1044" d="M-20 1366h200l363 -629l364 629h156l-457 -791v-575h-170v575zM270 1624q0 43 30 72.5t73 29.5q41 0 71.5 -29.5t30.5 -72.5q0 -41 -30.5 -71.5t-71.5 -30.5q-43 0 -73 29.5t-30 72.5zM590 1626q0 43 30.5 73t73.5 30q41 0 72 -31t31 -72q0 -43 -31 -73.5t-74 -30.5 q-41 0 -71.5 30.5t-30.5 73.5z" />
<glyph unicode="&#x2c6;" horiz-adv-x="1024" d="M180 1194l334 260l330 -260l-142 -20l-190 135l-184 -135z" />
<glyph unicode="&#x2dc;" horiz-adv-x="1024" d="M170 1274q90 127 223 127q35 0 56.5 -6t117.5 -47q43 -18 86 -19q59 0 125 51l76 -71q-63 -57 -107.5 -79t-97.5 -22q-35 0 -55.5 7.5t-114.5 48.5q-43 18 -92 18q-74 0 -133 -68z" />
<glyph unicode="&#x2000;" horiz-adv-x="908" />
<glyph unicode="&#x2001;" horiz-adv-x="1817" />
<glyph unicode="&#x2002;" horiz-adv-x="908" />
<glyph unicode="&#x2003;" horiz-adv-x="1817" />
<glyph unicode="&#x2004;" horiz-adv-x="605" />
<glyph unicode="&#x2005;" horiz-adv-x="454" />
<glyph unicode="&#x2006;" horiz-adv-x="302" />
<glyph unicode="&#x2007;" horiz-adv-x="302" />
<glyph unicode="&#x2008;" horiz-adv-x="227" />
<glyph unicode="&#x2009;" horiz-adv-x="363" />
<glyph unicode="&#x200a;" horiz-adv-x="100" />
<glyph unicode="&#x2010;" horiz-adv-x="512" d="M31 451v122h452v-122h-452z" />
<glyph unicode="&#x2011;" horiz-adv-x="512" d="M31 451v122h452v-122h-452z" />
<glyph unicode="&#x2012;" horiz-adv-x="512" d="M31 451v122h452v-122h-452z" />
<glyph unicode="&#x2013;" d="M201 451v122h796v-122h-796z" />
<glyph unicode="&#x2014;" horiz-adv-x="1366" d="M4 451v122h1358v-122h-1358z" />
<glyph unicode="&#x2018;" horiz-adv-x="512" d="M154 924v202l135 240h69l-98 -240h98v-202h-204z" />
<glyph unicode="&#x2019;" horiz-adv-x="512" d="M154 924l98 239h-98v203h204v-203l-135 -239h-69z" />
<glyph unicode="&#x201a;" horiz-adv-x="512" d="M154 0v203h204v-203l-135 -239h-69l98 239h-98z" />
<glyph unicode="&#x201c;" horiz-adv-x="821" d="M154 928v170l155 268h72l-113 -242h82v-196h-196zM453 928v170l161 268h74l-117 -242h82v-196h-200z" />
<glyph unicode="&#x201d;" horiz-adv-x="821" d="M143 928l117 241h-82v197h201v-170l-162 -268h-74zM451 928l112 241h-82v197h197v-170l-156 -268h-71z" />
<glyph unicode="&#x201e;" horiz-adv-x="821" d="M143 -240l117 240h-82v197h201v-170l-162 -267h-74zM451 -240l112 240h-82v197h197v-170l-156 -267h-71z" />
<glyph unicode="&#x2022;" horiz-adv-x="1366" d="M401 692q0 119 83 202t204 83q115 0 198 -84t83 -199q0 -119 -83 -201.5t-200 -82.5q-119 0 -202 82.5t-83 199.5z" />
<glyph unicode="&#x2026;" horiz-adv-x="1525" d="M143 0v223h224v-223h-224zM653 0v223h221v-223h-221zM1159 0v223h223v-223h-223z" />
<glyph unicode="&#x202f;" horiz-adv-x="363" />
<glyph unicode="&#x2039;" horiz-adv-x="438" d="M82 532l172 283h90l-106 -283l106 -292h-90z" />
<glyph unicode="&#x203a;" horiz-adv-x="438" d="M96 240l107 282l-107 293h90l172 -293l-172 -282h-90z" />
<glyph unicode="&#x205f;" horiz-adv-x="454" />
<glyph unicode="&#x20ac;" d="M39 475l47 119h94q-4 61 -4 100v29h-137l47 117h100q37 260 184.5 406.5t372.5 146.5q111 0 184.5 -31t164.5 -115l-68 -174q-63 96 -125.5 135t-157.5 39q-303 1 -366 -407h555l-47 -117h-521v-45q0 -53 3 -84h464l-45 -119h-401q35 -170 128 -263t230 -93 q166 0 279 133v-189q-74 -53 -134.5 -71.5t-158.5 -18.5q-309 0 -463 310q-41 84 -65 192h-160z" />
<glyph unicode="&#x2122;" horiz-adv-x="1591" d="M2 1268v98h594v-98h-236v-680h-124v680h-234zM688 588v778h172l238 -590l233 590h170v-778h-121v618l-247 -618h-86l-250 618v-618h-109z" />
<glyph unicode="&#xe000;" horiz-adv-x="1013" d="M0 0v1014h1014v-1014h-1014z" />
</font>
</defs>
</svg>
