<?xml version="1.0" standalone="no"?>
<!DOCTYPE svg PUBLIC "-//W3C//DTD SVG 1.1//EN" "http://www.w3.org/Graphics/SVG/1.1/DTD/svg11.dtd" >
<svg xmlns="http://www.w3.org/2000/svg">
<metadata></metadata>
<defs>
<font id="webfontuploaded_file" horiz-adv-x="1202" >
<font-face units-per-em="2048" ascent="1585" descent="-463" />
<missing-glyph horiz-adv-x="512" />
<glyph unicode="&#xfb01;" horiz-adv-x="1105" d="M20 831v179h150q2 184 66 264q84 113 253 112q49 0 140 -10v-180h-31q-121 0 -156.5 -29.5t-35.5 -132.5v-24h223v-179h-223v-831h-236v831h-150zM733 0v1010h236v-1010h-236zM733 1126v240h236v-240h-236z" />
<glyph unicode="&#xfb02;" horiz-adv-x="1105" d="M20 831v179h152q4 111 16.5 164t49.5 100q82 113 254 112q61 0 137 -10v-182q-25 2 -60 2q-109 0 -145 -59q-16 -29 -16 -127h221v-179h-221v-831h-236v831h-152zM733 0v1366h236v-1366h-236z" />
<glyph horiz-adv-x="2048" />
<glyph horiz-adv-x="2048" />
<glyph unicode="&#xd;" horiz-adv-x="681" />
<glyph unicode=" "  horiz-adv-x="512" />
<glyph unicode="&#x09;" horiz-adv-x="512" />
<glyph unicode="&#xa0;" horiz-adv-x="512" />
<glyph unicode="!" horiz-adv-x="563" d="M137 1366h301l-100 -952h-105zM158 0v250h250v-250h-250z" />
<glyph unicode="&#x22;" horiz-adv-x="774" d="M106 1366h224l-33 -549h-158zM442 1366h226l-35 -549h-156z" />
<glyph unicode="#" d="M49 401l33 191h209l37 209h-207l35 192h206l66 373h186l-65 -373h215l65 373h187l-68 -373h203l-35 -192h-198l-37 -209h198l-35 -193h-200l-70 -399h-186l71 399h-217l-71 -399h-189l72 401h-205zM477 592h215l37 209h-215z" />
<glyph unicode="$" d="M47 371l215 49q25 -102 94.5 -162.5t165.5 -64.5v395q-164 41 -243 80q-86 41 -133.5 119.5t-47.5 179.5q0 121 62.5 212t177.5 134q78 31 184 43v143h135v-143q150 -18 257.5 -102.5t136.5 -204.5l-203 -43q-31 84 -73 120.5t-118 44.5v-350l56 -14q137 -37 198.5 -66.5 t102.5 -81.5q84 -100 84 -243q0 -211 -168 -320q-102 -68 -273 -86v-184h-135v184q-182 14 -306 108.5t-169 252.5zM319 1001q0 -72 47 -110.5t156 -54.5v335q-96 -2 -149.5 -46t-53.5 -124zM657 193q102 6 162 58t60 138q0 76 -53.5 121t-168.5 65v-382z" />
<glyph unicode="%" horiz-adv-x="1579" d="M66 1006q0 164 89 268t230 104q137 0 219 -82q102 -109 103 -305q0 -160 -92.5 -266.5t-231.5 -106.5t-228 109t-89 279zM254 1006q0 -240 129 -240q66 0 102.5 57.5t36.5 163.5q0 246 -133 246q-135 0 -135 -227zM293 0l848 1366h149l-846 -1366h-151zM879 356 q0 170 92 282t231 112q152 0 244 -132q70 -96 70 -253q0 -168 -90.5 -272.5t-235.5 -104.5q-137 0 -224 103.5t-87 264.5zM1065 367q0 -233 135 -234q63 0 98 63.5t35 180.5q0 223 -127 223q-68 0 -104.5 -60.5t-36.5 -172.5z" />
<glyph unicode="&#x26;" horiz-adv-x="1468" d="M66 408q0 180 139 297q66 53 215 122q-72 88 -95.5 140.5t-23.5 119.5q0 133 99.5 216t256.5 83q162 0 262.5 -81.5t100.5 -212.5q0 -215 -266 -332l297 -338q139 176 172 405l204 -34q-45 -299 -241 -517q66 -70 97.5 -89t84.5 -19q29 0 59 4v-190q-70 -2 -94 -2 q-96 0 -155.5 27.5t-149.5 117.5q-207 -145 -448 -145q-221 0 -367.5 121.5t-146.5 306.5zM336 422q0 -109 78 -176.5t202 -67.5q150 0 281 98l-358 402q-68 -29 -136 -92q-68 -61 -67 -164zM530 1092q0 -85 113 -185q174 76 174 180q0 55 -40 90t-101.5 35t-103.5 -34.5 t-42 -85.5z" />
<glyph unicode="'" horiz-adv-x="438" d="M106 1366h224l-33 -549h-158z" />
<glyph unicode="(" horiz-adv-x="600" d="M66 530q0 281 129 531q104 203 215 305h135q-104 -156 -135 -209t-64 -141q-90 -242 -90 -494q0 -481 289 -864h-135q-344 375 -344 872z" />
<glyph unicode=")" horiz-adv-x="600" d="M55 -342q102 154 134 208t65 142q90 238 90 494q0 481 -289 864h135q346 -381 347 -872q0 -281 -129 -531q-109 -205 -218 -305h-135z" />
<glyph unicode="*" d="M172 975l49 180l309 -117l-22 340h188l-24 -340l311 117l49 -180l-317 -70l203 -250l-158 -106l-158 274l-160 -274l-155 106l202 250z" />
<glyph unicode="+" d="M94 594v190h412v426h190v-426h410v-190h-410v-424h-190v424h-412z" />
<glyph unicode="," horiz-adv-x="493" d="M123 0v256h248v-229l-160 -320h-88l119 293h-119z" />
<glyph unicode="-" horiz-adv-x="493" d="M-4 426v186h502v-186h-502z" />
<glyph unicode="." horiz-adv-x="493" d="M123 0v262h248v-262h-248z" />
<glyph unicode="/" horiz-adv-x="980" d="M-115 -342l889 1708h148l-895 -1708h-142z" />
<glyph unicode="0" d="M72 674q0 326 143 514q148 198 381 198q248 0 390 -191t142 -523q0 -260 -114 -453q-135 -240 -418 -239q-244 0 -384 186t-140 508zM322 690q0 -266 66.5 -392t207.5 -126q279 0 278 502q0 223 -47 354q-35 92 -88 134t-137 42q-281 0 -280 -514z" />
<glyph unicode="1" d="M139 0v201h412v864q-201 -180 -373 -248v248q131 49 183.5 75.5t111.5 78.5q123 106 162 174h164v-1192h385v-201h-1045z" />
<glyph unicode="2" d="M86 0v240l256 170q184 121 239.5 161.5t123.5 106.5q127 125 126 254q0 104 -68.5 171.5t-172.5 67.5q-231 0 -266 -284l-238 59q31 164 125 273q147 168 389 167q223 0 359.5 -125.5t136.5 -332.5q0 -221 -207 -391q-76 -63 -140.5 -103.5t-367.5 -220.5h711v-213h-1006 z" />
<glyph unicode="3" d="M51 342l232 57q70 -227 303 -227q117 0 191.5 59.5t74.5 153.5q0 51 -28.5 102.5t-73.5 79.5q-57 35 -152 35h-168v195h125q121 0 191.5 54t70.5 146q0 90 -60.5 142.5t-166.5 52.5q-104 0 -169 -47t-106 -154l-225 41q41 162 179.5 258t328.5 96q205 0 335 -102 t130 -264q0 -125 -69.5 -210t-184.5 -99q141 -27 219 -113t78 -217q0 -178 -144.5 -289.5t-373.5 -111.5q-254 0 -414 157q-92 88 -123 205z" />
<glyph unicode="4" d="M70 309v180l606 904h252v-873h205v-211h-205v-309h-252v309h-606zM307 520h369v377q0 58 18 240z" />
<glyph unicode="5" d="M80 352l235 37q70 -209 289 -209q125 0 202 76t77 201q0 117 -73 193.5t-185 76.5q-176 0 -267 -158l-219 43l78 754h848l-21 -211h-647l-39 -397q72 86 144.5 121.5t175.5 35.5q197 0 334 -134t137 -326q0 -182 -127 -320q-150 -156 -406 -155q-274 0 -428 159 q-72 74 -108 213z" />
<glyph unicode="6" d="M80 668q0 330 148.5 524t400.5 194q111 0 208 -37.5t156 -105.5q61 -69 94 -188l-208 -41q-35 102 -91.5 147t-150.5 45q-106 0 -173 -57t-104 -182q-35 -111 -34 -236v-59q55 96 116 137q98 68 240 68q195 0 323 -123t128 -310q0 -203 -139.5 -333.5t-354.5 -130.5 q-258 0 -408.5 185t-150.5 503zM369 420q0 -117 73.5 -188.5t192.5 -71.5q115 0 188.5 70.5t73.5 179.5q0 121 -76.5 198.5t-195.5 77.5q-111 0 -183.5 -75.5t-72.5 -190.5z" />
<glyph unicode="7" d="M104 1155l21 211h969v-174q-242 -317 -327 -551.5t-108 -640.5h-280q20 344 141 618.5t365 536.5h-781z" />
<glyph unicode="8" d="M57 346q0 115 67.5 193t221.5 135q-88 47 -131 83t-72 91q-37 74 -37 153q0 174 137.5 279.5t362.5 105.5q219 0 351.5 -96t132.5 -258q0 -102 -55.5 -169.5t-188.5 -127.5q111 -49 168 -94q129 -102 129 -264q0 -178 -152.5 -287.5t-402.5 -109.5q-242 0 -386.5 99 t-144.5 267zM293 358q0 -88 86 -144t223 -56q131 0 210 50t79 132q0 80 -75 130t-300 124q-223 -88 -223 -236zM354 1040.5q0 -77.5 64.5 -124t257.5 -109.5q102 47 146 96t44 121q0 84 -72.5 138.5t-185 54.5t-183.5 -49.5t-71 -127z" />
<glyph unicode="9" d="M74 928q0 203 136 330.5t353 127.5q244 0 393 -161q162 -176 162 -504q0 -311 -135 -516q-152 -225 -430 -225q-158 0 -271.5 70.5t-160.5 197.5l207 57q39 -61 65 -86q66 -55 166 -55q152 0 236 141t86 402q-63 -113 -125 -154q-92 -63 -232 -64q-197 0 -323.5 123 t-126.5 316zM309 942q0 -109 74 -181.5t186.5 -72.5t191.5 74t79 180q0 113 -75 185.5t-194 72.5q-115 0 -188.5 -72.5t-73.5 -185.5z" />
<glyph unicode=":" horiz-adv-x="493" d="M123 0v250h248v-250h-248zM123 694v250h248v-250h-248z" />
<glyph unicode=";" horiz-adv-x="493" d="M123 0v256h248v-229l-160 -320h-88l119 293h-119zM123 694v250h248v-250h-248z" />
<glyph unicode="&#x3c;" d="M137 584v196l887 441v-230l-641 -309l641 -311v-230z" />
<glyph unicode="=" d="M94 434v190h1012v-190h-1012zM94 733v190h1012v-190h-1012z" />
<glyph unicode="&#x3e;" d="M178 141v232l641 309l-641 311v228l887 -443v-194z" />
<glyph unicode="?" horiz-adv-x="1028" d="M35 930q14 203 149 329.5t336 126.5q190 0 316.5 -113.5t126.5 -283.5q0 -160 -125 -289q-27 -25 -174 -133q-41 -29 -51.5 -58.5t-12.5 -117.5h-194v135q0 68 25.5 106t121.5 111q141 111 141 234q0 90 -55 144.5t-145 54.5q-152 0 -205 -138q-23 -55 -37 -147zM406 0 v250h235v-250h-235z" />
<glyph unicode="@" horiz-adv-x="1468" d="M25 682q0 303 213 509t526 206q289 0 483.5 -177.5t194.5 -441.5q0 -205 -111.5 -354.5t-265.5 -149.5q-125 0 -170 105q-88 -109 -209 -109q-133 0 -221 109.5t-88 275.5q0 172 98 287t246 115q137 0 197 -86l8 69h172l-56 -465q-6 -49 -6 -94q0 -68 47 -67 q82 0 149.5 111.5t67.5 246.5q0 213 -151.5 352.5t-382.5 139.5q-244 0 -411 -167t-167 -413q0 -158 74 -290t203 -206q127 -76 317 -75q125 0 218.5 23.5t232.5 92.5l59 -135q-250 -125 -508 -125q-233 0 -407 97q-164 94 -258 258.5t-94 357.5zM555 647q0 -94 40 -153.5 t101 -59.5q84 0 147.5 79t63.5 185q0 84 -49 139.5t-123 55.5q-80 0 -130 -68.5t-50 -177.5z" />
<glyph unicode="A" horiz-adv-x="1234" d="M6 0l453 1366h303l459 -1366h-265l-108 326h-524l-109 -326h-209zM385 522h397l-198 611z" />
<glyph unicode="B" horiz-adv-x="1243" d="M150 0v1366h532q115 0 179.5 -15.5t121.5 -54.5q141 -98 141 -284q0 -119 -63.5 -197t-183.5 -106q104 -20 161 -66q129 -94 129 -272q0 -166 -110 -271q-106 -100 -312 -100h-595zM383 205h317q100 0 159 53t59 143q0 88 -59.5 142.5t-156.5 54.5h-319v-393zM383 793 h299q90 0 144.5 53t54.5 143q0 82 -55.5 132t-147.5 50h-295v-378z" />
<glyph unicode="C" horiz-adv-x="1185" d="M78 684q0 319 150.5 510.5t404.5 191.5q209 0 339 -123.5t169 -359.5l-228 -24q-35 145 -84 213q-70 96 -194 96q-139 0 -215 -130t-76 -368q0 -240 79 -372t220 -132q106 0 180 80t90 209l228 -26q-16 -111 -45 -177.5t-88 -132.5q-144 -159 -380 -159h-3 q-248 0 -381 170q-166 207 -166 534z" />
<glyph unicode="D" horiz-adv-x="1341" d="M143 0v1366h502q258 0 422 -170q195 -201 195 -510q0 -356 -236 -551q-162 -135 -436 -135h-447zM395 201h205q180 0 287.5 133t107.5 356q0 211 -102 346t-264 135h-234v-970z" />
<glyph unicode="E" horiz-adv-x="1099" d="M150 0v1366h878v-203h-633v-370h508v-199h-508v-383h641v-211h-886z" />
<glyph unicode="F" horiz-adv-x="1040" d="M150 0v1366h862v-211h-611v-375h482v-205h-482v-575h-251z" />
<glyph unicode="G" horiz-adv-x="1314" d="M78 686q0 291 149 492q153 208 432 208h3q244 0 391 -174q80 -90 116 -243l-215 -37q-25 98 -61 145q-84 104 -225 105q-147 0 -234 -113q-96 -125 -96 -371q0 -516 324 -516q188 0 266 174q26 55 26 138v6h-282v198h514v-698h-109l-76 184q-126 -204 -366 -204h-2 q-274 0 -416 208q-139 205 -139 498z" />
<glyph unicode="H" horiz-adv-x="1312" d="M150 0v1366h245v-561h523v561h245v-1366h-245v594h-523v-594h-245z" />
<glyph unicode="I" horiz-adv-x="546" d="M150 0v1366h245v-1366h-245z" />
<glyph unicode="J" horiz-adv-x="759" d="M0 0v199q137 -8 158 -9q135 0 184 62q31 41 31 172v942h252v-942q0 -205 -70 -301q-57 -78 -139 -110.5t-219 -32.5q-115 0 -197 20z" />
<glyph unicode="K" horiz-adv-x="1257" d="M150 0v1366h245v-719l68 103l455 616h247l-323 -448l381 -918h-275l-289 696l-264 -350v-346h-245z" />
<glyph unicode="L" horiz-adv-x="1019" d="M150 0v1366h260v-1143h579v-223h-839z" />
<glyph unicode="M" horiz-adv-x="1640" d="M150 0v1366h385l284 -881l283 881h387v-1366h-252v1196l-379 -1196h-129l-379 1196v-1196h-200z" />
<glyph unicode="N" horiz-adv-x="1331" d="M150 0v1366h272l477 -805q0 -2 6 -13t16.5 -29.5t18.5 -33.5l45 -88v969h195v-1366h-226l-532 872l-37 74l-37 74v-1020h-198z" />
<glyph unicode="O" horiz-adv-x="1316" d="M78 688q0 307 164 502.5t422 195.5q262 0 418.5 -194.5t156.5 -519.5q0 -309 -162 -500.5t-424 -191.5q-274 0 -424 202q-152 205 -151 506zM344 680q0 -244 80 -373t231 -129q82 0 152 43t104 115q61 123 62 332q0 520 -311 520q-174 0 -246 -141q-72 -137 -72 -367z " />
<glyph unicode="P" horiz-adv-x="1226" d="M150 0v1366h559q174 0 286 -68q184 -117 185 -342q0 -182 -124 -298.5t-319 -116.5h-342v-541h-245zM395 752h291q109 0 172.5 54t63.5 148q0 96 -62 152q-59 55 -196 55h-269v-409z" />
<glyph unicode="Q" horiz-adv-x="1316" d="M78 674q0 328 157.5 520t426.5 192q289 0 444 -233q131 -190 131 -471q0 -324 -172 -522q-51 -59 -137 -115q-27 -18 -27 -41q0 -37 32 -60.5t83 -23.5q16 0 106 4q7 0 60 4v-207q-88 -10 -142 -10q-178 0 -249 88q-45 53 -54 178q-70 -4 -96 -4q-252 0 -401 187 q-162 199 -162 514zM344 676q0 -496 307 -496q166 0 248 142q31 51 51.5 152t20.5 200q0 514 -309 514q-317 0 -318 -512z" />
<glyph unicode="R" horiz-adv-x="1316" d="M150 0v1366h591q233 0 356.5 -106.5t123.5 -294.5q0 -256 -246 -363l239 -602h-260l-213 561h-346v-561h-245zM395 758h307q127 0 195 55t68 156q0 92 -64.5 146t-177.5 54h-328v-411z" />
<glyph unicode="S" horiz-adv-x="1169" d="M6 330l238 51q27 -90 78 -131q88 -72 256 -72q125 0 197.5 52.5t72.5 140.5q0 121 -170 166l-262 67q-193 51 -258 139q-80 100 -80 236q0 182 133 294.5t350 112.5q227 0 377 -118q84 -70 115 -176l-234 -58q-53 154 -256 154q-106 0 -169.5 -46t-63.5 -122 q0 -117 190 -166l234 -57q215 -57 288 -168q66 -96 66 -221q0 -195 -148.5 -311.5t-396.5 -116.5q-256 0 -420 129q-90 74 -137 221z" />
<glyph unicode="T" horiz-adv-x="989" d="M0 1155v211h989v-211h-362v-1155h-265v1155h-362z" />
<glyph unicode="U" horiz-adv-x="1218" d="M137 471v895h252v-879q0 -160 60 -221q67 -71 189 -71h3q139 0 203 84q49 66 49 208v879h194v-879q0 -154 -23.5 -231.5t-90.5 -144.5q-131 -131 -363 -131q-238 0 -364 133q-59 61 -84 142t-25 216z" />
<glyph unicode="V" horiz-adv-x="1105" d="M4 1366h260l314 -1047l319 1047h205l-426 -1366h-250z" />
<glyph unicode="W" horiz-adv-x="1808" d="M20 1366h263l262 -995l246 995h249l273 -995l258 995h217l-365 -1366h-258l-272 1004l-248 -1004h-252z" />
<glyph unicode="X" horiz-adv-x="1161" d="M10 0l432 713l-370 653h284l254 -455l267 455h229l-379 -623l422 -743h-287l-303 539l-319 -539h-230z" />
<glyph unicode="Y" horiz-adv-x="1114" d="M-27 1366h297l324 -563l309 563h238l-443 -791v-575h-260v575z" />
<glyph unicode="Z" horiz-adv-x="1091" d="M41 0v193l700 978h-651v195h940v-195l-690 -960h711v-211h-1010z" />
<glyph unicode="[" horiz-adv-x="600" d="M137 -342v1708h344v-164h-166v-1380h166v-164h-344z" />
<glyph unicode="\" horiz-adv-x="980" d="M61 1366h146l891 -1708h-144z" />
<glyph unicode="]" horiz-adv-x="600" d="M119 -178h166v1380h-166v164h344v-1708h-344v164z" />
<glyph unicode="^" horiz-adv-x="1024" d="M23 702l337 670h306l338 -670h-244l-248 486l-246 -486h-243z" />
<glyph unicode="_" horiz-adv-x="1024" d="M0 -106h1024v-209h-1024v209z" />
<glyph unicode="`" horiz-adv-x="1024" d="M215 1337l66 150l393 -219l-41 -107z" />
<glyph unicode="a" horiz-adv-x="1105" d="M72 289q0 242 290 313q139 35 386 35v76q0 155 -213 155h-3q-104 0 -159.5 -36.5t-73.5 -118.5l-195 28q23 135 134 209q117 80 323 80q250 0 346 -110q39 -43 51.5 -95.5t12.5 -165.5v-454v-6q0 -88 30 -199h-219q-27 98 -34 205q-51 -119 -133.5 -172t-208.5 -53 q-147 0 -240.5 86t-93.5 223zM305 303q0 -70 47 -110.5t131 -40.5q119 0 192 74.5t73 195.5v92q-442 0 -443 -211z" />
<glyph unicode="b" horiz-adv-x="1101" d="M137 0v1366h228v-494q63 106 123.5 145.5t156.5 39.5q174 0 279.5 -145.5t105.5 -387.5q0 -238 -117 -397q-113 -147 -303 -147q-104 0 -172.5 41.5t-136.5 144.5l-61 -166h-103zM365 432q0 -127 54 -196.5t154 -69.5q106 0 162 90q53 88 56 276q-8 174 -60 250 q-51 78 -151 78q-98 0 -156.5 -75.5t-58.5 -202.5v-150z" />
<glyph unicode="c" horiz-adv-x="954" d="M72 503.5q0 235.5 125 381t325 145.5q197 0 301 -127q68 -80 92 -221l-196 -27q-25 188 -184 189q-104 0 -163 -92.5t-59 -255.5q0 -150 55.5 -234t151.5 -84q152 0 199 193l196 -21q-31 -141 -94 -223q-113 -147 -319 -147q-193 0 -311.5 144t-118.5 379.5z" />
<glyph unicode="d" horiz-adv-x="1101" d="M72 518q0 262 141 422q94 111 256 111q188 0 270 -179v494h228v-1366h-213v203q-47 -117 -119 -170t-178 -53q-170 0 -271 129q-51 68 -82.5 180t-31.5 229zM313 506q0 -340 211 -340q90 0 152.5 74.5t62.5 183.5v172q0 121 -53 184q-63 76 -156 76q-104 0 -160.5 -91 t-56.5 -259z" />
<glyph unicode="e" horiz-adv-x="1073" d="M72 501.5q0 237.5 131 383t344 145.5q219 0 335.5 -143.5t118.5 -409.5h-692v-28q2 -137 64.5 -213t177.5 -76q88 0 140 38t87 126l207 -29q-104 -315 -448 -315q-211 0 -338 142t-127 379.5zM309 625h457q-6 96 -51 157q-66 88 -176 88q-96 0 -156 -63t-74 -182z" />
<glyph unicode="f" horiz-adv-x="647" d="M23 831v179h149v25q0 101 14 155q17 61 62 110.5t108.5 69t178.5 19.5q43 0 81 -3v-180q-29 4 -61 4q-109 0 -141 -43q-16 -20 -19.5 -44.5t-3.5 -112.5h225v-179h-225v-831h-219v831h-149z" />
<glyph unicode="g" horiz-adv-x="1060" d="M45 -88q0 72 33 117t115 88q-53 47 -74 83t-21 83q0 70 37 118t125 93q-78 51 -109.5 103t-31.5 128q0 123 88 201q106 104 332 104q88 0 192 -20q29 102 85 147t157 45h86v-174h-70q-61 0 -90 -16.5t-57 -65.5q66 -55 92.5 -105t26.5 -114q0 -135 -114 -222t-294 -87 q-76 0 -191 26q-69 -36 -69 -94q0 -49 37 -76.5t100 -27.5h301q147 0 238.5 -77t91.5 -200q0 -154 -141.5 -242.5t-384.5 -88.5q-489 0 -490 274zM242 -33q0 -80 92 -127t250 -47q264 0 264 135q0 47 -41 75t-111 28h-241q-76 0 -164 24q-49 -47 -49 -88zM354 719 q0 -76 51.5 -121t135.5 -45q86 0 136 43t50 117q0 84 -47 129t-135 45q-86 0 -138.5 -46t-52.5 -122z" />
<glyph unicode="h" horiz-adv-x="1110" d="M137 0v1366h228v-532q47 115 119.5 167t181.5 52q182 0 260 -129q49 -88 49 -230v-694h-227v662q0 194 -154 194h-2q-57 0 -107.5 -30.5t-76.5 -80.5q-43 -80 -43 -221v-524h-228z" />
<glyph unicode="i" horiz-adv-x="501" d="M137 0v1010h228v-1010h-228zM137 1128v238h228v-238h-228z" />
<glyph unicode="j" horiz-adv-x="501" d="M-100 -201q37 -4 75 -4q96 0 129 36t33 140v1039h228v-1039q0 -377 -349 -377q-55 0 -116 13v192zM137 1128v238h228v-238h-228z" />
<glyph unicode="k" horiz-adv-x="1089" d="M137 0v1366h219v-848q12 16 27.5 35.5t17.5 21.5l400 435h246l-304 -334l334 -676h-239l-258 518l-224 -252v-266h-219z" />
<glyph unicode="l" horiz-adv-x="501" d="M137 0v1366h228v-1366h-228z" />
<glyph unicode="m" horiz-adv-x="1781" d="M137 0v1010h221v-215q59 115 111 157q90 78 225 78q219 0 291 -235q122 235 336 235h2q141 0 232.5 -89t91.5 -226v-715h-240v629q0 194 -172 194h-2q-106 0 -163.5 -76.5t-57.5 -216.5v-530h-242v629q0 78 -22 121q-42 77 -140 77h-2q-102 0 -167.5 -82.5t-65.5 -214.5 v-530h-236z" />
<glyph unicode="n" horiz-adv-x="1107" d="M137 0v1010h207v-234q63 137 135 195.5t174 58.5q88 0 166 -42t111 -107q43 -84 43 -230v-651h-228v631q0 92 -43 146t-114 54q-57 0 -107.5 -33.5t-79.5 -90.5q-36 -72 -36 -183v-6v-518h-228z" />
<glyph unicode="o" horiz-adv-x="1083" d="M72 508q0 231 132 376.5t341 145.5q252 0 383 -207q84 -135 84 -319q0 -231 -133.5 -377.5t-346.5 -146.5q-236 0 -360 186q-100 145 -100 342zM313 506q0 -164 59.5 -252t168.5 -88q111 0 170 89t59 255q0 162 -58 248t-167 86q-111 0 -171.5 -88t-60.5 -250z" />
<glyph unicode="p" horiz-adv-x="1101" d="M137 -342v1352h219v-176q103 196 306 196h2q164 0 258 -133q109 -156 108 -385q0 -248 -119 -408q-91 -124 -261 -124h-3q-184 0 -278 161v-483h-232zM369 414q0 -111 61.5 -182.5t157.5 -71.5q94 0 147 89t53 247q0 166 -53 257t-149 91q-94 0 -155.5 -81t-61.5 -206 v-143z" />
<glyph unicode="q" horiz-adv-x="1110" d="M186.5 886q114.5 144 307.5 144q96 0 163.5 -37t133.5 -125l61 142h121v-1352h-238v520q-82 -198 -278 -198h-2q-170 0 -265 124q-118 153 -118 394q0 244 114.5 388zM313 504q0 -156 58.5 -249t154.5 -93q92 0 150.5 79.5t58.5 204.5v146q0 119 -51 185.5t-141 66.5 q-109 0 -169.5 -89t-60.5 -251z" />
<glyph unicode="r" horiz-adv-x="677" d="M137 0v1010h207v-242q35 131 118 205q74 66 166 66q11 0 23 -1v-245h-14l-39 -2q-98 -4 -165.5 -96.5t-67.5 -227.5v-467h-228z" />
<glyph unicode="s" horiz-adv-x="929" d="M14 231l213 41q33 -68 82 -95t142 -27q96 0 150 32.5t54 91.5q0 37 -29.5 64t-80.5 37l-185 37q-156 29 -230.5 101.5t-74.5 195.5q0 125 80 211q101 110 305 110h4q317 0 390 -233l-205 -43q-20 61 -63.5 87.5t-121.5 26.5q-82 0 -130 -29.5t-48 -78.5q0 -86 146 -115 l217 -45q254 -49 254 -293q0 -150 -120 -238.5t-321 -88.5q-195 0 -323 94q-72 55 -105 157z" />
<glyph unicode="t" horiz-adv-x="659" d="M35 831v179h139l21 262l186 16v-278h205v-179h-205v-491q0 -96 35 -130t131 -34q32 0 57 2v-178q-100 -23 -160 -23q-135 0 -215 80q-39 39 -54 94.5t-15 157.5v522h-125z" />
<glyph unicode="u" horiz-adv-x="1103" d="M137 303v707h234v-658q0 -72 20 -110q41 -68 123 -68q59 0 115.5 40t81.5 101q30 68 30 200v9v486h228v-1010h-213v219q-20 -63 -43 -98t-64 -68q-87 -73 -210 -73h-3q-162 0 -248 122q-51 78 -51 201z" />
<glyph unicode="v" horiz-adv-x="909" d="M14 1010h238l235 -684l232 684h178l-342 -1010h-190z" />
<glyph unicode="w" horiz-adv-x="1427" d="M20 1010h242l201 -680l172 680h207l178 -680l194 680h193l-297 -1010h-205l-182 709l-180 -709h-211z" />
<glyph unicode="x" horiz-adv-x="905" d="M0 0l336 520l-291 490h262l166 -297l189 297h190l-285 -439l338 -571h-262l-213 369l-233 -369h-197z" />
<glyph unicode="y" horiz-adv-x="905" d="M14 1010h238l246 -668l211 668h182l-393 -1151q-41 -117 -105.5 -170.5t-169.5 -53.5q-33 0 -131 9v180q41 -2 113 -2q100 0 133 57q12 20 27.5 63.5t15.5 55.5q0 8 -21 63z" />
<glyph unicode="z" horiz-adv-x="858" d="M47 0v178l498 653h-451v179h715v-162l-492 -670h492v-178h-762z" />
<glyph unicode="{" horiz-adv-x="600" d="M41 444v146q115 27 115 168v334q0 145 70.5 209.5t230.5 64.5q37 0 82 -2v-154q-125 0 -162 -29.5t-37 -129.5v-306q0 -96 -26.5 -145t-98.5 -88q70 -39 97.5 -91t27.5 -147v-297q0 -104 37 -134.5t162 -28.5v-154q-72 -2 -90 -2q-156 0 -224.5 67.5t-68.5 221.5v317 q0 84 -26 125t-89 55z" />
<glyph unicode="|" horiz-adv-x="1024" d="M395 -342v1708h232v-1708h-232z" />
<glyph unicode="}" horiz-adv-x="600" d="M63 -186q125 0 162 29.5t37 129.5v306q0 96 26.5 145t98.5 88q-70 39 -97.5 91t-27.5 147v297q0 104 -37 134.5t-162 28.5v154q72 2 91 2q156 0 224 -67.5t68 -221.5v-317q0 -84 26 -125t89 -55v-146q-115 -27 -115 -168v-334q0 -145 -70.5 -209.5t-230.5 -64.5 q-37 0 -82 2v154z" />
<glyph unicode="~" d="M104 578q61 147 130 208.5t172 61.5q72 0 217 -57q133 -53 184 -53.5t84 24t74 90.5l133 -78q-72 -150 -140 -199q-80 -61 -180 -61q-57 0 -295 90q-55 20 -94 21q-49 0 -83 -28.5t-73 -102.5z" />
<glyph unicode="&#xa1;" horiz-adv-x="563" d="M127 -342l102 952h103l96 -952h-301zM158 774v250h250v-250h-250z" />
<glyph unicode="&#xa2;" d="M174 698q0 244 150 383q94 90 237 111v258h127v-258q295 -37 352 -336l-186 -35q-29 94 -66.5 137t-99.5 54v-617q113 6 166 183l186 -27q-55 -295 -352 -338v-281h-127v281q-139 23 -223 96q-164 139 -164 389zM412 694q-1 -256 149 -299v617q-78 -18 -113.5 -93 t-35.5 -225z" />
<glyph unicode="&#xa3;" d="M-25 0v227q111 2 162 15.5t92 54.5q82 76 82 184q0 45 -12 142h-158v178h138q-16 115 -17 170q0 184 115 299.5t297 115.5q162 0 268 -86q63 -51 123 -163l-193 -90q-53 154 -188 153q-82 0 -128 -55t-46 -156q0 -76 31 -188h247v-178h-247v-48q0 -123 -32 -193.5 t-122 -154.5h262q184 0 254 43q41 25 59.5 56.5t28.5 93.5l215 -109q-49 -131 -133 -207q-63 -59 -135 -81.5t-199 -22.5h-764z" />
<glyph unicode="&#xa4;" horiz-adv-x="1366" d="M59 1255l127 127l207 -208q143 96 290.5 96t285.5 -92l205 202l126 -127l-204 -202q96 -147 96 -289q0 -143 -92 -281l205 -207l-125 -127l-207 205q-137 -94 -289 -94q-145 0 -291 94l-205 -205l-127 127l207 205q-94 133 -94 285q0 147 94 283zM387 764q0 -125 87 -212 t210 -87t210 87t87 212q0 123 -86 211t-207 88q-127 0 -214 -87t-87 -212z" />
<glyph unicode="&#xa5;" d="M59 1366h285l295 -565l281 565h223l-256 -500h209v-123h-273l-86 -168v-32h359v-123h-359v-420h-248v420h-380v123h380v32l-92 168h-288v123h223z" />
<glyph unicode="&#xa6;" horiz-adv-x="1024" d="M395 313h232v-655h-232v655zM395 664v702h232v-702h-232z" />
<glyph unicode="&#xa7;" d="M123 -63l219 43q86 -168 279 -168q96 0 156.5 43t60.5 110q0 59 -42 98t-151 80l-215 80q-133 49 -180 113q-66 88 -66 199q0 166 158 264q-70 57 -97.5 108t-27.5 125q0 158 116 252t310 94q305 0 416 -248l-187 -53q-55 152 -245 152q-94 0 -146.5 -35t-52.5 -96 q0 -51 38 -86t122 -64l180 -61q152 -53 220.5 -130t68.5 -196q0 -74 -29 -132t-104 -136q82 -55 117.5 -118.5t35.5 -158.5q0 -174 -125 -272t-344 -98q-186 0 -296.5 66.5t-188.5 224.5zM391 610q0 -116 205 -190l188 -68q74 74 74 140q0 113 -178 174l-215 73 q-74 -66 -74 -129z" />
<glyph unicode="&#xa8;" horiz-adv-x="1024" d="M231 1296q0 47 32 80t79 33t79 -31.5t32 -81.5q0 -47 -32 -77.5t-81 -30.5q-45 0 -77 30.5t-32 77.5zM565 1296q0 47 32 80t79 33t78.5 -31.5t31.5 -81.5q0 -47 -31.5 -77.5t-80.5 -30.5q-47 0 -78 30.5t-31 77.5z" />
<glyph unicode="&#xa9;" horiz-adv-x="1583" d="M84 682q0 299 209 506t510 207q287 0 492.5 -210t205.5 -503t-208 -502t-498 -209q-293 0 -502 209t-209 502zM211 682q0 -246 171 -421t413 -175q240 0 409.5 175t169.5 421t-169 422t-402 176q-250 0 -421 -173t-171 -425zM436 682q0 193 97.5 307.5t259.5 114.5 q274 0 329 -297l-164 -16q-20 72 -30 94q-43 88 -133 88q-82 0 -126 -75t-44 -212t46 -214t128 -77q66 0 107.5 45t49.5 127l166 -18q-16 -96 -51 -150q-96 -139 -283 -139q-158 0 -245 100q-106 125 -107 322z" />
<glyph unicode="&#xaa;" horiz-adv-x="731" d="M57 948q0 213 392 213h28v37q0 86 -123 86q-63 0 -94 -20.5t-43 -73.5l-141 20q33 182 299 183q156 0 219 -66q43 -45 43 -160v-270q0 -51 20 -127h-155q-2 6 -6 14l-2 9l-13 63v2l-4 -4q-43 -45 -53 -55.5t-33 -18.5q-57 -23 -117 -22q-96 0 -156.5 53t-60.5 137z M225 956q0 -84 99 -84q70 0 111.5 42t41.5 112v47q-252 0 -252 -117z" />
<glyph unicode="&#xab;" horiz-adv-x="673" d="M76 510l157 289h97l-97 -289l97 -289h-97zM330 510l166 289h90l-90 -289l90 -289h-90z" />
<glyph unicode="&#xac;" d="M158 338v209h886v-547h-231v338h-655z" />
<glyph unicode="&#xad;" horiz-adv-x="493" d="M-4 426v186h502v-186h-502z" />
<glyph unicode="&#xae;" horiz-adv-x="1583" d="M84 682q0 299 209 506t510 207q287 0 492.5 -210t205.5 -503t-208 -502t-498 -209q-293 0 -502 209t-209 502zM211 682q0 -246 171 -421t413 -175q240 0 409.5 175t169.5 421t-169 422t-402 176q-250 0 -421 -173t-171 -425zM463 272v820h379q147 0 228 -63.5t81 -180.5 q0 -152 -152 -215l152 -361h-184l-133 332h-197v-332h-174zM637 733h180q154 0 154 117q0 53 -38 83t-104 30h-192v-230z" />
<glyph unicode="&#xaf;" horiz-adv-x="1024" d="M211 1223v129h602v-129h-602z" />
<glyph unicode="&#xb0;" d="M328 1122q0 111 80.5 191t191.5 80q115 0 194.5 -80t79.5 -195q0 -113 -79.5 -192.5t-192.5 -79.5q-115 0 -194.5 81t-79.5 195zM465 1120q0 -57 40 -97t97 -40q55 0 95 40t40 95q0 57 -40 97t-97 40q-55 0 -95 -39.5t-40 -95.5z" />
<glyph unicode="&#xb1;" d="M94 -88v190h1012v-190h-1012zM94 594v190h412v426h190v-426h410v-190h-410v-424h-190v424h-412z" />
<glyph unicode="&#xb2;" horiz-adv-x="792" d="M63 1106q25 129 112 200.5t222 71.5q143 0 230.5 -75.5t87.5 -200.5q0 -135 -133 -238q-66 -49 -297 -178h428v-139h-647v151l163 105q170 102 228 155q78 72 78 146q0 59 -41 97t-105 38q-139 0 -162 -172z" />
<glyph unicode="&#xb3;" horiz-adv-x="792" d="M41 760l160 37q45 -137 186 -138q72 0 117 34t45 85q0 55 -42 89t-112 34h-112v129h86q72 0 114.5 30t42.5 81t-35.5 78.5t-101.5 27.5q-63 0 -102 -26.5t-66 -90.5l-153 27q27 102 113.5 161.5t213.5 59.5q131 0 215 -62.5t84 -160.5q0 -133 -129 -182q82 -33 119 -79 t37 -118q0 -109 -92 -176.5t-240 -67.5q-131 0 -223 60.5t-125 167.5z" />
<glyph unicode="&#xb4;" horiz-adv-x="1024" d="M346 1268l393 219l66 -150l-416 -176z" />
<glyph unicode="&#xb5;" d="M174 -342v1352h227v-541q0 -150 39 -211q51 -92 160 -92q53 0 99 26.5t69 69.5q35 68 35 207v541h227v-1010h-192v154q-25 -57 -64 -97q-43 -47 -76.5 -62t-91.5 -15q-72 0 -127 37.5t-78 103.5v-463h-227z" />
<glyph unicode="&#xb6;" d="M70 1026q0 76 33.5 148.5t93.5 121.5q49 41 121.5 55.5t218.5 14.5h618v-115h-149v-1585h-115v1585h-113v-1585h-116v1036h-132q-137 0 -198.5 9.5t-116.5 38.5q-145 74 -145 276zM270 1020q0 -61 28 -110.5t73 -69.5q51 -23 161 -23h130v434h-107q-104 0 -151.5 -10 t-75.5 -39q-57 -57 -58 -182z" />
<glyph unicode="&#xb7;" horiz-adv-x="247" d="M0 389v262h248v-262h-248z" />
<glyph unicode="&#xb8;" horiz-adv-x="1024" d="M305 -358l33 79q86 -49 156 -49q33 0 56 20.5t23 49.5q0 39 -40.5 62.5t-112.5 23.5q-25 0 -45 -2l57 174h82l-27 -92q86 -4 131 -29q84 -45 84 -133q0 -70 -56 -117t-136 -47q-72 0 -205 60z" />
<glyph unicode="&#xb9;" horiz-adv-x="792" d="M123 1024v162l37 12q168 55 254 184h114v-704h215v-133h-618v133h233v489q-119 -96 -235 -143z" />
<glyph unicode="&#xba;" horiz-adv-x="714" d="M53 1077.5q0 139.5 86 227.5t219 88q135 0 218 -87t83 -231q0 -139 -86 -227t-223 -88q-131 0 -214 89t-83 228.5zM225 1077q0 -92 34 -142t95 -50q133 0 133 194q0 189 -129 189q-133 0 -133 -191z" />
<glyph unicode="&#xbb;" horiz-adv-x="673" d="M88 223l94 281l-94 293h94l160 -293l-160 -281h-94zM342 223l94 281l-94 293h94l162 -293l-162 -281h-94z" />
<glyph unicode="&#xbc;" horiz-adv-x="1802" d="M66 1024v162l36 12q168 55 254 184h115v-704h215v-133h-618v133h233v489q-119 -96 -235 -143zM387 0l842 1366h147l-844 -1366h-145zM1083 182v115l385 539h168v-517h129v-137h-129v-182h-172v182h-381zM1243 309h232v185q0 57 8 170z" />
<glyph unicode="&#xbd;" horiz-adv-x="1802" d="M72 1024v162l37 12q168 55 253 184h115v-704h215v-133h-618v133h233v489q-119 -96 -235 -143zM393 0l842 1366h147l-843 -1366h-146zM1096 559q25 129 111.5 200.5t222.5 71.5q143 0 231 -75.5t88 -200.5q0 -135 -133 -238q-68 -51 -299 -178h430v-139h-649v152 q143 90 166 102q172 106 227 158q78 72 78 143q0 59 -41 97t-107 38q-141 0 -161 -170z" />
<glyph unicode="&#xbe;" horiz-adv-x="1802" d="M31 760l159 37q45 -137 187 -138q72 0 117 34t45 85q0 55 -42 89t-112 34h-113v129h86q72 0 115 30t43 81t-36 78.5t-101 27.5q-63 0 -102 -26.5t-66 -90.5l-154 27q27 102 114 161.5t214 59.5q131 0 215 -62.5t84 -160.5q0 -133 -129 -182q82 -33 119 -79t37 -118 q0 -109 -92.5 -176.5t-239.5 -67.5q-131 0 -223.5 60.5t-124.5 167.5zM461 0l844 1366h147l-844 -1366h-147zM1063 182v115l385 539h168v-517h129v-137h-129v-182h-172v182h-381zM1223 309h231v185q0 57 8 170z" />
<glyph unicode="&#xbf;" horiz-adv-x="1028" d="M66 35q0 160 124 289q31 29 175 133q41 29 51 57.5t12 118.5h195v-135q0 -68 -26 -106t-122 -111q-141 -113 -141 -234q0 -90 55 -144.5t146 -54.5q152 0 204 138q23 55 37 147l217 -39q-20 -209 -152 -332.5t-333 -123.5q-190 0 -316 113.5t-126 283.5zM387 776v248h236 v-248h-236z" />
<glyph unicode="&#xc0;" horiz-adv-x="1234" d="M6 0l453 1366h303l459 -1366h-265l-108 326h-524l-109 -326h-209zM276 1634l62 152l410 -191l-41 -106zM385 522h397l-198 611z" />
<glyph unicode="&#xc1;" horiz-adv-x="1234" d="M6 0l453 1366h303l459 -1366h-265l-108 326h-524l-109 -326h-209zM385 522h397l-198 611zM475 1595l408 191l61 -152l-430 -145z" />
<glyph unicode="&#xc2;" horiz-adv-x="1234" d="M6 0l453 1366h303l459 -1366h-265l-108 326h-524l-109 -326h-209zM258 1516l354 260l357 -260l-191 -21l-166 111l-163 -111zM385 522h397l-198 611z" />
<glyph unicode="&#xc3;" horiz-adv-x="1234" d="M6 0l453 1366h303l459 -1366h-265l-108 326h-524l-109 -326h-209zM281 1622q102 117 211 117q55 0 139 -39q96 -43 141 -43q33 0 57.5 16.5t57.5 61.5l71 -103q-82 -117 -213 -116q-53 0 -155 47q-76 37 -98 36q-57 0 -138 -79zM385 522h397l-198 611z" />
<glyph unicode="&#xc4;" horiz-adv-x="1234" d="M6 0l453 1366h303l459 -1366h-265l-108 326h-524l-109 -326h-209zM325 1620q0 47 32 80t79 33t79 -31.5t32 -81.5q0 -47 -32 -77.5t-81 -30.5q-45 0 -77 30.5t-32 77.5zM385 522h397l-198 611zM673 1620q0 47 32 80t79 33t79 -31.5t32 -81.5q0 -47 -32 -77.5t-81 -30.5 q-45 0 -77 30.5t-32 77.5z" />
<glyph unicode="&#xc5;" horiz-adv-x="1234" d="M6 0l453 1366h303l459 -1366h-265l-108 326h-524l-109 -326h-209zM385 522h397l-198 611zM428 1638q0 78 54 132t132 54t131 -53t53 -133q0 -78 -54 -131t-132 -53q-76 0 -130 53t-54 131zM532 1640q0 -37 22.5 -59.5t57.5 -22.5q37 0 59.5 22.5t22.5 57.5t-21.5 58.5 t-54.5 23.5q-39 0 -62.5 -22.5t-23.5 -57.5z" />
<glyph unicode="&#xc6;" horiz-adv-x="1732" d="M-35 0l727 1366h961v-199h-606v-376h481v-195h-481v-385h622v-211h-868v387h-408l-194 -387h-234zM489 578h312v618z" />
<glyph unicode="&#xc7;" horiz-adv-x="1185" d="M78 684q0 319 150.5 510.5t404.5 191.5q209 0 339 -123.5t169 -359.5l-228 -24q-35 145 -84 213q-70 96 -194 96q-139 0 -215 -130t-76 -370q0 -238 79 -371t220 -133q106 0 181 80t89 211l228 -26q-25 -213 -162 -341t-344 -128l-27 -80q231 -6 232 -162 q0 -76 -57.5 -123t-147.5 -47t-227 61l32 80q123 -49 170 -49q41 0 65.5 20.5t24.5 53.5q0 86 -151 86q-33 0 -57 -2l53 166q-213 27 -340 216t-127 484z" />
<glyph unicode="&#xc8;" horiz-adv-x="1099" d="M150 0v1366h878v-203h-633v-370h508v-199h-508v-383h641v-211h-886zM291 1634l59 152l410 -191l-39 -106z" />
<glyph unicode="&#xc9;" horiz-adv-x="1099" d="M150 0v1366h878v-203h-633v-370h508v-199h-508v-383h641v-211h-886zM444 1595l408 191l61 -152l-430 -145z" />
<glyph unicode="&#xca;" horiz-adv-x="1099" d="M150 0v1366h878v-203h-633v-370h508v-199h-508v-383h641v-211h-886zM244 1516l356 260l356 -260l-190 -21l-166 111l-166 -111z" />
<glyph unicode="&#xcb;" horiz-adv-x="1099" d="M150 0v1366h878v-203h-633v-370h508v-199h-508v-383h641v-211h-886zM313 1620q0 47 32 80t79 33t79 -31.5t32 -81.5q0 -47 -32 -77.5t-81 -30.5q-45 0 -77 30.5t-32 77.5zM661 1620q0 47 32 80t79 33t79 -31.5t32 -81.5q0 -47 -32 -77.5t-81 -30.5q-45 0 -77 30.5 t-32 77.5z" />
<glyph unicode="&#xcc;" horiz-adv-x="546" d="M-31 1634l62 152l368 -191l-41 -106zM150 0v1366h245v-1366h-245z" />
<glyph unicode="&#xcd;" horiz-adv-x="546" d="M147 1595l369 191l62 -152l-392 -145zM150 0v1366h245v-1366h-245z" />
<glyph unicode="&#xce;" horiz-adv-x="546" d="M-49 1516l321 260l322 -260l-184 -21l-138 111l-139 -111zM150 0v1366h245v-1366h-245z" />
<glyph unicode="&#xcf;" horiz-adv-x="546" d="M6 1620q0 47 32 80t79 33t79 -31.5t32 -81.5q0 -47 -32 -77.5t-81 -30.5q-45 0 -77 30.5t-32 77.5zM150 0v1366h245v-1366h-245zM313 1620q0 47 32 80t79 33t79 -31.5t32 -81.5q0 -47 -32 -77.5t-81 -30.5q-45 0 -77 30.5t-32 77.5z" />
<glyph unicode="&#xd0;" horiz-adv-x="1341" d="M6 602v191h137v573h504q254 0 422 -170q195 -201 195 -508q0 -356 -236 -553q-166 -135 -436 -135h-449v602h-137zM395 201h207q180 0 287.5 133t107.5 356q0 211 -102 346t-264 135h-236v-378h338v-191h-338v-401z" />
<glyph unicode="&#xd1;" horiz-adv-x="1331" d="M150 0v1366h272l477 -805q0 -2 6 -13t16.5 -29.5t18.5 -33.5l45 -88v969h195v-1366h-226l-532 872l-37 74l-37 74v-1020h-198zM346 1622q102 117 211 117q55 0 139 -39q96 -43 142 -43q33 0 57 16.5t57 61.5l72 -103q-82 -117 -213 -116q-53 0 -156 47q-76 37 -98 36 q-57 0 -137 -79z" />
<glyph unicode="&#xd2;" horiz-adv-x="1316" d="M78 688q0 307 164 502.5t422 195.5q262 0 418.5 -194.5t156.5 -519.5q0 -309 -162 -500.5t-424 -191.5q-274 0 -424 202q-152 205 -151 506zM344 680q0 -244 80 -373t231 -129q82 0 152 43t104 115q61 123 62 332q0 520 -311 520q-174 0 -246 -141q-72 -137 -72 -367z M354 1634l62 152l409 -191l-39 -106z" />
<glyph unicode="&#xd3;" horiz-adv-x="1316" d="M78 688q0 307 164 502.5t422 195.5q262 0 418.5 -194.5t156.5 -519.5q0 -309 -162 -500.5t-424 -191.5q-274 0 -424 202q-152 205 -151 506zM344 680q0 -244 80 -373t231 -129q82 0 152 43t104 115q61 123 62 332q0 520 -311 520q-174 0 -246 -141q-72 -137 -72 -367z M512 1595l410 191l59 -152l-430 -145z" />
<glyph unicode="&#xd4;" horiz-adv-x="1316" d="M78 688q0 307 164 502.5t422 195.5q262 0 418.5 -194.5t156.5 -519.5q0 -309 -162 -500.5t-424 -191.5q-274 0 -424 202q-152 205 -151 506zM309 1516l357 260l354 -260l-189 -21l-165 111l-166 -111zM344 680q0 -244 80 -373t231 -129q82 0 152 43t104 115 q61 123 62 332q0 520 -311 520q-174 0 -246 -141q-72 -137 -72 -367z" />
<glyph unicode="&#xd5;" horiz-adv-x="1316" d="M78 688q0 307 164 502.5t422 195.5q262 0 418.5 -194.5t156.5 -519.5q0 -309 -162 -500.5t-424 -191.5q-274 0 -424 202q-152 205 -151 506zM340 1622q98 117 209 117q55 0 141 -39q96 -43 139 -43q62 0 115 78l74 -103q-84 -117 -213 -116q-53 0 -156 47q-76 37 -100 36 q-55 0 -137 -79zM344 680q0 -244 80 -373t231 -129q82 0 152 43t104 115q61 123 62 332q0 520 -311 520q-174 0 -246 -141q-72 -137 -72 -367z" />
<glyph unicode="&#xd6;" horiz-adv-x="1316" d="M78 688q0 307 164 502.5t422 195.5q262 0 418.5 -194.5t156.5 -519.5q0 -309 -162 -500.5t-424 -191.5q-274 0 -424 202q-152 205 -151 506zM344 680q0 -244 80 -373t231 -129q82 0 152 43t104 115q61 123 62 332q0 520 -311 520q-174 0 -246 -141q-72 -137 -72 -367z M379 1620q0 47 32 80t79 33t79 -31.5t32 -81.5q0 -47 -32 -77.5t-81 -30.5q-45 0 -77 30.5t-32 77.5zM727 1620q0 47 32 80t79 33t79 -31.5t32 -81.5q0 -47 -32 -77.5t-81 -30.5q-45 0 -77 30.5t-32 77.5z" />
<glyph unicode="&#xd7;" d="M166 389l301 301l-301 301l135 135l301 -301l301 301l135 -135l-301 -301l299 -301l-133 -135l-301 301l-301 -301z" />
<glyph unicode="&#xd8;" horiz-adv-x="1316" d="M57 -55l168 241q-145 227 -145 500q0 311 163 505.5t423 194.5q92 0 157.5 -19t157.5 -75l88 129h193l-168 -245q145 -197 145 -498q0 -315 -160.5 -506.5t-423.5 -191.5q-188 0 -315 96l-92 -131h-191zM346 684q0 -163 37 -274l467 706q-45 43 -84 57.5t-104 14.5 q-80 0 -145.5 -38t-98.5 -103q-72 -143 -72 -363zM471 254q82 -76 186 -76q82 0 152 43t104 115q59 125 60 342q0 140 -33 283z" />
<glyph unicode="&#xd9;" horiz-adv-x="1218" d="M137 471v895h252v-879q0 -160 60 -221q68 -72 192 -71q139 0 203 84q49 66 49 208v879h194v-879q0 -154 -23.5 -231.5t-90.5 -144.5q-131 -131 -363 -131q-238 0 -364 133q-59 61 -84 142t-25 216zM299 1634l61 152l408 -191l-39 -106z" />
<glyph unicode="&#xda;" horiz-adv-x="1218" d="M137 471v895h252v-879q0 -160 60 -221q68 -72 192 -71q139 0 203 84q49 66 49 208v879h194v-879q0 -154 -23.5 -231.5t-90.5 -144.5q-131 -131 -363 -131q-238 0 -364 133q-59 61 -84 142t-25 216zM471 1595l408 191l61 -152l-430 -145z" />
<glyph unicode="&#xdb;" horiz-adv-x="1218" d="M137 471v895h252v-879q0 -160 60 -221q68 -72 192 -71q139 0 203 84q49 66 49 208v879h194v-879q0 -154 -23.5 -231.5t-90.5 -144.5q-131 -131 -363 -131q-238 0 -364 133q-59 61 -84 142t-25 216zM264 1516l354 260l357 -260l-191 -21l-166 111l-165 -111z" />
<glyph unicode="&#xdc;" horiz-adv-x="1218" d="M137 471v895h252v-879q0 -160 60 -221q68 -72 192 -71q139 0 203 84q49 66 49 208v879h194v-879q0 -154 -23.5 -231.5t-90.5 -144.5q-131 -131 -363 -131q-238 0 -364 133q-59 61 -84 142t-25 216zM332 1620q0 47 31.5 80t78.5 33t79 -32t32 -81q0 -47 -32 -78t-81 -31 q-47 0 -77.5 31t-30.5 78zM680 1620q0 47 31.5 80t79 33t79 -32t31.5 -81q0 -47 -31.5 -78t-81.5 -31q-47 0 -77.5 31t-30.5 78z" />
<glyph unicode="&#xdd;" horiz-adv-x="1114" d="M-27 1366h297l324 -563l309 563h238l-443 -791v-575h-260v575zM432 1595l408 191l61 -152l-430 -145z" />
<glyph unicode="&#xde;" horiz-adv-x="1241" d="M150 0v1366h245v-192h314q174 0 286 -68q184 -117 185 -340q0 -182 -124 -299t-319 -117h-342v-350h-245zM395 561h291q109 0 172.5 54.5t63.5 148.5t-62 149q-55 55 -196 56h-269v-408z" />
<glyph unicode="&#xdf;" horiz-adv-x="1140" d="M33 737v178h110q8 193 50 299q45 115 155.5 182.5t253.5 67.5q168 0 278.5 -90t110.5 -227q0 -80 -41 -148.5t-110 -103.5q-78 -37 -201 -61q-27 -25 -27 -39.5t16.5 -23.5t86.5 -36q2 0 29.5 -12t64.5 -28.5t55 -24.5q233 -104 234 -328q0 -168 -120 -277.5t-304 -109.5 q-98 0 -207 39l49 153q63 -18 139 -18q133 0 183 49q45 45 45 103q0 59 -46 105t-157 97q-139 63 -189.5 114.5t-50.5 131.5q0 55 20.5 99t76.5 114q31 12 43 16q109 39 144.5 76t35.5 105q0 74 -47 119t-123 45q-98 0 -158.5 -69t-60.5 -181v-1147h-228v831h-110z" />
<glyph unicode="&#xe0;" horiz-adv-x="1105" d="M72 289q0 242 290 313q139 35 386 35v76q0 156 -216 155q-104 0 -159.5 -36.5t-73.5 -118.5l-195 28q23 135 134 209q117 80 323 80q250 0 346 -110q39 -43 51.5 -95.5t12.5 -165.5v-454q-1 -90 30 -205h-219q-27 98 -34 205q-51 -119 -133.5 -172t-208.5 -53 q-147 0 -240.5 86t-93.5 223zM266 1337l68 150l391 -219l-41 -107zM305 303q0 -70 47 -110.5t131 -40.5q119 0 192 74.5t73 195.5v92q-442 0 -443 -211z" />
<glyph unicode="&#xe1;" horiz-adv-x="1105" d="M72 289q0 242 290 313q139 35 386 35v76q0 156 -216 155q-104 0 -159.5 -36.5t-73.5 -118.5l-195 28q23 135 134 209q117 80 323 80q250 0 346 -110q39 -43 51.5 -95.5t12.5 -165.5v-454q-1 -90 30 -205h-219q-27 98 -34 205q-51 -119 -133.5 -172t-208.5 -53 q-147 0 -240.5 86t-93.5 223zM305 303q0 -70 47 -110.5t131 -40.5q119 0 192 74.5t73 195.5v92q-442 0 -443 -211zM405 1268l393 219l66 -150l-416 -176z" />
<glyph unicode="&#xe2;" horiz-adv-x="1105" d="M72 289q0 242 290 313q139 35 386 35v76q0 156 -216 155q-104 0 -159.5 -36.5t-73.5 -118.5l-195 28q23 135 134 209q117 80 323 80q250 0 346 -110q39 -43 51.5 -95.5t12.5 -165.5v-454q-1 -90 30 -205h-219q-27 98 -34 205q-51 -119 -133.5 -172t-208.5 -53 q-147 0 -240.5 86t-93.5 223zM217 1188l348 289l348 -289l-182 -21l-166 131l-168 -131zM305 303q0 -70 47 -110.5t131 -40.5q119 0 192 74.5t73 195.5v92q-442 0 -443 -211z" />
<glyph unicode="&#xe3;" horiz-adv-x="1105" d="M72 289q0 242 290 313q139 35 386 35v76q0 156 -216 155q-104 0 -159.5 -36.5t-73.5 -118.5l-195 28q23 135 134 209q117 80 323 80q250 0 346 -110q39 -43 51.5 -95.5t12.5 -165.5v-454q-1 -90 30 -205h-219q-27 98 -34 205q-51 -119 -133.5 -172t-208.5 -53 q-147 0 -240.5 86t-93.5 223zM239 1309q96 117 201 116q49 0 135 -39q92 -43 135 -43q58 0 111 78l70 -102q-29 -49 -87.5 -83t-118 -34t-149.5 47q-70 37 -102 37q-47 0 -125 -80zM305 303q0 -70 47 -110.5t131 -40.5q119 0 192 74.5t73 195.5v92q-442 0 -443 -211z" />
<glyph unicode="&#xe4;" horiz-adv-x="1105" d="M72 289q0 242 290 313q139 35 386 35v76q0 156 -216 155q-104 0 -159.5 -36.5t-73.5 -118.5l-195 28q23 135 134 209q117 80 323 80q250 0 346 -110q39 -43 51.5 -95.5t12.5 -165.5v-454q-1 -90 30 -205h-219q-27 98 -34 205q-51 -119 -133.5 -172t-208.5 -53 q-147 0 -240.5 86t-93.5 223zM284 1296q0 47 32 80t79 33t79 -31.5t32 -81.5q0 -47 -32 -77.5t-81 -30.5q-45 0 -77 30.5t-32 77.5zM305 303q0 -70 47 -110.5t131 -40.5q119 0 192 74.5t73 195.5v92q-442 0 -443 -211zM618 1296q0 47 32 80t79 33t78.5 -31.5t31.5 -81.5 q0 -47 -31.5 -77.5t-80.5 -30.5q-47 0 -78 30.5t-31 77.5z" />
<glyph unicode="&#xe5;" horiz-adv-x="1105" d="M72 289q0 242 290 313q139 35 386 35v76q0 156 -216 155q-104 0 -159.5 -36.5t-73.5 -118.5l-195 28q23 135 134 209q117 80 323 80q250 0 346 -110q39 -43 51.5 -95.5t12.5 -165.5v-454q-1 -90 30 -205h-219q-27 98 -34 205q-51 -119 -133.5 -172t-208.5 -53 q-147 0 -240.5 86t-93.5 223zM305 303q0 -70 47 -110.5t131 -40.5q119 0 192 74.5t73 195.5v92q-442 0 -443 -211zM375 1319q0 78 54 132t132 54q80 0 133.5 -53t53.5 -133q0 -76 -54.5 -130t-132.5 -54t-132 54t-54 130zM479 1321q0 -37 22.5 -59.5t59.5 -22.5t59.5 22.5 t22.5 57.5t-22.5 58.5t-55.5 23.5q-39 0 -62.5 -22.5t-23.5 -57.5z" />
<glyph unicode="&#xe6;" horiz-adv-x="1757" d="M74 289q0 164 153.5 252t438.5 88q47 0 90 -4q-2 98 -7.5 127.5t-27.5 54.5q-51 55 -176 55q-178 0 -223 -139l-203 25q27 109 92 167q127 115 358 115q109 0 173.5 -22.5t158.5 -92.5q139 115 318 115q215 0 341 -134t126 -364v-61h-713q2 -113 35 -182q29 -61 87 -96 t130 -35q168 0 231 159l211 -34q-43 -139 -167 -221t-292 -82q-131 0 -234.5 54t-160.5 154q-78 -113 -164 -160.5t-209 -47.5q-168 0 -267 83.5t-99 225.5zM322 297q0 -68 46 -109t124 -41q86 0 154.5 49.5t90.5 125.5q17 59 17 180q-160 0 -262 -29q-170 -43 -170 -176z M981 625h469q-8 117 -69.5 180t-166.5 63q-98 0 -157.5 -62t-75.5 -181z" />
<glyph unicode="&#xe7;" horiz-adv-x="954" d="M72 504q0 236 125 381t325 145q197 0 301 -127q68 -80 92 -221l-196 -27q-25 188 -184 189q-104 0 -163 -92.5t-59 -255.5q0 -150 55.5 -234t151.5 -84q152 0 199 193l196 -21q-35 -176 -138 -272t-263 -98l-22 -74q90 -6 131 -27q84 -45 84 -133q0 -68 -56.5 -116 t-136.5 -48q-72 0 -205 60l33 79q90 -49 156 -49q33 0 56.5 20.5t23.5 49.5q0 39 -41 62.5t-113 23.5q-25 0 -43 -2l51 158q-166 27 -263 167t-97 353z" />
<glyph unicode="&#xe8;" horiz-adv-x="1073" d="M72 501.5q0 237.5 131 383t344 145.5q219 0 335.5 -143.5t118.5 -409.5h-692v-28q2 -137 64.5 -213t177.5 -76q88 0 140 38t87 126l207 -29q-104 -315 -448 -315q-211 0 -338 142t-127 379.5zM260 1337l66 150l393 -219l-43 -107zM309 625h457q-6 96 -51 157 q-66 88 -176 88q-96 0 -156 -63t-74 -182z" />
<glyph unicode="&#xe9;" horiz-adv-x="1073" d="M72 501.5q0 237.5 131 383t344 145.5q219 0 335.5 -143.5t118.5 -409.5h-692v-28q2 -137 64.5 -213t177.5 -76q88 0 140 38t87 126l207 -29q-104 -315 -448 -315q-211 0 -338 142t-127 379.5zM309 625h457q-6 96 -51 157q-66 88 -176 88q-96 0 -156 -63t-74 -182z M409 1268l393 219l66 -150l-416 -176z" />
<glyph unicode="&#xea;" horiz-adv-x="1073" d="M72 501.5q0 237.5 131 383t344 145.5q219 0 335.5 -143.5t118.5 -409.5h-692v-28q2 -137 64.5 -213t177.5 -76q88 0 140 38t87 126l207 -29q-104 -315 -448 -315q-211 0 -338 142t-127 379.5zM217 1188l348 289l346 -289l-180 -21l-166 131l-168 -131zM309 625h457 q-6 96 -51 157q-66 88 -176 88q-96 0 -156 -63t-74 -182z" />
<glyph unicode="&#xeb;" horiz-adv-x="1073" d="M72 501.5q0 237.5 131 383t344 145.5q219 0 335.5 -143.5t118.5 -409.5h-692v-28q2 -137 64.5 -213t177.5 -76q88 0 140 38t87 126l207 -29q-104 -315 -448 -315q-211 0 -338 142t-127 379.5zM284 1296q0 47 32 80t79 33t79 -31.5t32 -81.5q0 -47 -32 -77.5t-81 -30.5 q-45 0 -77 30.5t-32 77.5zM309 625h457q-6 96 -51 157q-66 88 -176 88q-96 0 -156 -63t-74 -182zM618 1296q0 47 32 80t79 33t78.5 -31.5t31.5 -81.5q0 -47 -31.5 -77.5t-80.5 -30.5q-47 0 -78 30.5t-31 77.5z" />
<glyph unicode="&#xec;" horiz-adv-x="501" d="M-33 1343l74 144l344 -219l-41 -107zM137 0v1010h228v-1010h-228z" />
<glyph unicode="&#xed;" horiz-adv-x="501" d="M117 1268l344 219l74 -144l-375 -182zM137 0v1010h228v-1010h-228z" />
<glyph unicode="&#xee;" horiz-adv-x="501" d="M-49 1188l299 289l301 -289l-174 -21l-127 131l-125 -131zM137 0v1010h228v-1010h-228z" />
<glyph unicode="&#xef;" horiz-adv-x="501" d="M4 1298q0 45 29.5 76t75 31t75 -29.5t29.5 -77.5q0 -45 -29.5 -73.5t-77.5 -28.5q-43 0 -72.5 29.5t-29.5 72.5zM135 0v1010h227v-1010h-227zM285 1298q0 45 29.5 76t74.5 31t75 -29.5t30 -77.5q0 -45 -30 -73.5t-77 -28.5q-43 0 -72.5 29.5t-29.5 72.5z" />
<glyph unicode="&#xf0;" horiz-adv-x="1083" d="M72 500q0 213 126 362.5t304 149.5q72 0 123 -27t108 -92q-18 74 -62 154.5t-93 134.5l-193 -97l-59 84l168 91q-49 35 -185 94l43 80q131 -27 271 -111l194 96l72 -78l-176 -90q299 -309 299 -725q0 -244 -131 -394t-344 -150q-238 0 -361 178q-104 150 -104 340z M307 498q0 -139 62 -244q55 -88 170 -88q106 0 166.5 86t60.5 237q0 156 -59.5 244t-163.5 88q-133 0 -191 -121q-45 -90 -45 -202z" />
<glyph unicode="&#xf1;" horiz-adv-x="1107" d="M137 0v1010h207v-234q63 137 135 195.5t174 58.5q88 0 166 -42t111 -107q43 -84 43 -230v-651h-228v631q0 92 -43 146t-114 54q-57 0 -107.5 -33.5t-79.5 -90.5q-37 -74 -36 -189v-518h-228zM215 1309q98 117 203 116q47 0 133 -39q94 -43 135 -43q33 0 56.5 16.5 t54.5 61.5l69 -102q-29 -49 -86 -83t-116.5 -34t-149.5 47q-70 37 -104 37q-45 0 -125 -80z" />
<glyph unicode="&#xf2;" horiz-adv-x="1083" d="M72 508q0 231 132 376.5t341 145.5q252 0 383 -207q84 -135 84 -319q0 -231 -133.5 -377.5t-346.5 -146.5q-236 0 -360 186q-100 145 -100 342zM244 1337l66 150l393 -219l-41 -107zM313 506q0 -164 59.5 -252t168.5 -88q111 0 170 89t59 255q0 162 -58 248t-167 86 q-111 0 -171.5 -88t-60.5 -250z" />
<glyph unicode="&#xf3;" horiz-adv-x="1083" d="M72 508q0 231 132 376.5t341 145.5q252 0 383 -207q84 -135 84 -319q0 -231 -133.5 -377.5t-346.5 -146.5q-236 0 -360 186q-100 145 -100 342zM313 506q0 -164 59.5 -252t168.5 -88q111 0 170 89t59 255q0 162 -58 248t-167 86q-111 0 -171.5 -88t-60.5 -250zM393 1268 l393 219l66 -150l-416 -176z" />
<glyph unicode="&#xf4;" horiz-adv-x="1083" d="M72 508q0 231 132 376.5t341 145.5q252 0 383 -207q84 -135 84 -319q0 -231 -133.5 -377.5t-346.5 -146.5q-236 0 -360 186q-100 145 -100 342zM201 1188l348 289l346 -289l-180 -21l-166 131l-168 -131zM313 506q0 -164 59.5 -252t168.5 -88q111 0 170 89t59 255 q0 162 -58 248t-167 86q-111 0 -171.5 -88t-60.5 -250z" />
<glyph unicode="&#xf5;" horiz-adv-x="1083" d="M72 508q0 231 132 376.5t341 145.5q252 0 383 -207q84 -135 84 -319q0 -231 -133.5 -377.5t-346.5 -146.5q-236 0 -360 186q-100 145 -100 342zM236 1309q98 117 202 116q47 0 133 -39q94 -43 136 -43q33 0 56 16.5t54 61.5l70 -102q-29 -49 -86.5 -83t-116.5 -34 t-149 47q-70 37 -105 37q-45 0 -125 -80zM313 506q0 -164 59.5 -252t168.5 -88q111 0 170 89t59 255q0 162 -58 248t-167 86q-111 0 -171.5 -88t-60.5 -250z" />
<glyph unicode="&#xf6;" horiz-adv-x="1083" d="M72 508q0 231 132 376.5t341 145.5q252 0 383 -207q84 -135 84 -319q0 -231 -133.5 -377.5t-346.5 -146.5q-236 0 -360 186q-100 145 -100 342zM268 1296q0 47 32 80t79 33t79 -31.5t32 -81.5q0 -47 -32 -77.5t-81 -30.5q-45 0 -77 30.5t-32 77.5zM313 506 q0 -164 59.5 -252t168.5 -88q111 0 170 89t59 255q0 162 -58 248t-167 86q-111 0 -171.5 -88t-60.5 -250zM602 1296q0 47 32 80t79 33t78.5 -31.5t31.5 -81.5q0 -47 -31.5 -77.5t-80.5 -30.5q-47 0 -78 30.5t-31 77.5z" />
<glyph unicode="&#xf7;" d="M94 594v190h1012v-190h-1012zM475 340q0 51 36 87t89 36q49 0 85 -36t36 -87t-36 -87t-87 -36t-87 36t-36 87zM477 1036q0 51 36 87t89 36q49 0 85 -36t36 -87t-36 -87t-87 -36t-87 36t-36 87z" />
<glyph unicode="&#xf8;" horiz-adv-x="1083" d="M72 -66l133 187q-133 170 -133 387q0 233 133 377.5t346 144.5q125 0 246 -69l71 98h144l-129 -176q74 -96 101.5 -176t27.5 -197q0 -240 -132 -385t-352 -145q-123 0 -235 63l-80 -109h-141zM313 508q0 -93 27 -199l336 490q-57 45 -135 45q-109 0 -168.5 -88 t-59.5 -248zM416 209q61 -43 125 -43q229 0 229 354q0 98 -31 172z" />
<glyph unicode="&#xf9;" horiz-adv-x="1103" d="M137 303v707h234v-658q0 -72 20 -110q41 -68 123 -68q59 0 115.5 40t81.5 101q31 70 30 209v486h228v-1010h-213v219q-20 -63 -43 -98t-64 -68q-88 -74 -213 -73q-162 0 -248 122q-51 78 -51 201zM256 1337l66 150l393 -219l-43 -107z" />
<glyph unicode="&#xfa;" horiz-adv-x="1103" d="M137 303v707h234v-658q0 -72 20 -110q41 -68 123 -68q59 0 115.5 40t81.5 101q31 70 30 209v486h228v-1010h-213v219q-20 -63 -43 -98t-64 -68q-88 -74 -213 -73q-162 0 -248 122q-51 78 -51 201zM405 1268l393 219l66 -150l-416 -176z" />
<glyph unicode="&#xfb;" horiz-adv-x="1103" d="M137 303v707h234v-658q0 -72 20 -110q41 -68 123 -68q59 0 115.5 40t81.5 101q31 70 30 209v486h228v-1010h-213v219q-20 -63 -43 -98t-64 -68q-88 -74 -213 -73q-162 0 -248 122q-51 78 -51 201zM205 1188l348 289l348 -289l-180 -21l-168 131l-168 -131z" />
<glyph unicode="&#xfc;" horiz-adv-x="1103" d="M137 303v707h234v-658q0 -72 20 -110q41 -68 123 -68q59 0 115.5 40t81.5 101q31 70 30 209v486h228v-1010h-213v219q-20 -63 -43 -98t-64 -68q-88 -74 -213 -73q-162 0 -248 122q-51 78 -51 201zM272 1296q0 47 32 80t79 33t79 -31.5t32 -81.5q0 -47 -32 -77.5 t-81 -30.5q-45 0 -77 30.5t-32 77.5zM608 1296q0 47 32 80t79 33t79 -31.5t32 -81.5q0 -47 -32 -77.5t-81 -30.5q-45 0 -77 30.5t-32 77.5z" />
<glyph unicode="&#xfd;" horiz-adv-x="905" d="M14 1010h238l246 -668l211 668h182l-393 -1151q-41 -117 -105.5 -170.5t-169.5 -53.5q-33 0 -131 9v180q41 -2 113 -2q100 0 133 57q12 20 27.5 63.5t15.5 55.5q0 8 -21 63zM326 1268l393 219l66 -150l-416 -176z" />
<glyph unicode="&#xfe;" horiz-adv-x="1097" d="M137 -342v1708h228v-512q94 176 294 176q164 0 259 -133q109 -156 108 -385q0 -248 -119 -408q-92 -125 -264 -124q-184 0 -278 161v-483h-228zM365 414q0 -111 61 -182.5t158 -71.5q94 0 147 89t53 247q0 166 -53 257t-149 91q-94 0 -155.5 -81t-61.5 -206v-143z" />
<glyph unicode="&#xff;" horiz-adv-x="905" d="M14 1010h238l246 -668l211 668h182l-393 -1151q-41 -117 -105.5 -170.5t-169.5 -53.5q-33 0 -131 9v180q41 -2 113 -2q100 0 133 57q12 20 27.5 63.5t15.5 55.5q0 8 -21 63zM194 1296q0 47 32 80t79 33t79 -31.5t32 -81.5q0 -47 -32 -77.5t-81 -30.5q-45 0 -77 30.5 t-32 77.5zM528 1296q0 47 32 80t79 33t78.5 -31.5t31.5 -81.5q0 -47 -31.5 -77.5t-80.5 -30.5q-47 0 -78 30.5t-31 77.5z" />
<glyph unicode="&#x152;" horiz-adv-x="1925" d="M78 690q0 313 154.5 506t408.5 193q172 0 311 -84v61h910v-199h-664v-374h528v-195h-528v-387h664v-211h-910v68q-135 -88 -301 -88q-256 0 -414.5 197.5t-158.5 512.5zM344 702q0 -516 315 -516q131 0 230 88q35 31 48 66t15 98v480q-8 119 -69 180q-84 90 -213 90 q-143 0 -234 -113q-92 -115 -92 -373z" />
<glyph unicode="&#x153;" horiz-adv-x="1728" d="M72 506q0 233 130 378.5t339 145.5q207 0 323 -151q66 82 143.5 116.5t196.5 34.5q213 0 333 -137t120 -379v-35h-690q0 -152 62.5 -232.5t180.5 -80.5q170 0 224 156l208 -33q-23 -78 -88 -154q-74 -84 -155.5 -119.5t-198.5 -35.5q-121 0 -199.5 34.5t-136.5 116.5 q-72 -84 -145.5 -117.5t-186.5 -33.5q-213 0 -333 147q-127 152 -127 379zM307 498q0 -158 58.5 -245t164.5 -87q111 0 170.5 91t59.5 263q0 150 -45 223q-58 101 -183 101q-106 0 -165.5 -91t-59.5 -255zM969 621h454q-4 113 -64.5 177t-160.5 64q-206 1 -229 -241z" />
<glyph unicode="&#x178;" horiz-adv-x="1114" d="M-27 1366h297l324 -563l309 563h238l-443 -791v-575h-260v575zM291 1620q0 47 31.5 80t79 33t79 -32t31.5 -81q0 -47 -31.5 -78t-81.5 -31q-47 0 -77.5 31t-30.5 78zM639 1620q0 47 31.5 80t79 33t79 -32t31.5 -81q0 -47 -31.5 -78t-80.5 -31q-47 0 -78 31t-31 78z" />
<glyph unicode="&#x2c6;" horiz-adv-x="1024" d="M164 1188l348 289l348 -289l-182 -21l-166 131l-168 -131z" />
<glyph unicode="&#x2dc;" horiz-adv-x="1024" d="M186 1309q96 117 201 116q49 0 135 -39q92 -43 135 -43q58 0 111 78l70 -102q-29 -49 -87.5 -83t-118 -34t-149.5 47q-70 37 -102 37q-47 0 -125 -80z" />
<glyph unicode="&#x2000;" horiz-adv-x="912" />
<glyph unicode="&#x2001;" horiz-adv-x="1824" />
<glyph unicode="&#x2002;" horiz-adv-x="912" />
<glyph unicode="&#x2003;" horiz-adv-x="1824" />
<glyph unicode="&#x2004;" horiz-adv-x="608" />
<glyph unicode="&#x2005;" horiz-adv-x="456" />
<glyph unicode="&#x2006;" horiz-adv-x="304" />
<glyph unicode="&#x2007;" horiz-adv-x="304" />
<glyph unicode="&#x2008;" horiz-adv-x="228" />
<glyph unicode="&#x2009;" horiz-adv-x="364" />
<glyph unicode="&#x200a;" horiz-adv-x="101" />
<glyph unicode="&#x2010;" horiz-adv-x="493" d="M-4 426v186h502v-186h-502z" />
<glyph unicode="&#x2011;" horiz-adv-x="493" d="M-4 426v186h502v-186h-502z" />
<glyph unicode="&#x2012;" horiz-adv-x="493" d="M-4 426v186h502v-186h-502z" />
<glyph unicode="&#x2013;" d="M186 424v188h830v-188h-830z" />
<glyph unicode="&#x2014;" horiz-adv-x="1366" d="M-72 428v186h1508v-186h-1508z" />
<glyph unicode="&#x2018;" horiz-adv-x="493" d="M133 872v226l154 268h73l-110 -268h110v-226h-227z" />
<glyph unicode="&#x2019;" horiz-adv-x="493" d="M133 872l111 269h-111v225h227v-225l-153 -269h-74z" />
<glyph unicode="&#x201a;" horiz-adv-x="493" d="M133 0v225h227v-225l-153 -269h-74l111 269h-111z" />
<glyph unicode="&#x201c;" horiz-adv-x="768" d="M129 870v226l150 270h86l-115 -270h96v-226h-217zM418 870v226l149 270h72l-107 -270h107v-226h-221z" />
<glyph unicode="&#x201d;" horiz-adv-x="768" d="M129 871l107 268h-107v227h221v-227l-149 -268h-72zM406 871l114 268h-96v227h215v-227l-150 -268h-83z" />
<glyph unicode="&#x201e;" horiz-adv-x="768" d="M129 0v227h221v-227l-149 -268h-72l107 268h-107zM406 -268l114 268h-96v227h215v-227l-150 -268h-83z" />
<glyph unicode="&#x2022;" horiz-adv-x="1366" d="M401 692q0 119 83 202t204 83q115 0 198 -84t83 -199q0 -119 -83 -201.5t-200 -82.5q-119 0 -202 82.5t-83 199.5z" />
<glyph unicode="&#x2026;" horiz-adv-x="1517" d="M129 0v262h248v-262h-248zM635 0v262h246v-262h-246zM1141 0v262h248v-262h-248z" />
<glyph unicode="&#x202f;" horiz-adv-x="364" />
<glyph unicode="&#x2039;" horiz-adv-x="417" d="M76 524l160 293h94l-94 -293l94 -280h-94z" />
<glyph unicode="&#x203a;" horiz-adv-x="417" d="M88 244l94 280l-94 293h94l160 -293l-160 -280h-94z" />
<glyph unicode="&#x205f;" horiz-adv-x="456" />
<glyph unicode="&#x20ac;" d="M12 504l47 121h70q-2 23 -2 53q0 29 2 67h-117l47 121h82q47 254 187.5 387t357.5 133q164 0 289 -65q51 -25 119 -94l-86 -228q-88 106 -157 148.5t-157 42.5q-233 0 -288 -324h550l-47 -121h-516v-53q0 -29 2 -67h469l-47 -121h-409q57 -317 301 -318q86 0 167.5 42 t133.5 114v-285q-90 -47 -150.5 -62t-171.5 -15q-180 0 -294.5 75.5t-190.5 241.5q-46 101 -62 207h-129z" />
<glyph unicode="&#x2122;" horiz-adv-x="1591" d="M2 1233v133h616v-133h-219v-645h-180v645h-217zM686 588v778h250l164 -467l160 467h251v-778h-172v610l-209 -610h-94l-209 612v-612h-141z" />
<glyph unicode="&#xe000;" horiz-adv-x="1013" d="M0 0v1014h1014v-1014h-1014z" />
</font>
</defs>
</svg>
